<?xml version="1.0" encoding="iso-8859-1"?>
<!-- Generator: Adobe Illustrator 18.0.0, SVG Export Plug-In . SVG Version: 6.00 Build 0)  -->
<!DOCTYPE svg PUBLIC "-//W3C//DTD SVG 1.1//EN" "http://www.w3.org/Graphics/SVG/1.1/DTD/svg11.dtd">
<!-- License: CC0. Made by SVG Repo: https://www.svgrepo.com/svg/90842/baseball -->
<svg version="1.1" id="Capa_1" xmlns="http://www.w3.org/2000/svg" xmlns:xlink="http://www.w3.org/1999/xlink" x="0px" y="0px"
	 viewBox="0 0 297 297" style="enable-background:new 0 0 297 297;" xml:space="preserve">
<g>
	<path fill="#BB2649" d="M292.957,48.257l-9.327-9.327c-5.392-5.39-14.163-5.39-19.555,0L156.801,146.203c6.945,7.269,12.293,16.086,15.474,25.625
		c1.319,3.957,3.097,7.761,5.256,11.336c0.342-0.324,0.702-0.63,1.035-0.963L292.957,67.81
		C298.348,62.419,298.348,53.648,292.957,48.257z"/>
	<path fill="#BB2649" d="M237.866,246.677c-1.931,0-3.747,0.753-5.113,2.118l-0.189,0.189c-2.326,2.328-6.102,2.328-8.428,0l-46.637-46.637
		c-7.475-7.473-13.19-16.723-16.532-26.749c-2.761-8.281-7.481-15.919-13.652-22.089L32.924,39.118
		c-2.696-2.694-6.237-4.042-9.777-4.042c-3.541,0-7.082,1.347-9.777,4.043l-9.327,9.326C-1.348,53.836-1.348,62.608,4.043,68
		l114.39,114.389c6.171,6.172,13.809,10.892,22.09,13.653c10.026,3.342,19.275,9.058,26.749,16.532l46.637,46.637
		c1.118,1.117,1.746,2.634,1.746,4.214c0,1.581-0.629,3.098-1.746,4.215c-1.366,1.366-2.118,3.181-2.118,5.112
		c0,1.931,0.752,3.746,2.118,5.112c1.367,1.367,3.182,2.119,5.113,2.119s3.746-0.752,5.112-2.118l18.845-18.844
		c2.818-2.819,2.818-7.407-0.001-10.227C241.613,247.43,239.797,246.677,237.866,246.677z"/>
	<path fill="#BB2649" d="M119.502,202.159l-46.638,46.637c-2.327,2.327-6.103,2.326-8.428-0.001c-1.41-1.409-3.261-2.114-5.113-2.114
		c-1.852,0-3.704,0.705-5.114,2.115c-2.818,2.819-2.818,7.406,0.001,10.227l18.843,18.842c2.819,2.82,7.404,2.82,10.227,0.001
		c1.365-1.366,2.118-3.182,2.118-5.113c0-1.931-0.753-3.747-2.118-5.113l-0.178-0.177c-1.122-1.118-1.755-2.635-1.757-4.218
		c-0.002-1.583,0.626-3.102,1.746-4.222l46.637-46.637c1.915-1.916,3.957-3.705,6.091-5.377c-5.017-1.756-9.823-4.104-14.304-6.971
		C120.859,200.757,120.192,201.469,119.502,202.159z"/>
	<path fill="#BB2649" d="M130.649,46.286c0-6.343-2.351-12.307-6.557-16.891c-3.388,4.776-5.388,10.602-5.388,16.891c0,6.288,2,12.114,5.388,16.89
		C128.299,58.593,130.649,52.63,130.649,46.286z"/>
	<path fill="#BB2649" d="M147.974,75.554c6.271,0,12.083-1.989,16.851-5.36c-6.061-6.44-9.461-14.896-9.461-23.908c0-9.012,3.4-17.468,9.461-23.909
		c-4.769-3.371-10.58-5.36-16.851-5.36c-6.271,0-12.083,1.989-16.852,5.361c6.061,6.44,9.461,14.896,9.461,23.909
		c0,9.011-3.4,17.467-9.461,23.908C135.89,73.565,141.703,75.554,147.974,75.554z"/>
	<path fill="#BB2649" d="M177.242,46.286c0-6.288-2-12.115-5.388-16.891c-4.206,4.583-6.556,10.548-6.556,16.891s2.351,12.307,6.557,16.89
		C175.242,58.401,177.242,52.574,177.242,46.286z"/>
</g>
</svg>
