<?xml version="1.0" encoding="UTF-8"?>
<svg version="1.1" xmlns="http://www.w3.org/2000/svg" width="109" height="109">
<path d="M0 0 C1.24523438 -0.02900391 2.49046875 -0.05800781 3.7734375 -0.08789062 C5.5678125 -0.10045898 5.5678125 -0.10045898 7.3984375 -0.11328125 C8.49591309 -0.12786377 9.59338867 -0.14244629 10.72412109 -0.1574707 C13.625 0.3125 13.625 0.3125 15.97607422 1.87719727 C18.24655154 5.23047108 18.17038652 7.67185086 18.234375 11.703125 C18.25091125 12.40773865 18.26744751 13.11235229 18.28448486 13.83831787 C18.33291139 16.07980102 18.35432187 18.32060613 18.375 20.5625 C18.40316448 22.08597151 18.43309259 23.60941152 18.46484375 25.1328125 C18.53866593 28.85922756 18.58827469 32.5855138 18.625 36.3125 C19.40625244 36.29678955 20.18750488 36.2810791 20.99243164 36.26489258 C24.55737979 36.20224761 28.12221177 36.16341511 31.6875 36.125 C32.91662109 36.09986328 34.14574219 36.07472656 35.41210938 36.04882812 C41.94620826 35.99599175 46.88335901 36.07926387 52.625 39.3125 C53.285 39.6425 53.945 39.9725 54.625 40.3125 C54.77005993 44.89550125 54.85899681 49.47791363 54.9375 54.0625 C54.97939453 55.36445312 55.02128906 56.66640625 55.06445312 58.0078125 C55.08056641 59.25820313 55.09667969 60.50859375 55.11328125 61.796875 C55.13946533 62.94897461 55.16564941 64.10107422 55.19262695 65.28808594 C54.625 68.3125 54.625 68.3125 52.31079102 70.68164062 C48.83368265 72.79300176 46.30333596 72.91687116 42.25 73.0625 C41.55970703 73.09142334 40.86941406 73.12034668 40.15820312 73.15014648 C32.98483317 73.41808912 25.80164968 73.4053015 18.625 73.3125 C18.63660156 74.37726563 18.64820312 75.44203125 18.66015625 76.5390625 C18.69684375 81.13084884 18.67547855 85.72089384 18.625 90.3125 C18.61629883 91.35132324 18.61629883 91.35132324 18.60742188 92.41113281 C18.57942139 94.29556518 18.50947193 96.17923437 18.4375 98.0625 C18.40269531 99.15046875 18.36789063 100.2384375 18.33203125 101.359375 C17.31667666 105.60030358 16.30492983 106.89589537 12.625 109.3125 C8.25731463 110.02301054 3.97764816 109.96421927 -0.4375 109.875 C-1.62150391 109.88595703 -2.80550781 109.89691406 -4.02539062 109.90820312 C-12.67596552 109.83468549 -12.67596552 109.83468549 -15.68139648 107.58959961 C-18.81961634 103.37017095 -18.49685317 99.02351867 -18.47265625 93.91796875 C-18.46943359 92.71591797 -18.46621094 91.51386719 -18.46289062 90.27539062 C-18.45032227 88.40657227 -18.45032227 88.40657227 -18.4375 86.5 C-18.43298828 85.23478516 -18.42847656 83.96957031 -18.42382812 82.66601562 C-18.41206251 79.5481289 -18.39562272 76.43033867 -18.375 73.3125 C-19.12595947 73.32297363 -19.87691895 73.33344727 -20.65063477 73.34423828 C-24.07955529 73.38601891 -27.50842207 73.41189622 -30.9375 73.4375 C-32.11892578 73.45425781 -33.30035156 73.47101563 -34.51757812 73.48828125 C-48.26297938 73.5652863 -48.26297938 73.5652863 -53.02587891 70.11743164 C-56.05026388 66.07123582 -54.84008332 59.71712586 -54.8125 54.875 C-54.83248047 53.63427734 -54.85246094 52.39355469 -54.87304688 51.11523438 C-54.87240234 49.92349609 -54.87175781 48.73175781 -54.87109375 47.50390625 C-54.87294678 46.41279541 -54.8747998 45.32168457 -54.87670898 44.19750977 C-54.26198093 40.66259911 -53.13763003 39.52305496 -50.375 37.3125 C-47.4530231 35.85151155 -44.87606525 36.20115099 -41.6171875 36.21484375 C-40.62261032 36.21696617 -40.62261032 36.21696617 -39.60794067 36.21913147 C-37.48858137 36.22473246 -35.36932741 36.237285 -33.25 36.25 C-31.81380361 36.25501488 -30.37760556 36.25957781 -28.94140625 36.26367188 C-25.41923655 36.27470218 -21.89712855 36.29196741 -18.375 36.3125 C-18.39071045 35.4654248 -18.4064209 34.61834961 -18.42260742 33.74560547 C-18.4739557 30.58107796 -18.51145672 27.41676392 -18.53979492 24.25195312 C-18.55481428 22.88632184 -18.57523608 21.52073824 -18.60131836 20.15527344 C-18.63800137 18.18446095 -18.65318551 16.21328592 -18.66796875 14.2421875 C-18.6836792 13.05866699 -18.69938965 11.87514648 -18.71557617 10.65576172 C-18.33375799 6.9076483 -17.33098772 4.51353142 -15.375 1.3125 C-10.92231399 -0.91384301 -4.88951364 0.03772773 0 0 Z " fill="#FDE861" transform="translate(54.375,-0.3125)"/>
<path d="M0 0 C1.24523438 -0.02900391 2.49046875 -0.05800781 3.7734375 -0.08789062 C5.5678125 -0.10045898 5.5678125 -0.10045898 7.3984375 -0.11328125 C8.49591309 -0.12786377 9.59338867 -0.14244629 10.72412109 -0.1574707 C13.625 0.3125 13.625 0.3125 15.97607422 1.87719727 C18.24655154 5.23047108 18.17038652 7.67185086 18.234375 11.703125 C18.25091125 12.40773865 18.26744751 13.11235229 18.28448486 13.83831787 C18.33291139 16.07980102 18.35432187 18.32060613 18.375 20.5625 C18.40316448 22.08597151 18.43309259 23.60941152 18.46484375 25.1328125 C18.53866593 28.85922756 18.58827469 32.5855138 18.625 36.3125 C19.40625244 36.29678955 20.18750488 36.2810791 20.99243164 36.26489258 C24.55737979 36.20224761 28.12221177 36.16341511 31.6875 36.125 C32.91662109 36.09986328 34.14574219 36.07472656 35.41210938 36.04882812 C41.94620826 35.99599175 46.88335901 36.07926387 52.625 39.3125 C53.285 39.6425 53.945 39.9725 54.625 40.3125 C54.625 41.3025 54.625 42.2925 54.625 43.3125 C50.32726021 45.49779142 47.50386533 45.29047551 42.8125 44.4375 C41.65105469 44.23382813 40.48960938 44.03015625 39.29296875 43.8203125 C38.41253906 43.65273438 37.53210938 43.48515625 36.625 43.3125 C39.63117269 40.30632731 42.44881598 40.71664684 46.625 40.3125 C39.35179491 39.28448515 32.12233207 38.97376662 24.78710938 38.70703125 C23.87896484 38.66964844 22.97082031 38.63226563 22.03515625 38.59375 C21.21152588 38.56345703 20.38789551 38.53316406 19.53930664 38.50195312 C17.625 38.3125 17.625 38.3125 16.625 37.3125 C16.50272204 34.9839188 16.44517309 32.65189446 16.4140625 30.3203125 C16.38599167 28.87889494 16.35732719 27.43748884 16.328125 25.99609375 C16.28685609 23.71598658 16.24998374 21.43609286 16.22363281 19.15576172 C16.19603909 16.96015809 16.15016655 14.76553801 16.1015625 12.5703125 C16.0718335 10.59248779 16.0718335 10.59248779 16.04150391 8.57470703 C15.86270772 5.40696884 15.86270772 5.40696884 14.44873047 3.38378906 C11.88765127 1.87936931 9.93023987 1.92395927 6.96875 1.9140625 C5.86402344 1.91019531 4.75929687 1.90632812 3.62109375 1.90234375 C2.46738281 1.91394531 1.31367187 1.92554687 0.125 1.9375 C-1.02871094 1.92589844 -2.18242188 1.91429688 -3.37109375 1.90234375 C-4.47582031 1.90621094 -5.58054688 1.91007813 -6.71875 1.9140625 C-8.23758789 1.91913818 -8.23758789 1.91913818 -9.78710938 1.92431641 C-12.34755788 2.14388939 -12.34755788 2.14388939 -14.19873047 3.38378906 C-16.0290382 6.38491632 -15.79917921 9.08533324 -15.8515625 12.5703125 C-15.87493179 13.62579788 -15.87493179 13.62579788 -15.89877319 14.7026062 C-15.94626913 16.94755986 -15.97405391 19.19220257 -16 21.4375 C-16.03645767 23.68972064 -16.07702429 25.94176368 -16.12265015 28.19381714 C-16.16234454 30.23209636 -16.1900854 32.27059779 -16.21728516 34.30908203 C-16.375 37.3125 -16.375 37.3125 -17.375 38.3125 C-19.7035812 38.43477796 -22.03560554 38.49232691 -24.3671875 38.5234375 C-25.80860506 38.55150833 -27.25001116 38.58017281 -28.69140625 38.609375 C-30.97151342 38.65064391 -33.25140714 38.68751626 -35.53173828 38.71386719 C-37.72734191 38.74146091 -39.92196199 38.78733345 -42.1171875 38.8359375 C-43.4357373 38.85575684 -44.75428711 38.87557617 -46.11279297 38.89599609 C-49.29341307 39.06417613 -49.29341307 39.06417613 -51.30371094 40.55444336 C-52.67566385 42.80590939 -52.76248578 44.28616498 -52.7734375 46.91796875 C-52.77730469 47.81966797 -52.78117187 48.72136719 -52.78515625 49.65039062 C-52.77355469 50.59076172 -52.76195312 51.53113281 -52.75 52.5 C-52.76160156 53.42103516 -52.77320313 54.34207031 -52.78515625 55.29101562 C-52.75950598 61.31455504 -51.82129385 65.805103 -49.375 71.3125 C-53.25 69.4375 -53.25 69.4375 -54.375 68.3125 C-54.68511936 63.88228449 -54.65347039 59.43972999 -54.6875 55 C-54.71650391 53.75025391 -54.74550781 52.50050781 -54.77539062 51.21289062 C-54.78795898 49.41174805 -54.78795898 49.41174805 -54.80078125 47.57421875 C-54.81536377 46.47037842 -54.82994629 45.36653809 -54.8449707 44.22924805 C-54.26894179 40.65427795 -53.16680175 39.53587207 -50.375 37.3125 C-47.4530231 35.85151155 -44.87606525 36.20115099 -41.6171875 36.21484375 C-40.62261032 36.21696617 -40.62261032 36.21696617 -39.60794067 36.21913147 C-37.48858137 36.22473246 -35.36932741 36.237285 -33.25 36.25 C-31.81380361 36.25501488 -30.37760556 36.25957781 -28.94140625 36.26367188 C-25.41923655 36.27470218 -21.89712855 36.29196741 -18.375 36.3125 C-18.39071045 35.4654248 -18.4064209 34.61834961 -18.42260742 33.74560547 C-18.4739557 30.58107796 -18.51145672 27.41676392 -18.53979492 24.25195312 C-18.55481428 22.88632184 -18.57523608 21.52073824 -18.60131836 20.15527344 C-18.63800137 18.18446095 -18.65318551 16.21328592 -18.66796875 14.2421875 C-18.6836792 13.05866699 -18.69938965 11.87514648 -18.71557617 10.65576172 C-18.33375799 6.9076483 -17.33098772 4.51353142 -15.375 1.3125 C-10.92231399 -0.91384301 -4.88951364 0.03772773 0 0 Z " fill="#F8F3E1" transform="translate(54.375,-0.3125)"/>
<path d="M0 0 C23.99516389 0.78110498 23.99516389 0.78110498 33 3 C33 3.33 33 3.66 33 4 C29.37 4.33 25.74 4.66 22 5 C24.660625 5.556875 24.660625 5.556875 27.375 6.125 C28.87160156 6.43824219 28.87160156 6.43824219 30.3984375 6.7578125 C31.68621094 6.87769531 31.68621094 6.87769531 33 7 C33.66 6.34 34.32 5.68 35 5 C35.495 6.98 35.495 6.98 36 9 C35.38125 9.4125 34.7625 9.825 34.125 10.25 C31.93231719 12.05573879 31.07211583 13.4090534 30 16 C29.67 14.35 29.34 12.7 29 11 C23.92079998 9.88237642 18.7794168 9.33817039 13.61914062 8.75 C8.21245421 8.10622711 8.21245421 8.10622711 6 7 C6 5.68 6 4.36 6 3 C3.03 2.505 3.03 2.505 0 2 C0 1.34 0 0.68 0 0 Z " fill="#F7E477" transform="translate(71,37)"/>
<path d="M0 0 C1.66611905 -0.042721 3.33382885 -0.04063832 5 0 C6 1 6 1 6.11352539 3.68383789 C6.10828857 4.85164795 6.10305176 6.01945801 6.09765625 7.22265625 C6.09443359 8.48271484 6.09121094 9.74277344 6.08789062 11.04101562 C6.07953403 12.38151109 6.07106907 13.72200588 6.0625 15.0625 C6.0574866 16.40689942 6.05292342 17.7513006 6.04882812 19.09570312 C6.03699488 22.39717941 6.02050971 25.69856803 6 29 C5.67 28.34 5.34 27.68 5 27 C1.97065509 26.34227572 1.97065509 26.34227572 -1 26 C-0.91621094 25.38511719 -0.83242188 24.77023438 -0.74609375 24.13671875 C-0.64425781 23.32847656 -0.54242188 22.52023438 -0.4375 21.6875 C-0.33308594 20.88699219 -0.22867188 20.08648438 -0.12109375 19.26171875 C0.14755178 16.83182884 0.14755178 16.83182884 -1 14 C-0.5625 11.9375 -0.5625 11.9375 0 10 C0 9.34 0 8.68 0 8 C-0.66 8 -1.32 8 -2 8 C-1.34 5.36 -0.68 2.72 0 0 Z " fill="#FAEF8E" transform="translate(63,3)"/>
<path d="M0 0 C0 3 0 3 -1.54296875 4.64453125 C-4.86076491 6.47485759 -7.53404468 6.5193195 -11.3125 6.6875 C-12.35470703 6.73765259 -12.35470703 6.73765259 -13.41796875 6.78881836 C-20.60946551 7.10117466 -27.80358557 7.09305708 -35 7 C-34.98839844 8.06476563 -34.97679687 9.12953125 -34.96484375 10.2265625 C-34.92815625 14.81834884 -34.94952145 19.40839384 -35 24 C-35.00580078 24.69254883 -35.01160156 25.38509766 -35.01757812 26.09863281 C-35.04557861 27.98306518 -35.11552807 29.86673437 -35.1875 31.75 C-35.22230469 32.83796875 -35.25710937 33.9259375 -35.29296875 35.046875 C-36.31009575 39.29520654 -37.30321846 40.59135714 -41 43 C-45.41148492 43.63365591 -49.74137466 43.51476979 -54.1875 43.375 C-55.38826172 43.36082031 -56.58902344 43.34664062 -57.82617188 43.33203125 C-66.63365525 43.18317238 -66.63365525 43.18317238 -69 42 C-68.67 41.34 -68.34 40.68 -68 40 C-66.82824219 40.24169922 -66.82824219 40.24169922 -65.6328125 40.48828125 C-61.02589691 41.13721237 -56.52118273 41.1841185 -51.875 41.1875 C-50.98167969 41.19974609 -50.08835937 41.21199219 -49.16796875 41.22460938 C-47.87439453 41.22750977 -47.87439453 41.22750977 -46.5546875 41.23046875 C-45.38655518 41.23663208 -45.38655518 41.23663208 -44.19482422 41.24291992 C-41.74832396 40.97214487 -40.12095916 40.21866099 -38 39 C-37.97494385 38.00556885 -37.9498877 37.0111377 -37.92407227 35.98657227 C-37.83015118 32.30951253 -37.72989381 28.6326485 -37.62768555 24.95581055 C-37.58427854 23.362107 -37.54260781 21.7683552 -37.50268555 20.17456055 C-37.44512193 17.88836092 -37.38138851 15.60240551 -37.31640625 13.31640625 C-37.29969376 12.59973282 -37.28298126 11.88305939 -37.26576233 11.14466858 C-37.11387171 6.11387171 -37.11387171 6.11387171 -36 5 C-34.09504734 4.87812227 -32.18593654 4.82024538 -30.27734375 4.7890625 C-29.09849609 4.76070313 -27.91964844 4.73234375 -26.70507812 4.703125 C-24.22084275 4.65161157 -21.73644904 4.60717836 -19.25195312 4.5703125 C-8.91573651 4.60112926 -8.91573651 4.60112926 0 0 Z " fill="#F5F1DB" transform="translate(108,66)"/>
<path d="M0 0 C0.66 0 1.32 0 2 0 C2.086985 3.77068832 2.14038579 7.54111932 2.1875 11.3125 C2.21263672 12.38435547 2.23777344 13.45621094 2.26367188 14.56054688 C2.27333984 15.58857422 2.28300781 16.61660156 2.29296875 17.67578125 C2.3086792 18.62364502 2.32438965 19.57150879 2.34057617 20.5480957 C2 23 2 23 0.65576172 24.76098633 C-5.68596606 29.50652872 -14.95481477 28.44369314 -22.4375 28.625 C-23.74138672 28.66367188 -25.04527344 28.70234375 -26.38867188 28.7421875 C-29.59230999 28.83606701 -32.79594832 28.92175154 -36 29 C-36 28.01 -36 27.02 -36 26 C-34.58460937 25.92652344 -34.58460937 25.92652344 -33.140625 25.8515625 C-25.95434961 25.43308462 -18.96813177 24.82084551 -11.87890625 23.5 C-8.27228651 22.87361285 -4.63234248 22.45404281 -1 22 C-0.67 14.74 -0.34 7.48 0 0 Z " fill="#E9CE53" transform="translate(107,43)"/>
<path d="M0 0 C2.50008123 -0.02784744 4.99983176 -0.04722847 7.5 -0.0625 C8.51513672 -0.07506836 8.51513672 -0.07506836 9.55078125 -0.08789062 C17.38638602 -0.12318614 25.18693591 0.46559316 33 1 C33.05534912 1.9787207 33.11069824 2.95744141 33.16772461 3.96582031 C33.37448162 7.60390668 33.58626853 11.24168593 33.79956055 14.87939453 C33.89109887 16.45255765 33.98128087 18.02580032 34.07006836 19.59912109 C34.1980742 21.86317975 34.33098727 24.12690564 34.46484375 26.390625 C34.50343002 27.09181458 34.5420163 27.79300415 34.58177185 28.51544189 C34.77936231 31.78035227 35.04001303 34.86333928 36 38 C35.01 37.67 34.02 37.34 33 37 C31.52647371 34.05294742 31.79640676 31.3447551 31.71875 28.05859375 C31.69113586 27.03428001 31.69113586 27.03428001 31.66296387 25.98927307 C31.58418998 23.06307812 31.51640015 20.1366524 31.44775391 17.21020508 C31.39613848 15.07621484 31.33885607 12.94242928 31.28125 10.80859375 C31.25095703 9.52782959 31.22066406 8.24706543 31.18945312 6.92749023 C31.33050806 4.1105195 31.33050806 4.1105195 30 3 C28.20660421 2.8541221 26.4078857 2.77267664 24.609375 2.71875 C22.95615234 2.66267578 22.95615234 2.66267578 21.26953125 2.60546875 C20.10808594 2.57066406 18.94664063 2.53585938 17.75 2.5 C15.47384017 2.43087029 13.19778775 2.35808524 10.921875 2.28125 C9.90706055 2.25095703 8.89224609 2.22066406 7.84667969 2.18945312 C5.14696472 2.00978084 2.63565963 1.59698114 0 1 C0 0.67 0 0.34 0 0 Z " fill="#E9D063" transform="translate(6,69)"/>
<path d="M0 0 C0.66 0.33 1.32 0.66 2 1 C1.34 1.99 0.68 2.98 0 4 C-0.15158543 6.92910243 -0.15158543 6.92910243 0.09375 10.2421875 C0.15433594 11.47324219 0.21492188 12.70429688 0.27734375 13.97265625 C0.42533694 16.56643164 0.57377177 19.16018187 0.72265625 21.75390625 C0.78324219 22.98753906 0.84382813 24.22117187 0.90625 25.4921875 C0.97134766 26.61995605 1.03644531 27.74772461 1.10351562 28.90966797 C1 32 1 32 -1 37 C-12.22 37 -23.44 37 -35 37 C-35 36.67 -35 36.34 -35 36 C-24.44 35.67 -13.88 35.34 -3 35 C-2.75050476 24.60411455 -2.75050476 24.60411455 -2.52197266 14.20776367 C-2.4863623 12.91588135 -2.45075195 11.62399902 -2.4140625 10.29296875 C-2.40270264 9.61737915 -2.39134277 8.94178955 -2.37963867 8.24572754 C-2.26803943 4.63354232 -2.06105499 3.09158249 0 0 Z " fill="#EBD165" transform="translate(40,2)"/>
<path d="M0 0 C4.46570449 -0.0743839 8.93107684 -0.12871171 13.3972168 -0.16479492 C14.91518438 -0.17984353 16.43310876 -0.20028738 17.95092773 -0.22631836 C20.13796677 -0.26287653 22.32442896 -0.27976523 24.51171875 -0.29296875 C25.82615967 -0.3086792 27.14060059 -0.32438965 28.49487305 -0.34057617 C32.20334571 0.01975812 34.13143944 0.64359623 37 3 C37 3.99 37 4.98 37 6 C32.70226021 8.18529142 29.87886533 7.97797551 25.1875 7.125 C24.02605469 6.92132813 22.86460938 6.71765625 21.66796875 6.5078125 C20.78753906 6.34023438 19.90710938 6.17265625 19 6 C22.00617269 2.99382731 24.82381598 3.40414684 29 3 C22.66754866 2.11136591 16.38656595 1.70617622 10 1.4375 C9.03449219 1.39431641 8.06898437 1.35113281 7.07421875 1.30664062 C4.71625575 1.20158287 2.35820584 1.09943086 0 1 C0 0.67 0 0.34 0 0 Z " fill="#F2EBC3" transform="translate(72,37)"/>
<path d="M0 0 C0.66 0 1.32 0 2 0 C2.78688445 2.77723925 3.11949924 5.22610077 3.09765625 8.109375 C3.09282227 9.24052734 3.09282227 9.24052734 3.08789062 10.39453125 C3.07951172 11.17183594 3.07113281 11.94914062 3.0625 12.75 C3.05798828 13.54277344 3.05347656 14.33554687 3.04882812 15.15234375 C3.03708565 17.10159508 3.01915146 19.05080738 3 21 C1.68 21 0.36 21 -1 21 C-1.0270203 18.24993392 -1.04684883 15.50013454 -1.0625 12.75 C-1.07087891 11.97269531 -1.07925781 11.19539063 -1.08789062 10.39453125 C-1.09111328 9.64042969 -1.09433594 8.88632813 -1.09765625 8.109375 C-1.10289307 7.41811523 -1.10812988 6.72685547 -1.11352539 6.01464844 C-0.99437971 3.90026102 -0.57618237 2.03358485 0 0 Z " fill="#FFF9B8" transform="translate(66,7)"/>
<path d="M0 0 C0.75410156 0.00451172 1.50820312 0.00902344 2.28515625 0.01367188 C4.14847127 0.02546501 6.01174555 0.04340058 7.875 0.0625 C7.875 1.0525 7.875 2.0425 7.875 3.0625 C4.575 3.3925 1.275 3.7225 -2.125 4.0625 C-2.125 4.3925 -2.125 4.7225 -2.125 5.0625 C-4.105 5.0625 -6.085 5.0625 -8.125 5.0625 C-8.785 3.7425 -9.445 2.4225 -10.125 1.0625 C-6.93675432 -0.53162284 -3.49603338 -0.03924735 0 0 Z " fill="#FBEF88" transform="translate(13.125,65.9375)"/>
<path d="M0 0 C0.66 0 1.32 0 2 0 C2.11597653 3.77057547 2.18717396 7.54069393 2.25 11.3125 C2.28351563 12.38435547 2.31703125 13.45621094 2.3515625 14.56054688 C2.36445312 15.58857422 2.37734375 16.61660156 2.390625 17.67578125 C2.41157227 18.62364502 2.43251953 19.57150879 2.45410156 20.5480957 C2 23 2 23 -0.02441406 24.83276367 C-0.67635742 25.21795166 -1.32830078 25.60313965 -2 26 C-1.84152588 25.44731445 -1.68305176 24.89462891 -1.51977539 24.32519531 C-0.95067733 21.77935695 -0.7896572 19.40300555 -0.68359375 16.796875 C-0.64169922 15.8171875 -0.59980469 14.8375 -0.55664062 13.828125 C-0.51732422 12.81234375 -0.47800781 11.7965625 -0.4375 10.75 C-0.39431641 9.71875 -0.35113281 8.6875 -0.30664062 7.625 C-0.20074318 5.0834613 -0.09866557 2.54182804 0 0 Z " fill="#E8CD62" transform="translate(107,43)"/>
<path d="M0 0 C0.66 0.33 1.32 0.66 2 1 C2 6.61 2 12.22 2 18 C1.01 18 0.02 18 -1 18 C-1.02690844 15.37493198 -1.04679404 12.75013827 -1.0625 10.125 C-1.07087891 9.37863281 -1.07925781 8.63226563 -1.08789062 7.86328125 C-1.11328125 2.2265625 -1.11328125 2.2265625 0 0 Z " fill="#FEF18D" transform="translate(41,85)"/>
<path d="M0 0 C0 3 0 3 -1.53808594 4.66918945 C-4.9333238 6.50451686 -7.54302516 6.33877351 -11.390625 6.29296875 C-12.09523865 6.28872391 -12.79985229 6.28447906 -13.52581787 6.28010559 C-15.76760712 6.26336538 -18.00848431 6.22572404 -20.25 6.1875 C-21.77342448 6.17244704 -23.29686311 6.1587597 -24.8203125 6.14648438 C-28.54716941 6.11347791 -32.27349563 6.06172854 -36 6 C-36 5.67 -36 5.34 -36 5 C-35.22398438 4.98541748 -34.44796875 4.97083496 -33.6484375 4.95581055 C-30.09848227 4.88088234 -26.54942157 4.78436887 -23 4.6875 C-21.77925781 4.66494141 -20.55851562 4.64238281 -19.30078125 4.61914062 C-8.93891936 4.61167599 -8.93891936 4.61167599 0 0 Z " fill="#F1EACB" transform="translate(108,66)"/>
<path d="M0 0 C2.00016667 3.00025 2.26009441 3.7092458 2.37890625 7.08984375 C2.41306641 7.87423828 2.44722656 8.65863281 2.48242188 9.46679688 C2.50884766 10.28212891 2.53527344 11.09746094 2.5625 11.9375 C2.62273087 13.55091853 2.68641676 15.16421255 2.75390625 16.77734375 C2.77783447 17.49140381 2.8017627 18.20546387 2.82641602 18.94116211 C3.00432341 21.05127897 3.43148081 22.96335517 4 25 C3.01 24.67 2.02 24.34 1 24 C-0.25248502 21.49502996 -0.11374406 19.79146726 -0.09765625 16.9921875 C-0.09443359 16.00605469 -0.09121094 15.01992187 -0.08789062 14.00390625 C-0.07951172 12.97136719 -0.07113281 11.93882813 -0.0625 10.875 C-0.05798828 9.83472656 -0.05347656 8.79445313 -0.04882812 7.72265625 C-0.03701952 5.14838038 -0.02055075 2.57421854 0 0 Z " fill="#E5D27A" transform="translate(38,82)"/>
<path d="M0 0 C0.33 0 0.66 0 1 0 C1.01458252 0.56396484 1.02916504 1.12792969 1.04418945 1.70898438 C1.11944854 4.30661946 1.21584484 6.90307643 1.3125 9.5 C1.33505859 10.386875 1.35761719 11.27375 1.38085938 12.1875 C1.61874496 18.06976183 2.64592428 22.59761712 5 28 C1.125 26.125 1.125 26.125 0 25 C-0.08737645 23.14630389 -0.10698153 21.28932459 -0.09765625 19.43359375 C-0.09443359 18.30888672 -0.09121094 17.18417969 -0.08789062 16.02539062 C-0.07951172 14.84138672 -0.07113281 13.65738281 -0.0625 12.4375 C-0.05798828 11.24962891 -0.05347656 10.06175781 -0.04882812 8.83789062 C-0.03699675 5.89187774 -0.02051287 2.94596319 0 0 Z " fill="#EEE8C3" transform="translate(0,43)"/>
<path d="M0 0 C2.19408956 3.48473049 1.82038369 5.07079392 1 9 C0.78118981 11.6068127 0.58987147 14.20220189 0.4375 16.8125 C0.39431641 17.50537109 0.35113281 18.19824219 0.30664062 18.91210938 C0.20138547 20.60788686 0.10027137 22.30392052 0 24 C-0.33 24 -0.66 24 -1 24 C-1.22580354 20.56341292 -1.42762697 17.12582782 -1.625 13.6875 C-1.68945312 12.71103516 -1.75390625 11.73457031 -1.8203125 10.72851562 C-1.871875 9.79072266 -1.9234375 8.85292969 -1.9765625 7.88671875 C-2.02893066 7.02264404 -2.08129883 6.15856934 -2.13525391 5.26831055 C-2 3 -2 3 0 0 Z " fill="#F5DB4D" transform="translate(41,3)"/>
<path d="M0 0 C0 0.99 0 1.98 0 3 C-6.27 3 -12.54 3 -19 3 C-13.48034107 -0.67977262 -6.47704725 -0.13780952 0 0 Z " fill="#F7DA4B" transform="translate(105,66)"/>
<path d="M0 0 C0.99773437 0.02320313 1.99546875 0.04640625 3.0234375 0.0703125 C4.52777344 0.09738281 4.52777344 0.09738281 6.0625 0.125 C6.83335938 0.14820313 7.60421875 0.17140625 8.3984375 0.1953125 C8.3984375 1.5153125 8.3984375 2.8353125 8.3984375 4.1953125 C4.1084375 3.5353125 -0.1815625 2.8753125 -4.6015625 2.1953125 C-2.6015625 0.1953125 -2.6015625 0.1953125 0 0 Z " fill="#FEF9B5" transform="translate(95.6015625,40.8046875)"/>
<path d="M0 0 C0.66 0.33 1.32 0.66 2 1 C2 1.99 2 2.98 2 4 C1.34 4.66 0.68 5.32 0 6 C-0.36831081 7.93257855 -0.36831081 7.93257855 -0.4140625 10.1328125 C-0.45273437 10.93847656 -0.49140625 11.74414062 -0.53125 12.57421875 C-0.5621875 13.41597656 -0.593125 14.25773437 -0.625 15.125 C-0.66367187 15.97449219 -0.70234375 16.82398437 -0.7421875 17.69921875 C-0.83656494 19.79911684 -0.91937586 21.89952891 -1 24 C-1.33 24 -1.66 24 -2 24 C-2.05802698 20.56257082 -2.09360486 17.12526747 -2.125 13.6875 C-2.14175781 12.71103516 -2.15851562 11.73457031 -2.17578125 10.72851562 C-2.18222656 9.79072266 -2.18867187 8.85292969 -2.1953125 7.88671875 C-2.20578613 7.02264404 -2.21625977 6.15856934 -2.22705078 5.26831055 C-2 3 -2 3 0 0 Z " fill="#F0DF78" transform="translate(3,39)"/>
<path d="M0 0 C8.45070423 -0.28169014 8.45070423 -0.28169014 12 2 C13.32937118 2.67453279 14.66227377 3.34219247 16 4 C14.27119018 4.05449838 12.54187288 4.09301688 10.8125 4.125 C9.84957031 4.14820313 8.88664062 4.17140625 7.89453125 4.1953125 C4.87187222 3.9913544 2.73230015 3.26874632 0 2 C0 1.34 0 0.68 0 0 Z " fill="#FEF297" transform="translate(85,41)"/>
<path d="M0 0 C1.40668945 0.01450195 1.40668945 0.01450195 2.84179688 0.02929688 C3.81826172 0.05443359 4.79472656 0.07957031 5.80078125 0.10546875 C6.78884766 0.11900391 7.77691406 0.13253906 8.79492188 0.14648438 C11.23492356 0.18184672 13.67382844 0.23119842 16.11328125 0.29296875 C16.11328125 0.62296875 16.11328125 0.95296875 16.11328125 1.29296875 C9.84328125 1.29296875 3.57328125 1.29296875 -2.88671875 1.29296875 C-2.88671875 1.95296875 -2.88671875 2.61296875 -2.88671875 3.29296875 C-2.22671875 3.62296875 -1.56671875 3.95296875 -0.88671875 4.29296875 C-3.19671875 3.96296875 -5.50671875 3.63296875 -7.88671875 3.29296875 C-5.42854811 0.24399315 -3.85656876 -0.07011943 0 0 Z " fill="#FEEC86" transform="translate(87.88671875,39.70703125)"/>
<path d="M0 0 C0.33 0 0.66 0 1 0 C1.33 4.62 1.66 9.24 2 14 C2.33 12.35 2.66 10.7 3 9 C3.33 9 3.66 9 4 9 C4 11.64 4 14.28 4 17 C2.68 17 1.36 17 0 17 C0 11.39 0 5.78 0 0 Z " fill="#FEF2A6" transform="translate(65,11)"/>
<path d="M0 0 C1.65 0 3.3 0 5 0 C5.33 0.99 5.66 1.98 6 3 C4.35 3 2.7 3 1 3 C1 5.31 1 7.62 1 10 C0.67 9.34 0.34 8.68 0 8 C-0.66 8 -1.32 8 -2 8 C-1.34 5.36 -0.68 2.72 0 0 Z " fill="#FBE87B" transform="translate(63,3)"/>
<path d="M0 0 C1.32 0 2.64 0 4 0 C4 0.66 4 1.32 4 2 C6.97 2 9.94 2 13 2 C13 2.33 13 2.66 13 3 C7.72 3 2.44 3 -3 3 C-2.01 2.01 -1.02 1.02 0 0 Z " fill="#F8DE4D" transform="translate(26,67)"/>
<path d="M0 0 C0.8125 1.6875 0.8125 1.6875 1 4 C-1.1875 6.8125 -1.1875 6.8125 -4 9 C-6.3125 8.8125 -6.3125 8.8125 -8 8 C-3.25 5 -3.25 5 -1 5 C-0.67 3.35 -0.34 1.7 0 0 Z " fill="#F9F7E7" transform="translate(71,100)"/>
<path d="M0 0 C1.98 0.66 3.96 1.32 6 2 C5.67 3.32 5.34 4.64 5 6 C5 5.34 5 4.68 5 4 C2.03 3.505 2.03 3.505 -1 3 C-0.67 2.01 -0.34 1.02 0 0 Z " fill="#FCEB7D" transform="translate(63,26)"/>
</svg>
