<?xml version="1.0" encoding="UTF-8"?>
<!DOCTYPE svg PUBLIC "-//W3C//DTD SVG 1.1//EN" "http://www.w3.org/Graphics/SVG/1.1/DTD/svg11.dtd">
<svg xmlns="http://www.w3.org/2000/svg" version="1.1" width="679px" height="679px" style="shape-rendering:geometricPrecision; text-rendering:geometricPrecision; image-rendering:optimizeQuality; fill-rule:evenodd; clip-rule:evenodd" xmlns:xlink="http://www.w3.org/1999/xlink">
<g><path style="opacity:0.988" fill="#507b5c" d="M 104.5,-0.5 C 133.833,-0.5 163.167,-0.5 192.5,-0.5C 194.562,1.41014 196.062,3.74347 197,6.5C 197.5,37.4982 197.667,68.4982 197.5,99.5C 228.502,99.3334 259.502,99.5 290.5,100C 294.112,100.889 296.612,103.055 298,106.5C 298.667,134.5 298.667,162.5 298,190.5C 296.612,193.945 294.112,196.111 290.5,197C 273.5,197.667 256.5,197.667 239.5,197C 231.248,193.914 229.082,188.414 233,180.5C 234.8,178.683 236.966,177.516 239.5,177C 252.496,176.5 265.496,176.333 278.5,176.5C 278.5,157.833 278.5,139.167 278.5,120.5C 247.498,120.667 216.498,120.5 185.5,120C 180.63,119.13 177.797,116.297 177,111.5C 176.5,80.5018 176.333,49.5018 176.5,18.5C 157.833,18.5 139.167,18.5 120.5,18.5C 120.333,47.8352 120.5,77.1686 121,106.5C 145.667,131.167 170.333,155.833 195,180.5C 195.667,181.833 196.333,183.167 197,184.5C 197.667,219.833 197.667,255.167 197,290.5C 196.021,293.625 194.187,296.125 191.5,298C 162.833,298.667 134.167,298.667 105.5,298C 102.813,296.125 100.979,293.625 100,290.5C 99.5,259.502 99.3334,228.502 99.5,197.5C 68.4982,197.667 37.4982,197.5 6.5,197C 3.74347,196.062 1.41014,194.562 -0.5,192.5C -0.5,163.167 -0.5,133.833 -0.5,104.5C 1.41014,102.438 3.74347,100.938 6.5,100C 37.4982,99.5 68.4982,99.3334 99.5,99.5C 99.3334,68.1649 99.5,36.8316 100,5.5C 101.277,3.25279 102.777,1.25279 104.5,-0.5 Z"/></g>
<g><path style="opacity:1" fill="#9cc183" d="M 106.5,120.5 C 77.1667,120.5 47.8333,120.5 18.5,120.5C 18.5,139.5 18.5,158.5 18.5,177.5C 17.503,158.341 17.1697,139.007 17.5,119.5C 47.338,119.169 77.0047,119.502 106.5,120.5 Z"/></g>
<g><path style="opacity:1" fill="#ceef9d" d="M 106.5,120.5 C 130.132,143.632 153.632,166.965 177,190.5C 177.5,220.165 177.667,249.831 177.5,279.5C 158.167,279.5 138.833,279.5 119.5,279.5C 119.986,246.746 119.486,214.08 118,181.5C 116.786,179.951 115.286,178.785 113.5,178C 81.8351,177.5 50.1684,177.333 18.5,177.5C 18.5,158.5 18.5,139.5 18.5,120.5C 47.8333,120.5 77.1667,120.5 106.5,120.5 Z"/></g>
<g><path style="opacity:0.993" fill="#010000" d="M 678.5,201.5 C 678.5,285.167 678.5,368.833 678.5,452.5C 672.5,452.5 666.5,452.5 660.5,452.5C 660.667,376.166 660.5,299.833 660,223.5C 657.06,212.073 650.56,203.407 640.5,197.5C 615.281,186.344 595.781,192.678 582,216.5C 580.648,219.72 579.814,223.053 579.5,226.5C 578.501,301.665 578.167,376.998 578.5,452.5C 570.5,452.5 562.5,452.5 554.5,452.5C 554.667,372.833 554.5,293.166 554,213.5C 552.741,203.318 548.574,194.651 541.5,187.5C 532.315,175.743 520.315,170.909 505.5,173C 502.567,175.264 500.4,178.098 499,181.5C 498.5,263.499 498.333,345.499 498.5,427.5C 512.833,427.5 527.167,427.5 541.5,427.5C 541.5,435.833 541.5,444.167 541.5,452.5C 527.167,452.5 512.833,452.5 498.5,452.5C 498.5,456.5 498.5,460.5 498.5,464.5C 498.667,477.171 498.5,489.838 498,502.5C 490.378,548.121 463.878,575.288 418.5,584C 373.233,587.624 340.733,569.124 321,528.5C 317.266,518.832 314.933,508.832 314,498.5C 313.5,425.167 313.333,351.834 313.5,278.5C 285.74,276.767 267.573,289.101 259,315.5C 258.333,394.5 258.333,473.5 259,552.5C 261.155,586.108 268.655,618.441 281.5,649.5C 341.831,650.667 402.164,650.833 462.5,650C 476.467,592.701 512.467,558.701 570.5,548C 602.167,547.333 633.833,547.333 665.5,548C 669.832,548.583 674.165,549.083 678.5,549.5C 678.5,557.833 678.5,566.167 678.5,574.5C 673.486,573.831 668.486,572.997 663.5,572C 634.167,571.333 604.833,571.333 575.5,572C 528.843,579.991 499.343,606.825 487,652.5C 485.661,661.107 485.161,669.774 485.5,678.5C 477.167,678.5 468.833,678.5 460.5,678.5C 460.5,677.167 460.5,675.833 460.5,674.5C 404.829,674.167 349.163,674.5 293.5,675.5C 294.127,676.417 294.461,677.417 294.5,678.5C 285.167,678.5 275.833,678.5 266.5,678.5C 247.715,639.698 236.882,598.698 234,555.5C 233.333,475.167 233.333,394.833 234,314.5C 241.612,278.889 263.445,258.389 299.5,253C 333.479,251.731 357.979,266.231 373,296.5C 374.535,300.773 375.869,305.106 377,309.5C 378.292,344.133 378.959,378.8 379,413.5C 383.634,435.57 396.8,443.403 418.5,437C 426.113,432.625 430.946,426.125 433,417.5C 433.023,346.14 433.689,274.807 435,203.5C 443.468,172.699 463.301,153.866 494.5,147C 529.539,143.267 555.373,156.767 572,187.5C 598.662,162.987 627.495,160.154 658.5,179C 666.832,185.157 673.498,192.657 678.5,201.5 Z"/></g>
<g><path style="opacity:1" fill="#c59b6c" d="M 541.5,187.5 C 541.5,267.5 541.5,347.5 541.5,427.5C 527.167,427.5 512.833,427.5 498.5,427.5C 498.333,345.499 498.5,263.499 499,181.5C 500.4,178.098 502.567,175.264 505.5,173C 520.315,170.909 532.315,175.743 541.5,187.5 Z"/></g>
<g><path style="opacity:1" fill="#513821" d="M 473.5,499.5 C 473.833,394.665 473.499,289.999 472.5,185.5C 472.783,184.711 473.283,184.044 474,183.5C 474.833,289.001 474.666,394.334 473.5,499.5 Z"/></g>
<g><path style="opacity:1" fill="#8b6138" d="M 472.5,185.5 C 473.499,289.999 473.833,394.665 473.5,499.5C 472.266,512.966 467.433,524.966 459,535.5C 458.333,427.167 458.333,318.833 459,210.5C 460.924,200.645 465.424,192.312 472.5,185.5 Z"/></g>
<g><path style="opacity:1" fill="#896038" d="M 541.5,187.5 C 548.574,194.651 552.741,203.318 554,213.5C 554.5,293.166 554.667,372.833 554.5,452.5C 562.5,452.5 570.5,452.5 578.5,452.5C 578.167,376.998 578.501,301.665 579.5,226.5C 579.5,297.5 579.5,368.5 579.5,439.5C 583.167,439.5 586.833,439.5 590.5,439.5C 590.182,444.032 590.515,448.366 591.5,452.5C 607.5,452.5 623.5,452.5 639.5,452.5C 640.493,444.35 640.826,436.017 640.5,427.5C 640.5,350.833 640.5,274.167 640.5,197.5C 650.56,203.407 657.06,212.073 660,223.5C 660.5,299.833 660.667,376.166 660.5,452.5C 666.5,452.5 672.5,452.5 678.5,452.5C 678.5,456.5 678.5,460.5 678.5,464.5C 618.5,464.5 558.5,464.5 498.5,464.5C 498.5,460.5 498.5,456.5 498.5,452.5C 512.833,452.5 527.167,452.5 541.5,452.5C 541.5,444.167 541.5,435.833 541.5,427.5C 541.5,347.5 541.5,267.5 541.5,187.5 Z"/></g>
<g><path style="opacity:1" fill="#c59b6c" d="M 640.5,197.5 C 640.5,274.167 640.5,350.833 640.5,427.5C 623.833,427.5 607.167,427.5 590.5,427.5C 590.5,431.5 590.5,435.5 590.5,439.5C 586.833,439.5 583.167,439.5 579.5,439.5C 579.5,368.5 579.5,297.5 579.5,226.5C 579.814,223.053 580.648,219.72 582,216.5C 595.781,192.678 615.281,186.344 640.5,197.5 Z"/></g>
<g><path style="opacity:1" fill="#c59b6c" d="M 498.5,464.5 C 558.5,464.5 618.5,464.5 678.5,464.5C 678.5,492.833 678.5,521.167 678.5,549.5C 674.165,549.083 669.832,548.583 665.5,548C 633.833,547.333 602.167,547.333 570.5,548C 512.467,558.701 476.467,592.701 462.5,650C 402.164,650.833 341.831,650.667 281.5,649.5C 268.655,618.441 261.155,586.108 259,552.5C 258.333,473.5 258.333,394.5 259,315.5C 267.573,289.101 285.74,276.767 313.5,278.5C 313.333,351.834 313.5,425.167 314,498.5C 314.933,508.832 317.266,518.832 321,528.5C 340.733,569.124 373.233,587.624 418.5,584C 463.878,575.288 490.378,548.121 498,502.5C 498.5,489.838 498.667,477.171 498.5,464.5 Z"/></g>
<g><path style="opacity:1" fill="#8b6138" d="M 353.5,322.5 C 353.833,393.335 353.499,464.002 352.5,534.5C 344.694,524.203 340.194,512.537 339,499.5C 338.333,430.167 338.333,360.833 339,291.5C 348.148,299.797 352.981,310.13 353.5,322.5 Z"/></g>
<g><path style="opacity:1" fill="#352515" d="M 353.5,322.5 C 354.832,393.334 354.832,464.334 353.5,535.5C 352.893,535.376 352.56,535.043 352.5,534.5C 353.499,464.002 353.833,393.335 353.5,322.5 Z"/></g>
<g><path style="opacity:1" fill="#423221" d="M 640.5,427.5 C 640.826,436.017 640.493,444.35 639.5,452.5C 639.5,444.5 639.5,436.5 639.5,428.5C 623.5,428.5 607.5,428.5 591.5,428.5C 591.5,436.5 591.5,444.5 591.5,452.5C 590.515,448.366 590.182,444.032 590.5,439.5C 590.5,435.5 590.5,431.5 590.5,427.5C 607.167,427.5 623.833,427.5 640.5,427.5 Z"/></g>
<g><path style="opacity:1" fill="#000000" d="M 639.5,452.5 C 623.5,452.5 607.5,452.5 591.5,452.5C 591.5,444.5 591.5,436.5 591.5,428.5C 607.5,428.5 623.5,428.5 639.5,428.5C 639.5,436.5 639.5,444.5 639.5,452.5 Z"/></g>
<g><path style="opacity:1" fill="#5f3712" d="M 378.5,457.5 C 396.531,466.83 414.531,466.83 432.5,457.5C 433.665,466.816 433.832,476.149 433,485.5C 428.83,498.854 419.663,505.854 405.5,506.5C 391.69,505.192 382.857,497.859 379,484.5C 378.5,475.506 378.334,466.506 378.5,457.5 Z"/></g>
<g><path style="opacity:1" fill="#5e3712" d="M 378.5,523.5 C 396.63,532.812 414.797,532.812 433,523.5C 436.005,548.825 424.838,560.991 399.5,560C 382.853,553.554 375.853,541.388 378.5,523.5 Z"/></g>
<g><path style="opacity:1" fill="#724a23" d="M 678.5,574.5 C 678.5,579.833 678.5,585.167 678.5,590.5C 674.137,589.884 669.803,589.05 665.5,588C 635.833,587.333 606.167,587.333 576.5,588C 540.227,593.602 516.061,613.769 504,648.5C 501.022,658.282 499.856,668.282 500.5,678.5C 495.5,678.5 490.5,678.5 485.5,678.5C 485.161,669.774 485.661,661.107 487,652.5C 499.343,606.825 528.843,579.991 575.5,572C 604.833,571.333 634.167,571.333 663.5,572C 668.486,572.997 673.486,573.831 678.5,574.5 Z"/></g>
<g><path style="opacity:0.978" fill="#000000" d="M 678.5,590.5 C 678.5,599.5 678.5,608.5 678.5,617.5C 673.37,615.383 668.036,613.883 662.5,613C 634.167,612.333 605.833,612.333 577.5,613C 560.785,615.937 547.285,624.104 537,637.5C 528.317,649.899 524.817,663.565 526.5,678.5C 517.833,678.5 509.167,678.5 500.5,678.5C 499.856,668.282 501.022,658.282 504,648.5C 516.061,613.769 540.227,593.602 576.5,588C 606.167,587.333 635.833,587.333 665.5,588C 669.803,589.05 674.137,589.884 678.5,590.5 Z"/></g>
<g><path style="opacity:1" fill="#e3e3e3" d="M 460.5,678.5 C 405.167,678.5 349.833,678.5 294.5,678.5C 294.461,677.417 294.127,676.417 293.5,675.5C 349.163,674.5 404.829,674.167 460.5,674.5C 460.5,675.833 460.5,677.167 460.5,678.5 Z"/></g>
</svg>
