<?xml version="1.0" encoding="UTF-8"?>
<!DOCTYPE svg PUBLIC "-//W3C//DTD SVG 1.1//EN" "http://www.w3.org/Graphics/SVG/1.1/DTD/svg11.dtd">
<svg xmlns="http://www.w3.org/2000/svg" version="1.1" width="679px" height="679px" style="shape-rendering:geometricPrecision; text-rendering:geometricPrecision; image-rendering:optimizeQuality; fill-rule:evenodd; clip-rule:evenodd" xmlns:xlink="http://www.w3.org/1999/xlink">
<g><path style="opacity:0.988" fill="#507b5c" d="M 102.5,-0.5 C 131.833,-0.5 161.167,-0.5 190.5,-0.5C 192.562,1.41014 194.062,3.74347 195,6.5C 195.5,37.4982 195.667,68.4982 195.5,99.5C 226.502,99.3334 257.502,99.5 288.5,100C 292.112,100.889 294.612,103.055 296,106.5C 296.667,134.5 296.667,162.5 296,190.5C 294.612,193.945 292.112,196.111 288.5,197C 271.5,197.667 254.5,197.667 237.5,197C 229.248,193.914 227.082,188.414 231,180.5C 232.8,178.683 234.966,177.516 237.5,177C 250.496,176.5 263.496,176.333 276.5,176.5C 276.5,157.833 276.5,139.167 276.5,120.5C 245.498,120.667 214.498,120.5 183.5,120C 178.63,119.13 175.797,116.297 175,111.5C 174.5,80.5018 174.333,49.5018 174.5,18.5C 155.833,18.5 137.167,18.5 118.5,18.5C 118.333,47.8352 118.5,77.1686 119,106.5C 143.667,131.167 168.333,155.833 193,180.5C 193.667,181.833 194.333,183.167 195,184.5C 195.667,219.833 195.667,255.167 195,290.5C 194.021,293.625 192.187,296.125 189.5,298C 160.833,298.667 132.167,298.667 103.5,298C 100.813,296.125 98.9794,293.625 98,290.5C 97.5,259.502 97.3334,228.502 97.5,197.5C 66.4982,197.667 35.4982,197.5 4.5,197C 2.54826,196.634 0.88159,195.801 -0.5,194.5C -0.5,163.833 -0.5,133.167 -0.5,102.5C 0.88159,101.199 2.54826,100.366 4.5,100C 35.4982,99.5 66.4982,99.3334 97.5,99.5C 97.3334,68.1649 97.5,36.8316 98,5.5C 99.2775,3.25279 100.777,1.25279 102.5,-0.5 Z"/></g>
<g><path style="opacity:0.982" fill="#010000" d="M 556.5,-0.5 C 565.5,-0.5 574.5,-0.5 583.5,-0.5C 601.274,2.55055 617.274,9.71722 631.5,21C 643.065,31.8961 653.899,43.3961 664,55.5C 670.811,66.107 675.644,77.4403 678.5,89.5C 678.5,102.833 678.5,116.167 678.5,129.5C 673.715,150.231 663.382,167.731 647.5,182C 476.7,326.967 306.367,472.467 136.5,618.5C 149.874,632.575 152.041,648.242 143,665.5C 138.439,671.251 132.939,675.584 126.5,678.5C 118.5,678.5 110.5,678.5 102.5,678.5C 100.02,676.897 97.3538,675.397 94.5,674C 64.6667,644.167 34.8333,614.333 5,584.5C 2.85371,580.525 1.02038,576.525 -0.5,572.5C -0.5,567.5 -0.5,562.5 -0.5,557.5C 7.54633,535.141 23.213,526.974 46.5,533C 51.8927,535.726 56.726,539.226 61,543.5C 84.3649,515.975 107.865,488.641 131.5,461.5C 132.906,461.027 133.573,460.027 133.5,458.5C 253.659,317.531 373.825,176.531 494,35.5C 510.51,15.8331 531.344,3.83311 556.5,-0.5 Z"/></g>
<g><path style="opacity:1" fill="#7c5c5b" d="M 573.5,23.5 C 555.396,77.2135 522.73,119.713 475.5,151C 454.454,162.404 432.121,169.904 408.5,173.5C 417.196,163.142 425.863,152.808 434.5,142.5C 434.735,143.097 435.235,143.43 436,143.5C 449.063,139.104 461.23,132.937 472.5,125C 506.552,99.6212 531.552,67.2878 547.5,28C 546.906,27.5357 546.239,27.369 545.5,27.5C 554.37,23.9468 563.704,22.6135 573.5,23.5 Z"/></g>
<g><path style="opacity:1" fill="#a67e72" d="M 573.5,23.5 C 586.681,24.3925 599.015,28.2258 610.5,35C 624.073,46.571 636.24,59.4044 647,73.5C 661.562,102.292 659.228,129.625 640,155.5C 607.59,184.417 574.756,212.75 541.5,240.5C 520.497,240.8 499.497,241.3 478.5,242C 451.309,244.056 427.309,253.723 406.5,271C 373.76,299.286 352.926,334.786 344,377.5C 341.451,389.037 339.951,400.704 339.5,412.5C 312.474,436.357 284.974,459.691 257,482.5C 236.207,462.708 215.707,442.541 195.5,422C 266.365,338.975 337.365,256.141 408.5,173.5C 432.121,169.904 454.454,162.404 475.5,151C 522.73,119.713 555.396,77.2135 573.5,23.5 Z"/></g>
<g><path style="opacity:1" fill="#a57d72" d="M 545.5,27.5 C 546.239,27.369 546.906,27.5357 547.5,28C 531.552,67.2878 506.552,99.6212 472.5,125C 461.23,132.937 449.063,139.104 436,143.5C 435.235,143.43 434.735,143.097 434.5,142.5C 461.123,110.706 487.956,79.0393 515,47.5C 523.644,38.4333 533.811,31.7666 545.5,27.5 Z"/></g>
<g><path style="opacity:1" fill="#a6cb88" d="M 104.5,120.5 C 75.1667,120.5 45.8333,120.5 16.5,120.5C 16.5,139.5 16.5,158.5 16.5,177.5C 15.503,158.341 15.1697,139.007 15.5,119.5C 45.338,119.169 75.0047,119.502 104.5,120.5 Z"/></g>
<g><path style="opacity:1" fill="#ceef9d" d="M 104.5,120.5 C 128.132,143.632 151.632,166.965 175,190.5C 175.5,220.165 175.667,249.831 175.5,279.5C 156.167,279.5 136.833,279.5 117.5,279.5C 117.986,246.746 117.486,214.08 116,181.5C 114.786,179.951 113.286,178.785 111.5,178C 79.8351,177.5 48.1684,177.333 16.5,177.5C 16.5,158.5 16.5,139.5 16.5,120.5C 45.8333,120.5 75.1667,120.5 104.5,120.5 Z"/></g>
<g><path style="opacity:1" fill="#7c5c5b" d="M 541.5,240.5 C 532.153,249.178 522.487,257.511 512.5,265.5C 491.211,263.45 470.211,265.616 449.5,272C 421.908,284.924 400.741,304.757 386,331.5C 375.992,349.69 369.492,369.023 366.5,389.5C 357.819,397.512 348.819,405.179 339.5,412.5C 339.951,400.704 341.451,389.037 344,377.5C 352.926,334.786 373.76,299.286 406.5,271C 427.309,253.723 451.309,244.056 478.5,242C 499.497,241.3 520.497,240.8 541.5,240.5 Z"/></g>
<g><path style="opacity:1" fill="#a67e72" d="M 512.5,265.5 C 464.127,307.208 415.46,348.542 366.5,389.5C 369.492,369.023 375.992,349.69 386,331.5C 400.741,304.757 421.908,284.924 449.5,272C 470.211,265.616 491.211,263.45 512.5,265.5 Z"/></g>
<g><path style="opacity:1" fill="#e4e4e4" d="M 213.5,520.5 C 194.551,503.218 176.217,485.218 158.5,466.5C 165.789,457.373 173.289,448.373 181,439.5C 200,458.5 219,477.5 238,496.5C 237.912,499.642 236.412,502.142 233.5,504C 226.669,509.334 220.002,514.834 213.5,520.5 Z"/></g>
<g><path style="opacity:0.914" fill="#707171" d="M 133.5,458.5 C 133.573,460.027 132.906,461.027 131.5,461.5C 131.427,459.973 132.094,458.973 133.5,458.5 Z"/></g>
<g><path style="opacity:1" fill="#c2c5c7" d="M 158.5,466.5 C 176.217,485.218 194.551,503.218 213.5,520.5C 206.858,526.137 200.192,531.804 193.5,537.5C 193.631,536.761 193.464,536.094 193,535.5C 175.934,518.936 159.434,501.936 143.5,484.5C 147.753,477.91 152.753,471.91 158.5,466.5 Z"/></g>
<g><path style="opacity:1" fill="#e6e6e6" d="M 143.5,484.5 C 159.434,501.936 175.934,518.936 193,535.5C 193.464,536.094 193.631,536.761 193.5,537.5C 181.151,548.513 168.485,559.18 155.5,569.5C 140.535,555.035 125.701,540.369 111,525.5C 110.517,524.552 110.351,523.552 110.5,522.5C 120.783,509.217 131.783,496.55 143.5,484.5 Z"/></g>
<g><path style="opacity:1" fill="#c2c5c7" d="M 110.5,522.5 C 110.351,523.552 110.517,524.552 111,525.5C 125.701,540.369 140.535,555.035 155.5,569.5C 149.823,575.176 143.823,580.509 137.5,585.5C 123.449,570.448 108.782,556.114 93.5,542.5C 99.1768,535.793 104.843,529.127 110.5,522.5 Z"/></g>
<g><path style="opacity:1" fill="#e4e4e4" d="M 93.5,542.5 C 108.782,556.114 123.449,570.448 137.5,585.5C 131.372,590.457 125.372,595.624 119.5,601C 118.833,601.667 118.167,601.667 117.5,601C 103.986,587.653 90.6525,574.153 77.5,560.5C 82.5131,554.157 87.8465,548.157 93.5,542.5 Z"/></g>
<g><path style="opacity:1" fill="#a47d71" d="M 29.5,554.5 C 32.9783,554.184 36.3117,554.684 39.5,556C 67.3333,583.833 95.1667,611.667 123,639.5C 126.924,648.896 123.924,654.562 114,656.5C 111.181,656.007 108.681,654.84 106.5,653C 78.6385,625.472 51.1385,597.639 24,569.5C 22.0867,562.97 23.92,557.97 29.5,554.5 Z"/></g>
</svg>
