<?xml version="1.0" encoding="UTF-8"?>
<!DOCTYPE svg PUBLIC "-//W3C//DTD SVG 1.1//EN" "http://www.w3.org/Graphics/SVG/1.1/DTD/svg11.dtd">
<svg xmlns="http://www.w3.org/2000/svg" version="1.1" width="428px" height="463px" style="shape-rendering:geometricPrecision; text-rendering:geometricPrecision; image-rendering:optimizeQuality; fill-rule:evenodd; clip-rule:evenodd" xmlns:xlink="http://www.w3.org/1999/xlink">
<g><path style="opacity:0.694" fill="#ffbe98" d="M 241.5,-0.5 C 242.167,-0.5 242.833,-0.5 243.5,-0.5C 240.105,3.89764 236.105,7.56431 231.5,10.5C 234.833,6.83333 238.167,3.16667 241.5,-0.5 Z"/></g>
<g><path style="opacity:0.78" fill="#ffbe98" d="M 231.5,10.5 C 230.833,13.1667 229.167,14.8333 226.5,15.5C 227.833,13.5 229.5,11.8333 231.5,10.5 Z"/></g>
<g><path style="opacity:1" fill="#ffbe98" d="M 243.5,-0.5 C 244.167,-0.5 244.833,-0.5 245.5,-0.5C 245.833,7.5 246.167,15.5 246.5,23.5C 246.232,26.1194 246.565,28.6194 247.5,31C 250.817,31.4983 254.15,31.665 257.5,31.5C 257.833,31.5 258.167,31.5 258.5,31.5C 261.544,33.0114 264.878,33.678 268.5,33.5C 271.428,33.5651 274.095,34.2318 276.5,35.5C 278.515,36.9238 280.848,37.5905 283.5,37.5C 285.099,37.2322 286.432,37.5655 287.5,38.5C 288.99,40.2798 290.99,40.9465 293.5,40.5C 303.827,43.4995 313.494,47.8328 322.5,53.5C 322.877,55.8241 323.877,56.4908 325.5,55.5C 327.153,55.6596 328.486,56.3263 329.5,57.5C 330.684,58.6879 330.684,59.8545 329.5,61C 332.557,60.9824 335.557,61.8157 338.5,63.5C 339.492,63.3284 340.158,63.6618 340.5,64.5C 341.035,66.4456 342.368,67.4456 344.5,67.5C 345.818,71.0865 348.485,73.0865 352.5,73.5C 353.589,77.5861 356.255,79.9195 360.5,80.5C 365.119,85.7852 370.119,90.7852 375.5,95.5C 376.757,98.4274 378.757,100.761 381.5,102.5C 382.08,104.749 383.413,106.415 385.5,107.5C 385.738,109.404 386.738,110.738 388.5,111.5C 388.427,113.027 389.094,114.027 390.5,114.5C 390.427,116.027 391.094,117.027 392.5,117.5C 392.427,119.027 393.094,120.027 394.5,120.5C 394.427,122.027 395.094,123.027 396.5,123.5C 397.338,123.842 397.672,124.508 397.5,125.5C 397.67,129.186 399.336,131.853 402.5,133.5C 403.053,135.939 403.053,138.273 402.5,140.5C 403.689,141.429 405.022,141.762 406.5,141.5C 408.341,143.849 409.674,146.515 410.5,149.5C 410.166,152.491 411.166,154.824 413.5,156.5C 414.404,157.209 414.737,158.209 414.5,159.5C 414.12,161.698 414.787,163.365 416.5,164.5C 417.404,165.209 417.737,166.209 417.5,167.5C 417.32,171.286 418.32,174.619 420.5,177.5C 420.5,177.833 420.5,178.167 420.5,178.5C 420.259,180.898 420.926,182.898 422.5,184.5C 423.804,188.36 424.471,192.36 424.5,196.5C 424.45,202.389 425.116,208.056 426.5,213.5C 426.5,214.167 426.833,214.5 427.5,214.5C 427.5,224.167 427.5,233.833 427.5,243.5C 426.833,246.833 426.167,250.167 425.5,253.5C 423.896,257.9 423.229,262.566 423.5,267.5C 422.927,273.455 421.593,279.122 419.5,284.5C 418.883,284.611 418.383,284.944 418,285.5C 417.505,287.473 417.338,289.473 417.5,291.5C 416.069,292.78 415.402,294.447 415.5,296.5C 415.737,297.791 415.404,298.791 414.5,299.5C 413.069,300.78 412.402,302.447 412.5,304.5C 411.624,308.582 409.957,312.249 407.5,315.5C 405.992,317.181 404.992,319.181 404.5,321.5C 404.008,323.819 403.008,325.819 401.5,327.5C 399.75,328.659 398.75,330.326 398.5,332.5C 397.094,332.973 396.427,333.973 396.5,335.5C 396.672,336.492 396.338,337.158 395.5,337.5C 394.118,338.801 392.452,339.634 390.5,340C 391.337,341.011 391.67,342.178 391.5,343.5C 391.5,344.167 391.167,344.5 390.5,344.5C 389.094,344.973 388.427,345.973 388.5,347.5C 387.094,347.973 386.427,348.973 386.5,350.5C 386.5,351.167 386.167,351.5 385.5,351.5C 384.094,351.973 383.427,352.973 383.5,354.5C 383.167,355.5 382.5,356.167 381.5,356.5C 380.094,356.973 379.427,357.973 379.5,359.5C 377.5,362.167 375.167,364.5 372.5,366.5C 370.086,367.911 368.419,369.911 367.5,372.5C 365.983,372.489 364.816,371.823 364,370.5C 363.685,372.586 363.185,374.586 362.5,376.5C 362.5,377.167 362.167,377.5 361.5,377.5C 357.5,376.833 355.833,378.5 356.5,382.5C 353.373,385.898 349.707,388.565 345.5,390.5C 343.856,390.714 342.356,390.38 341,389.5C 340.5,390 340,390.5 339.5,391C 340.756,391.417 341.423,392.25 341.5,393.5C 339.973,393.427 338.973,394.094 338.5,395.5C 338.027,396.906 337.027,397.573 335.5,397.5C 333.973,397.427 332.973,398.094 332.5,399.5C 330.738,399.643 329.071,399.309 327.5,398.5C 326.708,399.7 326.708,401.033 327.5,402.5C 325.011,402.241 323.344,403.241 322.5,405.5C 315.047,410.225 307.047,413.891 298.5,416.5C 293.085,417.194 288.085,418.86 283.5,421.5C 281.786,422.738 279.786,423.405 277.5,423.5C 274.219,423.42 271.219,424.087 268.5,425.5C 265.833,426.833 263.167,426.833 260.5,425.5C 260.31,423.041 261.31,421.374 263.5,420.5C 266.01,420.946 268.01,420.28 269.5,418.5C 272.346,418.448 274.68,417.448 276.5,415.5C 276.833,415.5 277.167,415.5 277.5,415.5C 279.153,415.34 280.486,414.674 281.5,413.5C 284.515,411.326 287.849,409.659 291.5,408.5C 293.027,408.573 294.027,407.906 294.5,406.5C 295.514,405.326 296.847,404.66 298.5,404.5C 300.027,404.573 301.027,403.906 301.5,402.5C 303.027,402.573 304.027,401.906 304.5,400.5C 306.027,400.573 307.027,399.906 307.5,398.5C 309.749,397.92 311.415,396.587 312.5,394.5C 314.404,394.262 315.738,393.262 316.5,391.5C 316.5,390.833 316.833,390.5 317.5,390.5C 319.749,389.92 321.415,388.587 322.5,386.5C 322.833,385.5 323.5,384.833 324.5,384.5C 327.5,383.5 329.5,381.5 330.5,378.5C 333.5,377.5 335.5,375.5 336.5,372.5C 338.587,371.415 339.92,369.749 340.5,367.5C 342.587,366.415 343.92,364.749 344.5,362.5C 345.906,362.027 346.573,361.027 346.5,359.5C 348.262,358.738 349.262,357.404 349.5,355.5C 349.328,354.508 349.662,353.842 350.5,353.5C 351.906,353.027 352.573,352.027 352.5,350.5C 353.906,350.027 354.573,349.027 354.5,347.5C 356.408,346.514 357.408,344.848 357.5,342.5C 358.674,341.486 359.34,340.153 359.5,338.5C 360.326,335.515 361.659,332.849 363.5,330.5C 365.834,328.824 366.834,326.491 366.5,323.5C 366.796,321.597 367.463,319.93 368.5,318.5C 371.527,314.086 373.194,309.086 373.5,303.5C 373.5,303.167 373.5,302.833 373.5,302.5C 375.163,300.562 375.829,298.228 375.5,295.5C 375.325,293.379 375.659,291.379 376.5,289.5C 377.29,288.391 377.79,287.058 378,285.5C 378.499,281.179 378.666,276.846 378.5,272.5C 378.5,271.833 378.5,271.167 378.5,270.5C 381.951,244.326 377.951,219.326 366.5,195.5C 365.958,192.088 364.625,189.088 362.5,186.5C 362.25,184.326 361.25,182.659 359.5,181.5C 357.583,178.669 355.917,175.669 354.5,172.5C 354.446,170.368 353.446,169.035 351.5,168.5C 350.662,168.158 350.328,167.492 350.5,166.5C 350.446,164.368 349.446,163.035 347.5,162.5C 347.446,160.368 346.446,159.035 344.5,158.5C 343.864,156.205 342.531,154.539 340.5,153.5C 339.5,153.167 338.833,152.5 338.5,151.5C 338.573,149.973 337.906,148.973 336.5,148.5C 334.167,146.833 332.167,144.833 330.5,142.5C 329.102,139.147 327.602,135.813 326,132.5C 325.184,133.823 324.017,134.489 322.5,134.5C 321.738,132.738 320.404,131.738 318.5,131.5C 317.5,131.167 316.833,130.5 316.5,129.5C 315.415,127.413 313.749,126.08 311.5,125.5C 311.027,124.094 310.027,123.427 308.5,123.5C 308.027,122.094 307.027,121.427 305.5,121.5C 305.027,120.094 304.027,119.427 302.5,119.5C 302.027,118.094 301.027,117.427 299.5,117.5C 299.027,116.094 298.027,115.427 296.5,115.5C 292.849,114.341 289.515,112.674 286.5,110.5C 286.5,109.5 286.5,108.5 286.5,107.5C 283.833,107.167 281.167,106.833 278.5,106.5C 277.365,104.787 275.698,104.12 273.5,104.5C 272.209,104.737 271.209,104.404 270.5,103.5C 269.365,101.787 267.698,101.12 265.5,101.5C 264.209,101.737 263.209,101.404 262.5,100.5C 259.916,98.5275 256.916,97.5275 253.5,97.5C 253.187,101.042 253.521,104.375 254.5,107.5C 255.373,111.768 255.706,116.102 255.5,120.5C 256.069,124.329 255.402,127.663 253.5,130.5C 252.508,130.672 251.842,130.338 251.5,129.5C 250.738,127.738 249.404,126.738 247.5,126.5C 247.027,125.094 246.027,124.427 244.5,124.5C 244.027,123.094 243.027,122.427 241.5,122.5C 240.91,121.234 240.41,119.901 240,118.5C 238.989,119.337 237.822,119.67 236.5,119.5C 236.027,118.094 235.027,117.427 233.5,117.5C 233.027,116.094 232.027,115.427 230.5,115.5C 229.656,113.241 227.989,112.241 225.5,112.5C 225.027,111.094 224.027,110.427 222.5,110.5C 222.027,109.094 221.027,108.427 219.5,108.5C 219.027,107.094 218.027,106.427 216.5,106.5C 215.508,106.672 214.842,106.338 214.5,105.5C 214.027,104.094 213.027,103.427 211.5,103.5C 209.566,102.89 207.899,101.89 206.5,100.5C 206.027,99.0937 205.027,98.427 203.5,98.5C 203.027,97.0937 202.027,96.427 200.5,96.5C 200.027,95.0937 199.027,94.427 197.5,94.5C 196.508,94.6716 195.842,94.3382 195.5,93.5C 195.027,92.0937 194.027,91.427 192.5,91.5C 190.566,90.8897 188.899,89.8897 187.5,88.5C 187.027,87.0937 186.027,86.427 184.5,86.5C 184.027,85.0937 183.027,84.427 181.5,84.5C 181.027,83.0937 180.027,82.427 178.5,82.5C 178.027,81.0937 177.027,80.427 175.5,80.5C 174.508,80.6716 173.842,80.3382 173.5,79.5C 172.656,77.2407 170.989,76.2407 168.5,76.5C 167.645,75.4693 166.978,74.3026 166.5,73C 167.985,70.683 169.652,68.5164 171.5,66.5C 176.44,63.2297 180.773,59.2297 184.5,54.5C 190.108,50.561 195.108,45.8943 199.5,40.5C 199.833,39.5 200.5,38.8333 201.5,38.5C 204.167,37.8333 205.833,36.1667 206.5,33.5C 209.089,32.5806 211.089,30.914 212.5,28.5C 216.1,26.5698 219.1,23.9031 221.5,20.5C 224.167,19.8333 225.833,18.1667 226.5,15.5C 229.167,14.8333 230.833,13.1667 231.5,10.5C 236.105,7.56431 240.105,3.89764 243.5,-0.5 Z"/></g>
<g><path style="opacity:0.875" fill="#ffbe98" d="M 226.5,15.5 C 225.833,18.1667 224.167,19.8333 221.5,20.5C 222.833,18.5 224.5,16.8333 226.5,15.5 Z"/></g>
<g><path style="opacity:0.639" fill="#ffbe98" d="M 221.5,20.5 C 219.1,23.9031 216.1,26.5698 212.5,28.5C 214.9,25.0969 217.9,22.4302 221.5,20.5 Z"/></g>
<g><path style="opacity:0.125" fill="#ffbe98" d="M 246.5,23.5 C 247.165,25.3691 247.831,27.3691 248.5,29.5C 251.64,30.0894 254.64,30.7561 257.5,31.5C 254.15,31.665 250.817,31.4983 247.5,31C 246.565,28.6194 246.232,26.1194 246.5,23.5 Z"/></g>
<g><path style="opacity:0.627" fill="#ffbe98" d="M 212.5,28.5 C 211.089,30.914 209.089,32.5806 206.5,33.5C 207.911,31.086 209.911,29.4194 212.5,28.5 Z"/></g>
<g><path style="opacity:0.133" fill="#ffbe98" d="M 258.5,31.5 C 262.078,31.5488 265.411,32.2154 268.5,33.5C 264.878,33.678 261.544,33.0114 258.5,31.5 Z"/></g>
<g><path style="opacity:0.02" fill="#ffbe98" d="M 276.5,35.5 C 279.152,35.4095 281.485,36.0762 283.5,37.5C 280.848,37.5905 278.515,36.9238 276.5,35.5 Z"/></g>
<g><path style="opacity:0.773" fill="#ffbe98" d="M 166.5,35.5 C 157.703,36.5331 149.036,38.1998 140.5,40.5C 148.781,36.2814 157.448,34.6148 166.5,35.5 Z"/></g>
<g><path style="opacity:0.765" fill="#ffbe98" d="M 206.5,33.5 C 205.833,36.1667 204.167,37.8333 201.5,38.5C 202.833,36.5 204.5,34.8333 206.5,33.5 Z"/></g>
<g><path style="opacity:0.016" fill="#ffbe98" d="M 166.5,35.5 C 168.273,38.676 167.273,40.3427 163.5,40.5C 165.69,39.6255 166.69,37.9589 166.5,35.5 Z"/></g>
<g><path style="opacity:0.745" fill="#ffbe98" d="M 287.5,38.5 C 289.786,38.595 291.786,39.2616 293.5,40.5C 290.99,40.9465 288.99,40.2798 287.5,38.5 Z"/></g>
<g><path style="opacity:0.2" fill="#ffbe98" d="M 160.5,41.5 C 158.786,42.7384 156.786,43.405 154.5,43.5C 156.102,41.9261 158.102,41.2594 160.5,41.5 Z"/></g>
<g><path style="opacity:0.796" fill="#ffbe98" d="M 139.5,40.5 C 139.389,41.1174 139.056,41.6174 138.5,42C 133.554,43.8165 128.554,45.3165 123.5,46.5C 128.525,43.9325 133.859,41.9325 139.5,40.5 Z"/></g>
<g><path style="opacity:0.847" fill="#ffbe98" d="M 154.5,43.5 C 152.574,45.2927 150.241,46.2927 147.5,46.5C 149.229,44.2733 151.562,43.2733 154.5,43.5 Z"/></g>
<g><path style="opacity:0.839" fill="#ffbe98" d="M 123.5,46.5 C 122.365,48.2132 120.698,48.8799 118.5,48.5C 119.93,47.4625 121.597,46.7959 123.5,46.5 Z"/></g>
<g><path style="opacity:0.957" fill="#ffbe98" d="M 118.5,48.5 C 117.393,50.9689 115.393,51.9689 112.5,51.5C 114.181,49.9925 116.181,48.9925 118.5,48.5 Z"/></g>
<g><path style="opacity:0.776" fill="#ffbe98" d="M 199.5,40.5 C 195.108,45.8943 190.108,50.561 184.5,54.5C 188.892,49.1057 193.892,44.439 199.5,40.5 Z"/></g>
<g><path style="opacity:0.055" fill="#ffbe98" d="M 134.5,53.5 C 133.486,54.6737 132.153,55.3404 130.5,55.5C 131.287,53.8958 132.62,53.2291 134.5,53.5 Z"/></g>
<g><path style="opacity:0.996" fill="#ffbe98" d="M 322.5,53.5 C 324.027,53.427 325.027,54.0937 325.5,55.5C 323.877,56.4908 322.877,55.8241 322.5,53.5 Z"/></g>
<g><path style="opacity:0.651" fill="#ffbe98" d="M 102.5,56.5 C 102.027,57.9063 101.027,58.573 99.5,58.5C 99.9731,57.0937 100.973,56.427 102.5,56.5 Z"/></g>
<g><path style="opacity:0.973" fill="#ffbe98" d="M 128.5,56.5 C 126.853,58.3264 124.853,59.6597 122.5,60.5C 122.5,59.5 122.5,58.5 122.5,57.5C 124.143,57.5198 125.476,56.8532 126.5,55.5C 127.183,55.8627 127.85,56.1961 128.5,56.5 Z"/></g>
<g><path style="opacity:0.647" fill="#ffbe98" d="M 97.5,59.5 C 97.0269,60.9063 96.0269,61.573 94.5,61.5C 94.9731,60.0937 95.9731,59.427 97.5,59.5 Z"/></g>
<g><path style="opacity:1" fill="#ffbe98" d="M 119.5,61.5 C 119.5,61.8333 119.5,62.1667 119.5,62.5C 118.421,64.543 116.754,65.8763 114.5,66.5C 115.31,64.2017 116.144,61.8684 117,59.5C 117.995,60.0659 118.828,60.7326 119.5,61.5 Z"/></g>
<g><path style="opacity:1" fill="#ffbe98" d="M 329.5,57.5 C 333.025,58.7589 336.025,60.7589 338.5,63.5C 335.557,61.8157 332.557,60.9824 329.5,61C 330.684,59.8545 330.684,58.6879 329.5,57.5 Z"/></g>
<g><path style="opacity:0.059" fill="#ffbe98" d="M 122.5,60.5 C 122.027,61.9063 121.027,62.573 119.5,62.5C 119.5,62.1667 119.5,61.8333 119.5,61.5C 120.391,60.8902 121.391,60.5569 122.5,60.5 Z"/></g>
<g><path style="opacity:0.671" fill="#ffbe98" d="M 184.5,54.5 C 180.773,59.2297 176.44,63.2297 171.5,66.5C 175.227,61.7703 179.56,57.7703 184.5,54.5 Z"/></g>
<g><path style="opacity:0.573" fill="#ffbe98" d="M 92.5,62.5 C 91.7377,64.2624 90.4044,65.2624 88.5,65.5C 89.2623,63.7376 90.5956,62.7376 92.5,62.5 Z"/></g>
<g><path style="opacity:0.827" fill="#ffbe98" d="M 340.5,64.5 C 342.23,65.0256 343.564,66.0256 344.5,67.5C 342.368,67.4456 341.035,66.4456 340.5,64.5 Z"/></g>
<g><path style="opacity:0.725" fill="#ffbe98" d="M 88.5,65.5 C 88.0269,66.9063 87.0269,67.573 85.5,67.5C 85.9731,66.0937 86.9731,65.427 88.5,65.5 Z"/></g>
<g><path style="opacity:0.031" fill="#ffbe98" d="M 114.5,66.5 C 114.027,67.9063 113.027,68.573 111.5,68.5C 111.973,67.0937 112.973,66.427 114.5,66.5 Z"/></g>
<g><path style="opacity:0.678" fill="#ffbe98" d="M 85.5,67.5 C 85.0269,68.9063 84.0269,69.573 82.5,69.5C 82.9731,68.0937 83.9731,67.427 85.5,67.5 Z"/></g>
<g><path style="opacity:0.569" fill="#ffbe98" d="M 82.5,69.5 C 81.7377,71.2624 80.4044,72.2624 78.5,72.5C 79.2623,70.7376 80.5956,69.7376 82.5,69.5 Z"/></g>
<g><path style="opacity:0.714" fill="#ffbe98" d="M 171.5,66.5 C 169.652,68.5164 167.985,70.683 166.5,73C 166.978,74.3026 167.645,75.4693 168.5,76.5C 166.405,76.2402 165.072,75.0736 164.5,73C 166.059,69.9394 168.392,67.7727 171.5,66.5 Z"/></g>
<g><path style="opacity:1" fill="#ffbe98" d="M 344.5,67.5 C 347.473,69.1468 350.14,71.1468 352.5,73.5C 348.485,73.0865 345.818,71.0865 344.5,67.5 Z"/></g>
<g><path style="opacity:0.004" fill="#ffbe98" d="M 108.5,71.5 C 108.027,72.9063 107.027,73.573 105.5,73.5C 105.973,72.0937 106.973,71.427 108.5,71.5 Z"/></g>
<g><path style="opacity:0.984" fill="#ffbe98" d="M 105.5,73.5 C 103.833,75.8333 101.833,77.8333 99.5,79.5C 99.1667,75.1667 101.167,73.1667 105.5,73.5 Z"/></g>
<g><path style="opacity:0.733" fill="#ffbe98" d="M 78.5,72.5 C 77.4154,74.5869 75.7488,75.9202 73.5,76.5C 74.5846,74.4131 76.2512,73.0798 78.5,72.5 Z"/></g>
<g><path style="opacity:0.984" fill="#ffbe98" d="M 168.5,76.5 C 170.989,76.2407 172.656,77.2407 173.5,79.5C 171.566,78.8897 169.899,77.8897 168.5,76.5 Z"/></g>
<g><path style="opacity:0.988" fill="#ffbe98" d="M 352.5,73.5 C 355.784,75.117 358.451,77.4503 360.5,80.5C 356.255,79.9195 353.589,77.5861 352.5,73.5 Z"/></g>
<g><path style="opacity:0.643" fill="#ffbe98" d="M 73.5,76.5 C 71.4309,79.5725 68.7642,81.9059 65.5,83.5C 67.5691,80.4275 70.2358,78.0941 73.5,76.5 Z"/></g>
<g><path style="opacity:0.431" fill="#ffbe98" d="M 175.5,80.5 C 177.027,80.427 178.027,81.0937 178.5,82.5C 176.973,82.573 175.973,81.9063 175.5,80.5 Z"/></g>
<g><path style="opacity:0.553" fill="#ffbe98" d="M 360.5,80.5 C 366.521,84.5212 371.521,89.5212 375.5,95.5C 370.119,90.7852 365.119,85.7852 360.5,80.5 Z"/></g>
<g><path style="opacity:0.424" fill="#ffbe98" d="M 178.5,82.5 C 180.027,82.427 181.027,83.0937 181.5,84.5C 179.973,84.573 178.973,83.9063 178.5,82.5 Z"/></g>
<g><path style="opacity:0.314" fill="#ffbe98" d="M 181.5,84.5 C 183.027,84.427 184.027,85.0937 184.5,86.5C 182.973,86.573 181.973,85.9063 181.5,84.5 Z"/></g>
<g><path style="opacity:0.259" fill="#ffbe98" d="M 184.5,86.5 C 186.027,86.427 187.027,87.0937 187.5,88.5C 185.973,88.573 184.973,87.9063 184.5,86.5 Z"/></g>
<g><path style="opacity:0.533" fill="#ffbe98" d="M 65.5,83.5 C 61.8333,87.8333 57.8333,91.8333 53.5,95.5C 56.5,90.5 60.5,86.5 65.5,83.5 Z"/></g>
<g><path style="opacity:0.098" fill="#ffbe98" d="M 90.5,88.5 C 89.9202,90.7488 88.5869,92.4154 86.5,93.5C 87.0798,91.2512 88.4131,89.5846 90.5,88.5 Z"/></g>
<g><path style="opacity:0.239" fill="#ffbe98" d="M 192.5,91.5 C 194.027,91.427 195.027,92.0937 195.5,93.5C 193.973,93.573 192.973,92.9063 192.5,91.5 Z"/></g>
<g><path style="opacity:0.427" fill="#ffbe98" d="M 197.5,94.5 C 199.027,94.427 200.027,95.0937 200.5,96.5C 198.973,96.573 197.973,95.9063 197.5,94.5 Z"/></g>
<g><path style="opacity:0.824" fill="#ffbe98" d="M 375.5,95.5 C 378.243,97.2393 380.243,99.5726 381.5,102.5C 378.757,100.761 376.757,98.4274 375.5,95.5 Z"/></g>
<g><path style="opacity:1" fill="#ffbe98" d="M 166.5,35.5 C 166.69,37.9589 165.69,39.6255 163.5,40.5C 162.791,41.404 161.791,41.7373 160.5,41.5C 158.102,41.2594 156.102,41.9261 154.5,43.5C 151.562,43.2733 149.229,44.2733 147.5,46.5C 143.361,49.0716 139.027,51.4049 134.5,53.5C 132.62,53.2291 131.287,53.8958 130.5,55.5C 130.158,56.3382 129.492,56.6716 128.5,56.5C 127.85,56.1961 127.183,55.8627 126.5,55.5C 125.476,56.8532 124.143,57.5198 122.5,57.5C 122.5,58.5 122.5,59.5 122.5,60.5C 121.391,60.5569 120.391,60.8902 119.5,61.5C 118.828,60.7326 117.995,60.0659 117,59.5C 116.144,61.8684 115.31,64.2017 114.5,66.5C 112.973,66.427 111.973,67.0937 111.5,68.5C 110.833,69.8333 109.833,70.8333 108.5,71.5C 106.973,71.427 105.973,72.0937 105.5,73.5C 101.167,73.1667 99.1667,75.1667 99.5,79.5C 96.8333,82.8333 93.8333,85.8333 90.5,88.5C 88.4131,89.5846 87.0798,91.2512 86.5,93.5C 85.9744,95.2303 84.9744,96.5637 83.5,97.5C 80.7418,98.2911 78.2418,98.9578 76,99.5C 75.5099,101.545 75.6765,103.545 76.5,105.5C 75.8902,106.391 75.5569,107.391 75.5,108.5C 75.573,110.027 74.9063,111.027 73.5,111.5C 72.5,111.5 71.5,111.5 70.5,111.5C 70.5,113.167 70.5,114.833 70.5,116.5C 68.0078,122.818 65.0078,128.818 61.5,134.5C 60.0448,136.892 58.0448,138.725 55.5,140C 56.756,140.417 57.4226,141.25 57.5,142.5C 56.8505,144.435 56.5172,146.435 56.5,148.5C 54.7202,149.99 54.0535,151.99 54.5,154.5C 54.1417,157.267 53.475,159.933 52.5,162.5C 50.1257,167.797 49.1257,173.463 49.5,179.5C 47.8517,198.587 48.5183,217.587 51.5,236.5C 51.6102,241.622 52.9436,246.288 55.5,250.5C 55.5,250.833 55.5,251.167 55.5,251.5C 55.1201,253.698 55.7868,255.365 57.5,256.5C 57.1201,258.698 57.7868,260.365 59.5,261.5C 59.1201,263.698 59.7868,265.365 61.5,266.5C 61.1568,268.483 61.8235,269.817 63.5,270.5C 64.9313,271.78 65.5979,273.447 65.5,275.5C 65.427,277.027 66.0937,278.027 67.5,278.5C 69.0075,280.181 70.0075,282.181 70.5,284.5C 70.427,286.027 71.0937,287.027 72.5,287.5C 73.3382,287.842 73.6716,288.508 73.5,289.5C 73.427,291.027 74.0937,292.027 75.5,292.5C 75.427,294.027 76.0937,295.027 77.5,295.5C 77.427,297.027 78.0937,298.027 79.5,298.5C 79.7376,300.404 80.7376,301.738 82.5,302.5C 83.5,302.833 84.1667,303.5 84.5,304.5C 84.427,306.027 85.0937,307.027 86.5,307.5C 87.4194,310.089 89.086,312.089 91.5,313.5C 93.1667,314.5 94.5,315.833 95.5,317.5C 95.7221,319.607 96.7221,321.274 98.5,322.5C 98.2907,323.086 97.9574,323.586 97.5,324C 99.5183,324.505 101.518,325.005 103.5,325.5C 104.035,327.446 105.368,328.446 107.5,328.5C 108.226,331.179 109.059,333.846 110,336.5C 110.388,335.572 111.055,334.905 112,334.5C 113.586,336.044 115.42,337.211 117.5,338C 116.483,339.049 116.316,340.216 117,341.5C 118.398,340.949 119.732,340.616 121,340.5C 122.333,341.167 123.333,342.167 124,343.5C 124.383,342.944 124.883,342.611 125.5,342.5C 134.382,347.441 143.382,352.107 152.5,356.5C 153.78,357.931 155.447,358.598 157.5,358.5C 158.791,358.263 159.791,358.596 160.5,359.5C 161.99,361.28 163.99,361.946 166.5,361.5C 168.099,361.232 169.432,361.566 170.5,362.5C 171.568,363.434 172.901,363.768 174.5,363.5C 174.844,358.878 174.177,354.545 172.5,350.5C 172.5,350.167 172.5,349.833 172.5,349.5C 172.636,344.303 172.303,339.137 171.5,334C 171.608,332.319 172.275,331.152 173.5,330.5C 173.973,331.906 174.973,332.573 176.5,332.5C 177.492,332.328 178.158,332.662 178.5,333.5C 179.035,335.446 180.368,336.446 182.5,336.5C 182.973,337.906 183.973,338.573 185.5,338.5C 186.492,338.328 187.158,338.662 187.5,339.5C 187.821,341.048 188.821,341.715 190.5,341.5C 190.821,343.048 191.821,343.715 193.5,343.5C 194.787,345.257 196.287,346.924 198,348.5C 198.383,347.944 198.883,347.611 199.5,347.5C 200.492,347.328 201.158,347.662 201.5,348.5C 202.035,350.446 203.368,351.446 205.5,351.5C 205.833,351.5 206.167,351.5 206.5,351.5C 207.035,353.446 208.368,354.446 210.5,354.5C 211.492,354.328 212.158,354.662 212.5,355.5C 213.733,357.796 215.733,359.13 218.5,359.5C 219.492,359.328 220.158,359.662 220.5,360.5C 221.035,362.446 222.368,363.446 224.5,363.5C 227.004,364.584 229.337,365.917 231.5,367.5C 232.035,369.446 233.368,370.446 235.5,370.5C 236.492,370.328 237.158,370.662 237.5,371.5C 238.3,373.741 239.966,374.741 242.5,374.5C 243.3,376.741 244.966,377.741 247.5,377.5C 248.502,379.011 249.169,380.678 249.5,382.5C 251.861,382.674 254.194,383.007 256.5,383.5C 257.492,383.328 258.158,383.662 258.5,384.5C 259.759,385.979 260.759,387.646 261.5,389.5C 261.167,390.5 260.5,391.167 259.5,391.5C 256.911,392.419 254.911,394.086 253.5,396.5C 251.167,399.5 248.5,402.167 245.5,404.5C 243.938,404.733 242.605,405.4 241.5,406.5C 240.732,405.737 240.232,404.737 240,403.5C 239.667,405.167 239.333,406.833 239,408.5C 238.667,407.833 238.333,407.167 238,406.5C 237.716,408.886 236.716,409.552 235,408.5C 234.505,410.473 234.338,412.473 234.5,414.5C 232.973,414.427 231.973,415.094 231.5,416.5C 230.167,418.5 228.5,420.167 226.5,421.5C 225.167,421.5 223.833,421.5 222.5,421.5C 222.608,423.514 221.942,425.18 220.5,426.5C 217.833,429.833 214.833,432.833 211.5,435.5C 209.278,435.822 207.444,435.155 206,433.5C 205.552,435.409 206.385,436.576 208.5,437C 206.833,437.333 205.167,437.667 203.5,438C 204.167,438.333 204.833,438.667 205.5,439C 204.027,439.71 203.36,440.876 203.5,442.5C 202.5,442.833 201.833,443.5 201.5,444.5C 199.5,447.167 197.167,449.5 194.5,451.5C 192.386,450.66 190.553,451.327 189,453.5C 188.667,454.5 188.333,455.5 188,456.5C 187.282,455.549 186.449,455.383 185.5,456C 186.337,457.011 186.67,458.178 186.5,459.5C 185.167,459.5 183.833,459.5 182.5,459.5C 182.81,456.287 182.477,453.287 181.5,450.5C 180.64,446.566 180.307,442.566 180.5,438.5C 180.5,435.833 180.5,433.167 180.5,430.5C 179.5,430.5 178.5,430.5 177.5,430.5C 171.209,430.505 165.209,429.505 159.5,427.5C 156.781,426.087 153.781,425.42 150.5,425.5C 150.167,425.5 149.833,425.5 149.5,425.5C 147.562,423.837 145.228,423.171 142.5,423.5C 141.01,421.72 139.01,421.054 136.5,421.5C 134.421,421.029 132.421,420.363 130.5,419.5C 129.365,417.787 127.698,417.12 125.5,417.5C 124.365,415.787 122.698,415.12 120.5,415.5C 118.847,415.34 117.514,414.674 116.5,413.5C 116.119,412.069 115.119,411.236 113.5,411C 114.214,409.657 113.88,408.324 112.5,407C 113.451,406.282 113.617,405.449 113,404.5C 112.167,405.333 111.333,406.167 110.5,407C 111.451,407.718 111.617,408.551 111,409.5C 109.644,408.62 108.144,408.286 106.5,408.5C 104.847,408.34 103.514,407.674 102.5,406.5C 102.027,405.094 101.027,404.427 99.5,404.5C 98.5084,404.672 97.8417,404.338 97.5,403.5C 97.0269,402.094 96.0269,401.427 94.5,401.5C 94.0269,400.094 93.0269,399.427 91.5,399.5C 91.0269,398.094 90.0269,397.427 88.5,397.5C 87.7377,395.738 86.4044,394.738 84.5,394.5C 83.7377,392.738 82.4044,391.738 80.5,391.5C 79.7377,389.738 78.4044,388.738 76.5,388.5C 75.7377,386.738 74.4044,385.738 72.5,385.5C 71.5,385.167 70.8333,384.5 70.5,383.5C 69.4154,381.413 67.7488,380.08 65.5,379.5C 63.1667,377.833 61.1667,375.833 59.5,373.5C 58.5868,371.914 58.5868,370.414 59.5,369C 57.2808,367.111 56.4475,364.944 57,362.5C 56.6667,362.833 56.3333,363.167 56,363.5C 52.4072,361.953 48.9072,360.286 45.5,358.5C 45.573,356.973 44.9063,355.973 43.5,355.5C 42.5,355.167 41.8333,354.5 41.5,353.5C 41.4456,351.368 40.4456,350.035 38.5,349.5C 36.7819,347.777 35.4486,345.777 34.5,343.5C 34.4456,341.368 33.4456,340.035 31.5,339.5C 31.2761,337.213 30.6094,335.047 29.5,333C 29.6448,332.228 29.9781,331.561 30.5,331C 28.7525,330.648 27.0858,330.148 25.5,329.5C 22.6589,325.151 20.3255,320.484 18.5,315.5C 18.5979,313.447 17.9313,311.78 16.5,310.5C 15.6618,310.158 15.3284,309.492 15.5,308.5C 15.5979,306.447 14.9313,304.78 13.5,303.5C 11.3987,300.203 10.0653,296.537 9.5,292.5C 9.59047,289.848 8.92381,287.515 7.5,285.5C 7.25759,281.521 6.25759,277.854 4.5,274.5C 1.87063,265.484 0.537295,256.151 0.5,246.5C 0.429079,233.487 0.762413,220.487 1.5,207.5C 1.63911,200.669 2.63911,194.002 4.5,187.5C 6.16276,185.562 6.82943,183.228 6.5,180.5C 8.81214,176.217 10.1455,171.55 10.5,166.5C 12.2132,165.365 12.8799,163.698 12.5,161.5C 14.6545,159.383 15.6545,156.716 15.5,153.5C 17.0502,148.07 19.3836,143.07 22.5,138.5C 23.9063,138.027 24.573,137.027 24.5,135.5C 25.4097,132.008 27.0764,129.008 29.5,126.5C 30.9063,126.027 31.573,125.027 31.5,123.5C 32.9063,123.027 33.573,122.027 33.5,120.5C 34.9063,120.027 35.573,119.027 35.5,117.5C 37.2624,116.738 38.2624,115.404 38.5,113.5C 40.2624,112.738 41.2624,111.404 41.5,109.5C 43.5869,108.415 44.9202,106.749 45.5,104.5C 46.9063,104.027 47.573,103.027 47.5,101.5C 50.5,100.5 52.5,98.5 53.5,95.5C 57.8333,91.8333 61.8333,87.8333 65.5,83.5C 68.7642,81.9059 71.4309,79.5725 73.5,76.5C 75.7488,75.9202 77.4154,74.5869 78.5,72.5C 80.4044,72.2624 81.7377,71.2624 82.5,69.5C 84.0269,69.573 85.0269,68.9063 85.5,67.5C 87.0269,67.573 88.0269,66.9063 88.5,65.5C 90.4044,65.2624 91.7377,64.2624 92.5,62.5C 92.8417,61.6618 93.5084,61.3284 94.5,61.5C 96.0269,61.573 97.0269,60.9063 97.5,59.5C 97.8417,58.6618 98.5084,58.3284 99.5,58.5C 101.027,58.573 102.027,57.9063 102.5,56.5C 105.515,54.3256 108.849,52.6589 112.5,51.5C 115.393,51.9689 117.393,50.9689 118.5,48.5C 120.698,48.8799 122.365,48.2132 123.5,46.5C 128.554,45.3165 133.554,43.8165 138.5,42C 139.056,41.6174 139.389,41.1174 139.5,40.5C 139.833,40.5 140.167,40.5 140.5,40.5C 149.036,38.1998 157.703,36.5331 166.5,35.5 Z"/></g>
<g><path style="opacity:0.337" fill="#ffbe98" d="M 200.5,96.5 C 202.027,96.427 203.027,97.0937 203.5,98.5C 201.973,98.573 200.973,97.9063 200.5,96.5 Z"/></g>
<g><path style="opacity:0.998" fill="#ffbe98" d="M 83.5,97.5 C 81.8532,100.473 79.8532,103.14 77.5,105.5C 77.1667,105.5 76.8333,105.5 76.5,105.5C 75.6765,103.545 75.5099,101.545 76,99.5C 78.2418,98.9578 80.7418,98.2911 83.5,97.5 Z"/></g>
<g><path style="opacity:0.278" fill="#ffbe98" d="M 203.5,98.5 C 205.027,98.427 206.027,99.0937 206.5,100.5C 204.973,100.573 203.973,99.9063 203.5,98.5 Z"/></g>
<g><path style="opacity:0.69" fill="#ffbe98" d="M 53.5,95.5 C 52.5,98.5 50.5,100.5 47.5,101.5C 49.1667,99.1667 51.1667,97.1667 53.5,95.5 Z"/></g>
<g><path style="opacity:0.835" fill="#ffbe98" d="M 265.5,101.5 C 267.698,101.12 269.365,101.787 270.5,103.5C 268.597,103.204 266.93,102.537 265.5,101.5 Z"/></g>
<g><path style="opacity:0.376" fill="#ffbe98" d="M 47.5,101.5 C 47.573,103.027 46.9063,104.027 45.5,104.5C 45.427,102.973 46.0937,101.973 47.5,101.5 Z"/></g>
<g><path style="opacity:0.788" fill="#ffbe98" d="M 381.5,102.5 C 383.587,103.585 384.92,105.251 385.5,107.5C 383.413,106.415 382.08,104.749 381.5,102.5 Z"/></g>
<g><path style="opacity:0.31" fill="#ffbe98" d="M 211.5,103.5 C 213.027,103.427 214.027,104.094 214.5,105.5C 212.973,105.573 211.973,104.906 211.5,103.5 Z"/></g>
<g><path style="opacity:0.212" fill="#ffbe98" d="M 262.5,100.5 C 259.882,100.221 257.382,99.5541 255,98.5C 254.502,101.482 254.335,104.482 254.5,107.5C 253.521,104.375 253.187,101.042 253.5,97.5C 256.916,97.5275 259.916,98.5275 262.5,100.5 Z"/></g>
<g><path style="opacity:0.851" fill="#ffbe98" d="M 273.5,104.5 C 275.698,104.12 277.365,104.787 278.5,106.5C 276.597,106.204 274.93,105.537 273.5,104.5 Z"/></g>
<g><path style="opacity:0.024" fill="#ffbe98" d="M 76.5,105.5 C 76.8333,105.5 77.1667,105.5 77.5,105.5C 77.573,107.027 76.9063,108.027 75.5,108.5C 75.5569,107.391 75.8902,106.391 76.5,105.5 Z"/></g>
<g><path style="opacity:0.569" fill="#ffbe98" d="M 45.5,104.5 C 44.9202,106.749 43.5869,108.415 41.5,109.5C 42.0798,107.251 43.4131,105.585 45.5,104.5 Z"/></g>
<g><path style="opacity:0.478" fill="#ffbe98" d="M 216.5,106.5 C 218.027,106.427 219.027,107.094 219.5,108.5C 217.973,108.573 216.973,107.906 216.5,106.5 Z"/></g>
<g><path style="opacity:1" fill="#ffbe98" d="M 278.5,106.5 C 281.167,106.833 283.833,107.167 286.5,107.5C 286.5,108.5 286.5,109.5 286.5,110.5C 283.515,109.674 280.849,108.341 278.5,106.5 Z"/></g>
<g><path style="opacity:0.424" fill="#ffbe98" d="M 219.5,108.5 C 221.027,108.427 222.027,109.094 222.5,110.5C 220.973,110.573 219.973,109.906 219.5,108.5 Z"/></g>
<g><path style="opacity:0.608" fill="#ffbe98" d="M 385.5,107.5 C 387.262,108.262 388.262,109.596 388.5,111.5C 386.738,110.738 385.738,109.404 385.5,107.5 Z"/></g>
<g><path style="opacity:0.769" fill="#ffbe98" d="M 41.5,109.5 C 41.2624,111.404 40.2624,112.738 38.5,113.5C 38.7376,111.596 39.7376,110.262 41.5,109.5 Z"/></g>
<g><path style="opacity:0.322" fill="#ffbe98" d="M 222.5,110.5 C 224.027,110.427 225.027,111.094 225.5,112.5C 223.973,112.573 222.973,111.906 222.5,110.5 Z"/></g>
<g><path style="opacity:1" fill="#ffbe98" d="M 73.5,111.5 C 72.8897,113.434 71.8897,115.101 70.5,116.5C 70.5,114.833 70.5,113.167 70.5,111.5C 71.5,111.5 72.5,111.5 73.5,111.5 Z"/></g>
<g><path style="opacity:1" fill="#ffbe98" d="M 225.5,112.5 C 227.989,112.241 229.656,113.241 230.5,115.5C 228.566,114.89 226.899,113.89 225.5,112.5 Z"/></g>
<g><path style="opacity:0.686" fill="#ffbe98" d="M 388.5,111.5 C 389.906,111.973 390.573,112.973 390.5,114.5C 389.094,114.027 388.427,113.027 388.5,111.5 Z"/></g>
<g><path style="opacity:0.58" fill="#ffbe98" d="M 38.5,113.5 C 38.2624,115.404 37.2624,116.738 35.5,117.5C 35.7376,115.596 36.7376,114.262 38.5,113.5 Z"/></g>
<g><path style="opacity:0.349" fill="#ffbe98" d="M 230.5,115.5 C 232.027,115.427 233.027,116.094 233.5,117.5C 231.973,117.573 230.973,116.906 230.5,115.5 Z"/></g>
<g><path style="opacity:0.4" fill="#ffbe98" d="M 296.5,115.5 C 298.027,115.427 299.027,116.094 299.5,117.5C 297.973,117.573 296.973,116.906 296.5,115.5 Z"/></g>
<g><path style="opacity:0.541" fill="#ffbe98" d="M 390.5,114.5 C 391.906,114.973 392.573,115.973 392.5,117.5C 391.094,117.027 390.427,116.027 390.5,114.5 Z"/></g>
<g><path style="opacity:0.302" fill="#ffbe98" d="M 233.5,117.5 C 235.027,117.427 236.027,118.094 236.5,119.5C 234.973,119.573 233.973,118.906 233.5,117.5 Z"/></g>
<g><path style="opacity:0.329" fill="#ffbe98" d="M 299.5,117.5 C 301.027,117.427 302.027,118.094 302.5,119.5C 300.973,119.573 299.973,118.906 299.5,117.5 Z"/></g>
<g><path style="opacity:0.388" fill="#ffbe98" d="M 35.5,117.5 C 35.573,119.027 34.9063,120.027 33.5,120.5C 33.427,118.973 34.0937,117.973 35.5,117.5 Z"/></g>
<g><path style="opacity:1" fill="#ffbe98" d="M 241.5,122.5 C 239.566,121.89 237.899,120.89 236.5,119.5C 237.822,119.67 238.989,119.337 240,118.5C 240.41,119.901 240.91,121.234 241.5,122.5 Z"/></g>
<g><path style="opacity:0.533" fill="#ffbe98" d="M 392.5,117.5 C 393.906,117.973 394.573,118.973 394.5,120.5C 393.094,120.027 392.427,119.027 392.5,117.5 Z"/></g>
<g><path style="opacity:0.361" fill="#ffbe98" d="M 302.5,119.5 C 304.027,119.427 305.027,120.094 305.5,121.5C 303.973,121.573 302.973,120.906 302.5,119.5 Z"/></g>
<g><path style="opacity:0.322" fill="#ffbe98" d="M 33.5,120.5 C 33.573,122.027 32.9063,123.027 31.5,123.5C 31.427,121.973 32.0937,120.973 33.5,120.5 Z"/></g>
<g><path style="opacity:0.357" fill="#ffbe98" d="M 305.5,121.5 C 307.027,121.427 308.027,122.094 308.5,123.5C 306.973,123.573 305.973,122.906 305.5,121.5 Z"/></g>
<g><path style="opacity:0.373" fill="#ffbe98" d="M 394.5,120.5 C 395.906,120.973 396.573,121.973 396.5,123.5C 395.094,123.027 394.427,122.027 394.5,120.5 Z"/></g>
<g><path style="opacity:0.541" fill="#ffbe98" d="M 241.5,122.5 C 243.027,122.427 244.027,123.094 244.5,124.5C 242.973,124.573 241.973,123.906 241.5,122.5 Z"/></g>
<g><path style="opacity:0.49" fill="#ffbe98" d="M 308.5,123.5 C 310.027,123.427 311.027,124.094 311.5,125.5C 309.973,125.573 308.973,124.906 308.5,123.5 Z"/></g>
<g><path style="opacity:0.275" fill="#ffbe98" d="M 31.5,123.5 C 31.573,125.027 30.9063,126.027 29.5,126.5C 29.427,124.973 30.0937,123.973 31.5,123.5 Z"/></g>
<g><path style="opacity:0.529" fill="#ffbe98" d="M 244.5,124.5 C 246.027,124.427 247.027,125.094 247.5,126.5C 245.973,126.573 244.973,125.906 244.5,124.5 Z"/></g>
<g><path style="opacity:0.565" fill="#ffbe98" d="M 247.5,126.5 C 249.404,126.738 250.738,127.738 251.5,129.5C 249.596,129.262 248.262,128.262 247.5,126.5 Z"/></g>
<g><path style="opacity:0.459" fill="#ffbe98" d="M 311.5,125.5 C 313.749,126.08 315.415,127.413 316.5,129.5C 314.251,128.92 312.585,127.587 311.5,125.5 Z"/></g>
<g><path style="opacity:0.633" fill="#ffbe98" d="M 255.5,120.5 C 256.645,124.311 256.812,128.311 256,132.5C 255.005,131.934 254.172,131.267 253.5,130.5C 255.402,127.663 256.069,124.329 255.5,120.5 Z"/></g>
<g><path style="opacity:0.978" fill="#ffbe98" d="M 397.5,125.5 C 399.664,127.822 401.331,130.489 402.5,133.5C 399.336,131.853 397.67,129.186 397.5,125.5 Z"/></g>
<g><path style="opacity:0.635" fill="#ffbe98" d="M 318.5,131.5 C 320.404,131.738 321.738,132.738 322.5,134.5C 320.596,134.262 319.262,133.262 318.5,131.5 Z"/></g>
<g><path style="opacity:1" fill="#ffbe98" d="M 330.5,142.5 C 327.5,140.167 324.833,137.5 322.5,134.5C 324.017,134.489 325.184,133.823 326,132.5C 327.602,135.813 329.102,139.147 330.5,142.5 Z"/></g>
<g><path style="opacity:0.294" fill="#ffbe98" d="M 24.5,135.5 C 24.573,137.027 23.9063,138.027 22.5,138.5C 22.427,136.973 23.0937,135.973 24.5,135.5 Z"/></g>
<g><path style="opacity:1" fill="#ffbe98" d="M 61.5,134.5 C 61.0198,137.443 60.0198,140.11 58.5,142.5C 58.1667,142.5 57.8333,142.5 57.5,142.5C 57.4226,141.25 56.756,140.417 55.5,140C 58.0448,138.725 60.0448,136.892 61.5,134.5 Z"/></g>
<g><path style="opacity:1" fill="#ffbe98" d="M 402.5,133.5 C 404.341,135.849 405.674,138.515 406.5,141.5C 405.022,141.762 403.689,141.429 402.5,140.5C 403.053,138.273 403.053,135.939 402.5,133.5 Z"/></g>
<g><path style="opacity:0.302" fill="#ffbe98" d="M 57.5,142.5 C 57.8333,142.5 58.1667,142.5 58.5,142.5C 58.405,144.786 57.7384,146.786 56.5,148.5C 56.5172,146.435 56.8505,144.435 57.5,142.5 Z"/></g>
<g><path style="opacity:0.016" fill="#ffbe98" d="M 336.5,148.5 C 337.906,148.973 338.573,149.973 338.5,151.5C 337.094,151.027 336.427,150.027 336.5,148.5 Z"/></g>
<g><path style="opacity:0.659" fill="#ffbe98" d="M 56.5,148.5 C 56.405,150.786 55.7384,152.786 54.5,154.5C 54.0535,151.99 54.7202,149.99 56.5,148.5 Z"/></g>
<g><path style="opacity:0.882" fill="#ffbe98" d="M 410.5,149.5 C 412.065,151.509 413.065,153.843 413.5,156.5C 411.166,154.824 410.166,152.491 410.5,149.5 Z"/></g>
<g><path style="opacity:0.871" fill="#ffbe98" d="M 340.5,153.5 C 342.531,154.539 343.864,156.205 344.5,158.5C 342.457,157.421 341.124,155.754 340.5,153.5 Z"/></g>
<g><path style="opacity:0.871" fill="#ffbe98" d="M 15.5,153.5 C 15.6545,156.716 14.6545,159.383 12.5,161.5C 12.9802,158.557 13.9802,155.89 15.5,153.5 Z"/></g>
<g><path style="opacity:0.6" fill="#ffbe98" d="M 344.5,158.5 C 346.446,159.035 347.446,160.368 347.5,162.5C 346.026,161.564 345.026,160.23 344.5,158.5 Z"/></g>
<g><path style="opacity:0.808" fill="#ffbe98" d="M 414.5,159.5 C 415.537,160.93 416.204,162.597 416.5,164.5C 414.787,163.365 414.12,161.698 414.5,159.5 Z"/></g>
<g><path style="opacity:0.824" fill="#ffbe98" d="M 12.5,161.5 C 12.8799,163.698 12.2132,165.365 10.5,166.5C 10.7959,164.597 11.4625,162.93 12.5,161.5 Z"/></g>
<g><path style="opacity:0.576" fill="#ffbe98" d="M 347.5,162.5 C 349.446,163.035 350.446,164.368 350.5,166.5C 349.026,165.564 348.026,164.23 347.5,162.5 Z"/></g>
<g><path style="opacity:0.165" fill="#ffbe98" d="M 52.5,162.5 C 51.6006,168.315 50.6006,173.982 49.5,179.5C 49.1257,173.463 50.1257,167.797 52.5,162.5 Z"/></g>
<g><path style="opacity:0.796" fill="#ffbe98" d="M 351.5,168.5 C 353.446,169.035 354.446,170.368 354.5,172.5C 353.026,171.564 352.026,170.23 351.5,168.5 Z"/></g>
<g><path style="opacity:0.8" fill="#ffbe98" d="M 10.5,166.5 C 10.1455,171.55 8.81214,176.217 6.5,180.5C 7.23266,175.555 8.56599,170.888 10.5,166.5 Z"/></g>
<g><path style="opacity:0.875" fill="#ffbe98" d="M 417.5,167.5 C 419.101,170.55 420.101,173.884 420.5,177.5C 418.32,174.619 417.32,171.286 417.5,167.5 Z"/></g>
<g><path style="opacity:0.725" fill="#ffbe98" d="M 420.5,178.5 C 421.738,180.214 422.405,182.214 422.5,184.5C 420.926,182.898 420.259,180.898 420.5,178.5 Z"/></g>
<g><path style="opacity:0.169" fill="#ffbe98" d="M 359.5,181.5 C 361.25,182.659 362.25,184.326 362.5,186.5C 360.75,185.341 359.75,183.674 359.5,181.5 Z"/></g>
<g><path style="opacity:0.714" fill="#ffbe98" d="M 6.5,180.5 C 6.82943,183.228 6.16276,185.562 4.5,187.5C 4.72148,184.933 5.38815,182.599 6.5,180.5 Z"/></g>
<g><path style="opacity:0.216" fill="#ffbe98" d="M 362.5,186.5 C 364.625,189.088 365.958,192.088 366.5,195.5C 364.375,192.912 363.042,189.912 362.5,186.5 Z"/></g>
<g><path style="opacity:0.149" fill="#ffbe98" d="M 366.5,195.5 C 377.951,219.326 381.951,244.326 378.5,270.5C 380.079,244.549 376.079,219.549 366.5,195.5 Z"/></g>
<g><path style="opacity:0.737" fill="#ffbe98" d="M 424.5,196.5 C 426.012,201.929 426.679,207.596 426.5,213.5C 425.116,208.056 424.45,202.389 424.5,196.5 Z"/></g>
<g><path style="opacity:0.056" fill="#ffbe98" d="M 1.5,207.5 C 0.762413,220.487 0.429079,233.487 0.5,246.5C 0.166667,246.5 -0.166667,246.5 -0.5,246.5C -0.5,236.833 -0.5,227.167 -0.5,217.5C 0.166667,214.167 0.833333,210.833 1.5,207.5 Z"/></g>
<g><path style="opacity:0.733" fill="#ffbe98" d="M 51.5,236.5 C 53.1231,240.978 54.4565,245.645 55.5,250.5C 52.9436,246.288 51.6102,241.622 51.5,236.5 Z"/></g>
<g><path style="opacity:0.812" fill="#ffbe98" d="M 55.5,251.5 C 56.5375,252.93 57.2041,254.597 57.5,256.5C 55.7868,255.365 55.1201,253.698 55.5,251.5 Z"/></g>
<g><path style="opacity:0.784" fill="#ffbe98" d="M 57.5,256.5 C 58.5375,257.93 59.2041,259.597 59.5,261.5C 57.7868,260.365 57.1201,258.698 57.5,256.5 Z"/></g>
<g><path style="opacity:0.016" fill="#ffbe98" d="M 425.5,253.5 C 425.638,258.414 424.972,263.081 423.5,267.5C 423.229,262.566 423.896,257.9 425.5,253.5 Z"/></g>
<g><path style="opacity:0.824" fill="#ffbe98" d="M 59.5,261.5 C 60.5375,262.93 61.2041,264.597 61.5,266.5C 59.7868,265.365 59.1201,263.698 59.5,261.5 Z"/></g>
<g><path style="opacity:0.902" fill="#ffbe98" d="M 61.5,266.5 C 62.6737,267.514 63.3404,268.847 63.5,270.5C 61.8235,269.817 61.1568,268.483 61.5,266.5 Z"/></g>
<g><path style="opacity:0.016" fill="#ffbe98" d="M 4.5,274.5 C 6.25759,277.854 7.25759,281.521 7.5,285.5C 5.74241,282.146 4.74241,278.479 4.5,274.5 Z"/></g>
<g><path style="opacity:0.333" fill="#ffbe98" d="M 65.5,275.5 C 66.9063,275.973 67.573,276.973 67.5,278.5C 66.0937,278.027 65.427,277.027 65.5,275.5 Z"/></g>
<g><path style="opacity:0.671" fill="#ffbe98" d="M 378.5,272.5 C 378.666,276.846 378.499,281.179 378,285.5C 377.79,287.058 377.29,288.391 376.5,289.5C 376.816,283.651 377.482,277.984 378.5,272.5 Z"/></g>
<g><path style="opacity:0.38" fill="#ffbe98" d="M 70.5,284.5 C 71.9063,284.973 72.573,285.973 72.5,287.5C 71.0937,287.027 70.427,286.027 70.5,284.5 Z"/></g>
<g><path style="opacity:0.784" fill="#ffbe98" d="M 419.5,284.5 C 419.279,287.067 418.612,289.401 417.5,291.5C 417.338,289.473 417.505,287.473 418,285.5C 418.383,284.944 418.883,284.611 419.5,284.5 Z"/></g>
<g><path style="opacity:0.016" fill="#ffbe98" d="M 7.5,285.5 C 8.92381,287.515 9.59047,289.848 9.5,292.5C 8.07619,290.485 7.40953,288.152 7.5,285.5 Z"/></g>
<g><path style="opacity:0.518" fill="#ffbe98" d="M 73.5,289.5 C 74.9063,289.973 75.573,290.973 75.5,292.5C 74.0937,292.027 73.427,291.027 73.5,289.5 Z"/></g>
<g><path style="opacity:0.431" fill="#ffbe98" d="M 75.5,292.5 C 76.9063,292.973 77.573,293.973 77.5,295.5C 76.0937,295.027 75.427,294.027 75.5,292.5 Z"/></g>
<g><path style="opacity:0.259" fill="#ffbe98" d="M 417.5,291.5 C 417.598,293.553 416.931,295.22 415.5,296.5C 415.402,294.447 416.069,292.78 417.5,291.5 Z"/></g>
<g><path style="opacity:0.608" fill="#ffbe98" d="M 77.5,295.5 C 78.9063,295.973 79.573,296.973 79.5,298.5C 78.0937,298.027 77.427,297.027 77.5,295.5 Z"/></g>
<g><path style="opacity:0.698" fill="#ffbe98" d="M 375.5,295.5 C 375.829,298.228 375.163,300.562 373.5,302.5C 373.721,299.933 374.388,297.599 375.5,295.5 Z"/></g>
<g><path style="opacity:0.635" fill="#ffbe98" d="M 79.5,298.5 C 81.2624,299.262 82.2624,300.596 82.5,302.5C 80.7376,301.738 79.7376,300.404 79.5,298.5 Z"/></g>
<g><path style="opacity:0.282" fill="#ffbe98" d="M 414.5,299.5 C 414.598,301.553 413.931,303.22 412.5,304.5C 412.402,302.447 413.069,300.78 414.5,299.5 Z"/></g>
<g><path style="opacity:0.243" fill="#ffbe98" d="M 13.5,303.5 C 14.9313,304.78 15.5979,306.447 15.5,308.5C 14.0687,307.22 13.4021,305.553 13.5,303.5 Z"/></g>
<g><path style="opacity:0.459" fill="#ffbe98" d="M 84.5,304.5 C 85.9063,304.973 86.573,305.973 86.5,307.5C 85.0937,307.027 84.427,306.027 84.5,304.5 Z"/></g>
<g><path style="opacity:0.78" fill="#ffbe98" d="M 86.5,307.5 C 88.914,308.911 90.5806,310.911 91.5,313.5C 89.086,312.089 87.4194,310.089 86.5,307.5 Z"/></g>
<g><path style="opacity:0.239" fill="#ffbe98" d="M 16.5,310.5 C 17.9313,311.78 18.5979,313.447 18.5,315.5C 17.0687,314.22 16.4021,312.553 16.5,310.5 Z"/></g>
<g><path style="opacity:0.82" fill="#ffbe98" d="M 373.5,303.5 C 373.194,309.086 371.527,314.086 368.5,318.5C 369.595,313.216 371.261,308.216 373.5,303.5 Z"/></g>
<g><path style="opacity:0.176" fill="#ffbe98" d="M 407.5,315.5 C 407.539,318.089 406.539,320.089 404.5,321.5C 404.992,319.181 405.992,317.181 407.5,315.5 Z"/></g>
<g><path style="opacity:1" fill="#ffbe98" d="M 95.5,317.5 C 98.5,319.833 101.167,322.5 103.5,325.5C 101.518,325.005 99.5183,324.505 97.5,324C 97.9574,323.586 98.2907,323.086 98.5,322.5C 96.7221,321.274 95.7221,319.607 95.5,317.5 Z"/></g>
<g><path style="opacity:0.58" fill="#ffbe98" d="M 103.5,325.5 C 105.23,326.026 106.564,327.026 107.5,328.5C 105.368,328.446 104.035,327.446 103.5,325.5 Z"/></g>
<g><path style="opacity:0.867" fill="#ffbe98" d="M 366.5,323.5 C 366.834,326.491 365.834,328.824 363.5,330.5C 363.707,327.759 364.707,325.426 366.5,323.5 Z"/></g>
<g><path style="opacity:0.184" fill="#ffbe98" d="M 401.5,327.5 C 401.25,329.674 400.25,331.341 398.5,332.5C 398.75,330.326 399.75,328.659 401.5,327.5 Z"/></g>
<g><path style="opacity:1" fill="#ffbe98" d="M 25.5,329.5 C 27.0858,330.148 28.7525,330.648 30.5,331C 29.9781,331.561 29.6448,332.228 29.5,333C 30.6094,335.047 31.2761,337.213 31.5,339.5C 29.1101,336.434 27.1101,333.1 25.5,329.5 Z"/></g>
<g><path style="opacity:0.059" fill="#ffbe98" d="M 173.5,330.5 C 175.027,330.427 176.027,331.094 176.5,332.5C 174.973,332.573 173.973,331.906 173.5,330.5 Z"/></g>
<g><path style="opacity:1" fill="#ffbe98" d="M 107.5,328.5 C 113.539,333.178 119.539,337.845 125.5,342.5C 124.883,342.611 124.383,342.944 124,343.5C 123.333,342.167 122.333,341.167 121,340.5C 119.732,340.616 118.398,340.949 117,341.5C 116.316,340.216 116.483,339.049 117.5,338C 115.42,337.211 113.586,336.044 112,334.5C 111.055,334.905 110.388,335.572 110,336.5C 109.059,333.846 108.226,331.179 107.5,328.5 Z"/></g>
<g><path style="opacity:0.824" fill="#ffbe98" d="M 178.5,333.5 C 180.23,334.026 181.564,335.026 182.5,336.5C 180.368,336.446 179.035,335.446 178.5,333.5 Z"/></g>
<g><path style="opacity:0.173" fill="#ffbe98" d="M 398.5,332.5 C 398.573,334.027 397.906,335.027 396.5,335.5C 396.427,333.973 397.094,332.973 398.5,332.5 Z"/></g>
<g><path style="opacity:0.094" fill="#ffbe98" d="M 173.5,330.5 C 172.275,331.152 171.608,332.319 171.5,334C 172.303,339.137 172.636,344.303 172.5,349.5C 170.961,342.707 170.461,335.707 171,328.5C 171.995,329.066 172.828,329.733 173.5,330.5 Z"/></g>
<g><path style="opacity:0.012" fill="#ffbe98" d="M 182.5,336.5 C 184.027,336.427 185.027,337.094 185.5,338.5C 183.973,338.573 182.973,337.906 182.5,336.5 Z"/></g>
<g><path style="opacity:0.827" fill="#ffbe98" d="M 31.5,339.5 C 33.4456,340.035 34.4456,341.368 34.5,343.5C 33.0256,342.564 32.0256,341.23 31.5,339.5 Z"/></g>
<g><path style="opacity:1" fill="#ffbe98" d="M 395.5,337.5 C 394.66,339.853 393.326,341.853 391.5,343.5C 391.67,342.178 391.337,341.011 390.5,340C 392.452,339.634 394.118,338.801 395.5,337.5 Z"/></g>
<g><path style="opacity:0.808" fill="#ffbe98" d="M 187.5,339.5 C 188.71,339.932 189.71,340.599 190.5,341.5C 188.821,341.715 187.821,341.048 187.5,339.5 Z"/></g>
<g><path style="opacity:0.153" fill="#ffbe98" d="M 359.5,338.5 C 359.34,340.153 358.674,341.486 357.5,342.5C 357.229,340.62 357.896,339.287 359.5,338.5 Z"/></g>
<g><path style="opacity:0.863" fill="#ffbe98" d="M 190.5,341.5 C 191.71,341.932 192.71,342.599 193.5,343.5C 191.821,343.715 190.821,343.048 190.5,341.5 Z"/></g>
<g><path style="opacity:0.855" fill="#ffbe98" d="M 193.5,343.5 C 195.882,344.351 197.882,345.684 199.5,347.5C 198.883,347.611 198.383,347.944 198,348.5C 196.287,346.924 194.787,345.257 193.5,343.5 Z"/></g>
<g><path style="opacity:0.035" fill="#ffbe98" d="M 390.5,344.5 C 390.573,346.027 389.906,347.027 388.5,347.5C 388.427,345.973 389.094,344.973 390.5,344.5 Z"/></g>
<g><path style="opacity:0.918" fill="#ffbe98" d="M 357.5,342.5 C 357.408,344.848 356.408,346.514 354.5,347.5C 354.75,345.326 355.75,343.659 357.5,342.5 Z"/></g>
<g><path style="opacity:0.027" fill="#ffbe98" d="M 388.5,347.5 C 388.573,349.027 387.906,350.027 386.5,350.5C 386.427,348.973 387.094,347.973 388.5,347.5 Z"/></g>
<g><path style="opacity:0.851" fill="#ffbe98" d="M 201.5,348.5 C 203.23,349.026 204.564,350.026 205.5,351.5C 203.368,351.446 202.035,350.446 201.5,348.5 Z"/></g>
<g><path style="opacity:0.251" fill="#ffbe98" d="M 354.5,347.5 C 354.573,349.027 353.906,350.027 352.5,350.5C 352.427,348.973 353.094,347.973 354.5,347.5 Z"/></g>
<g><path style="opacity:0.549" fill="#ffbe98" d="M 38.5,349.5 C 40.4456,350.035 41.4456,351.368 41.5,353.5C 40.0256,352.564 39.0256,351.23 38.5,349.5 Z"/></g>
<g><path style="opacity:0.796" fill="#ffbe98" d="M 206.5,351.5 C 208.23,352.026 209.564,353.026 210.5,354.5C 208.368,354.446 207.035,353.446 206.5,351.5 Z"/></g>
<g><path style="opacity:0.204" fill="#ffbe98" d="M 352.5,350.5 C 352.573,352.027 351.906,353.027 350.5,353.5C 350.427,351.973 351.094,350.973 352.5,350.5 Z"/></g>
<g><path style="opacity:0.004" fill="#ffbe98" d="M 385.5,351.5 C 385.573,353.027 384.906,354.027 383.5,354.5C 383.427,352.973 384.094,351.973 385.5,351.5 Z"/></g>
<g><path style="opacity:0.02" fill="#ffbe98" d="M 43.5,355.5 C 44.9063,355.973 45.573,356.973 45.5,358.5C 44.0937,358.027 43.427,357.027 43.5,355.5 Z"/></g>
<g><path style="opacity:0.278" fill="#ffbe98" d="M 152.5,356.5 C 154.553,356.402 156.22,357.069 157.5,358.5C 155.447,358.598 153.78,357.931 152.5,356.5 Z"/></g>
<g><path style="opacity:0.486" fill="#ffbe98" d="M 349.5,355.5 C 349.262,357.404 348.262,358.738 346.5,359.5C 346.738,357.596 347.738,356.262 349.5,355.5 Z"/></g>
<g><path style="opacity:0.012" fill="#ffbe98" d="M 381.5,356.5 C 381.573,358.027 380.906,359.027 379.5,359.5C 379.427,357.973 380.094,356.973 381.5,356.5 Z"/></g>
<g><path style="opacity:0.114" fill="#ffbe98" d="M 212.5,355.5 C 214.882,356.351 216.882,357.684 218.5,359.5C 215.733,359.13 213.733,357.796 212.5,355.5 Z"/></g>
<g><path style="opacity:0.839" fill="#ffbe98" d="M 160.5,359.5 C 162.786,359.595 164.786,360.262 166.5,361.5C 163.99,361.946 161.99,361.28 160.5,359.5 Z"/></g>
<g><path style="opacity:0.424" fill="#ffbe98" d="M 172.5,350.5 C 174.177,354.545 174.844,358.878 174.5,363.5C 172.901,363.768 171.568,363.434 170.5,362.5C 171.5,362.5 172.5,362.5 173.5,362.5C 172.838,358.534 172.505,354.534 172.5,350.5 Z"/></g>
<g><path style="opacity:0.827" fill="#ffbe98" d="M 220.5,360.5 C 222.23,361.026 223.564,362.026 224.5,363.5C 222.368,363.446 221.035,362.446 220.5,360.5 Z"/></g>
<g><path style="opacity:0.373" fill="#ffbe98" d="M 346.5,359.5 C 346.573,361.027 345.906,362.027 344.5,362.5C 344.427,360.973 345.094,359.973 346.5,359.5 Z"/></g>
<g><path style="opacity:1" fill="#ffbe98" d="M 45.5,358.5 C 48.9072,360.286 52.4072,361.953 56,363.5C 56.3333,363.167 56.6667,362.833 57,362.5C 56.4475,364.944 57.2808,367.111 59.5,369C 58.5868,370.414 58.5868,371.914 59.5,373.5C 54.1275,369.129 49.4608,364.129 45.5,358.5 Z"/></g>
<g><path style="opacity:0.714" fill="#ffbe98" d="M 344.5,362.5 C 343.92,364.749 342.587,366.415 340.5,367.5C 341.08,365.251 342.413,363.585 344.5,362.5 Z"/></g>
<g><path style="opacity:0.776" fill="#ffbe98" d="M 231.5,367.5 C 233.23,368.026 234.564,369.026 235.5,370.5C 233.368,370.446 232.035,369.446 231.5,367.5 Z"/></g>
<g><path style="opacity:0.024" fill="#ffbe98" d="M 372.5,366.5 C 371.581,369.089 369.914,371.089 367.5,372.5C 368.419,369.911 370.086,367.911 372.5,366.5 Z"/></g>
<g><path style="opacity:0.608" fill="#ffbe98" d="M 340.5,367.5 C 339.92,369.749 338.587,371.415 336.5,372.5C 337.08,370.251 338.413,368.585 340.5,367.5 Z"/></g>
<g><path style="opacity:1" fill="#ffbe98" d="M 367.5,372.5 C 366.415,374.587 364.749,375.92 362.5,376.5C 363.185,374.586 363.685,372.586 364,370.5C 364.816,371.823 365.983,372.489 367.5,372.5 Z"/></g>
<g><path style="opacity:0.882" fill="#ffbe98" d="M 237.5,371.5 C 239.368,372.263 241.035,373.263 242.5,374.5C 239.966,374.741 238.3,373.741 237.5,371.5 Z"/></g>
<g><path style="opacity:0.835" fill="#ffbe98" d="M 242.5,374.5 C 244.368,375.263 246.035,376.263 247.5,377.5C 244.966,377.741 243.3,376.741 242.5,374.5 Z"/></g>
<g><path style="opacity:0.765" fill="#ffbe98" d="M 336.5,372.5 C 335.5,375.5 333.5,377.5 330.5,378.5C 332.167,376.167 334.167,374.167 336.5,372.5 Z"/></g>
<g><path style="opacity:0.702" fill="#ffbe98" d="M 65.5,379.5 C 67.7488,380.08 69.4154,381.413 70.5,383.5C 68.2512,382.92 66.5846,381.587 65.5,379.5 Z"/></g>
<g><path style="opacity:0.957" fill="#ffbe98" d="M 361.5,377.5 C 360.167,379.5 358.5,381.167 356.5,382.5C 355.833,378.5 357.5,376.833 361.5,377.5 Z"/></g>
<g><path style="opacity:0.963" fill="#ffbe98" d="M 247.5,377.5 C 250.709,379.265 253.709,381.265 256.5,383.5C 254.194,383.007 251.861,382.674 249.5,382.5C 249.169,380.678 248.502,379.011 247.5,377.5 Z"/></g>
<g><path style="opacity:0.745" fill="#ffbe98" d="M 330.5,378.5 C 329.5,381.5 327.5,383.5 324.5,384.5C 326.167,382.167 328.167,380.167 330.5,378.5 Z"/></g>
<g><path style="opacity:0.694" fill="#ffbe98" d="M 72.5,385.5 C 74.4044,385.738 75.7377,386.738 76.5,388.5C 74.5956,388.262 73.2623,387.262 72.5,385.5 Z"/></g>
<g><path style="opacity:0.012" fill="#ffbe98" d="M 258.5,384.5 C 261.854,385.123 262.854,386.79 261.5,389.5C 260.759,387.646 259.759,385.979 258.5,384.5 Z"/></g>
<g><path style="opacity:0.455" fill="#ffbe98" d="M 322.5,386.5 C 321.415,388.587 319.749,389.92 317.5,390.5C 318.585,388.413 320.251,387.08 322.5,386.5 Z"/></g>
<g><path style="opacity:0.816" fill="#ffbe98" d="M 76.5,388.5 C 78.4044,388.738 79.7377,389.738 80.5,391.5C 78.5956,391.262 77.2623,390.262 76.5,388.5 Z"/></g>
<g><path style="opacity:1" fill="#ffbe98" d="M 345.5,390.5 C 344.738,392.262 343.404,393.262 341.5,393.5C 341.423,392.25 340.756,391.417 339.5,391C 340,390.5 340.5,390 341,389.5C 342.356,390.38 343.856,390.714 345.5,390.5 Z"/></g>
<g><path style="opacity:0.792" fill="#ffbe98" d="M 80.5,391.5 C 82.4044,391.738 83.7377,392.738 84.5,394.5C 82.5956,394.262 81.2623,393.262 80.5,391.5 Z"/></g>
<g><path style="opacity:0.494" fill="#ffbe98" d="M 316.5,391.5 C 315.738,393.262 314.404,394.262 312.5,394.5C 313.262,392.738 314.596,391.738 316.5,391.5 Z"/></g>
<g><path style="opacity:0.78" fill="#ffbe98" d="M 84.5,394.5 C 86.4044,394.738 87.7377,395.738 88.5,397.5C 86.5956,397.262 85.2623,396.262 84.5,394.5 Z"/></g>
<g><path style="opacity:0.02" fill="#ffbe98" d="M 341.5,393.5 C 341.027,394.906 340.027,395.573 338.5,395.5C 338.973,394.094 339.973,393.427 341.5,393.5 Z"/></g>
<g><path style="opacity:0.004" fill="#ffbe98" d="M 259.5,391.5 C 258.089,393.914 256.089,395.581 253.5,396.5C 254.911,394.086 256.911,392.419 259.5,391.5 Z"/></g>
<g><path style="opacity:0.78" fill="#ffbe98" d="M 312.5,394.5 C 311.415,396.587 309.749,397.92 307.5,398.5C 308.585,396.413 310.251,395.08 312.5,394.5 Z"/></g>
<g><path style="opacity:0.447" fill="#ffbe98" d="M 88.5,397.5 C 90.0269,397.427 91.0269,398.094 91.5,399.5C 89.9731,399.573 88.9731,398.906 88.5,397.5 Z"/></g>
<g><path style="opacity:1" fill="#ffbe98" d="M 332.5,399.5 C 331.101,400.89 329.434,401.89 327.5,402.5C 326.708,401.033 326.708,399.7 327.5,398.5C 329.071,399.309 330.738,399.643 332.5,399.5 Z"/></g>
<g><path style="opacity:0.016" fill="#ffbe98" d="M 335.5,397.5 C 335.027,398.906 334.027,399.573 332.5,399.5C 332.973,398.094 333.973,397.427 335.5,397.5 Z"/></g>
<g><path style="opacity:0.647" fill="#ffbe98" d="M 307.5,398.5 C 307.027,399.906 306.027,400.573 304.5,400.5C 304.973,399.094 305.973,398.427 307.5,398.5 Z"/></g>
<g><path style="opacity:0.424" fill="#ffbe98" d="M 91.5,399.5 C 93.0269,399.427 94.0269,400.094 94.5,401.5C 92.9731,401.573 91.9731,400.906 91.5,399.5 Z"/></g>
<g><path style="opacity:0.675" fill="#ffbe98" d="M 304.5,400.5 C 304.027,401.906 303.027,402.573 301.5,402.5C 301.973,401.094 302.973,400.427 304.5,400.5 Z"/></g>
<g><path style="opacity:0.365" fill="#ffbe98" d="M 94.5,401.5 C 96.0269,401.427 97.0269,402.094 97.5,403.5C 95.9731,403.573 94.9731,402.906 94.5,401.5 Z"/></g>
<g><path style="opacity:0.827" fill="#ffbe98" d="M 327.5,402.5 C 326.101,403.89 324.434,404.89 322.5,405.5C 323.344,403.241 325.011,402.241 327.5,402.5 Z"/></g>
<g><path style="opacity:0.718" fill="#ffbe98" d="M 301.5,402.5 C 301.027,403.906 300.027,404.573 298.5,404.5C 298.973,403.094 299.973,402.427 301.5,402.5 Z"/></g>
<g><path style="opacity:0.365" fill="#ffbe98" d="M 99.5,404.5 C 101.027,404.427 102.027,405.094 102.5,406.5C 100.973,406.573 99.9731,405.906 99.5,404.5 Z"/></g>
<g><path style="opacity:1" fill="#ffbe98" d="M 116.5,413.5 C 112.849,412.341 109.515,410.674 106.5,408.5C 108.144,408.286 109.644,408.62 111,409.5C 111.617,408.551 111.451,407.718 110.5,407C 111.333,406.167 112.167,405.333 113,404.5C 113.617,405.449 113.451,406.282 112.5,407C 113.88,408.324 114.214,409.657 113.5,411C 115.119,411.236 116.119,412.069 116.5,413.5 Z"/></g>
<g><path style="opacity:0.027" fill="#ffbe98" d="M 245.5,404.5 C 244.738,406.262 243.404,407.262 241.5,407.5C 241.5,407.167 241.5,406.833 241.5,406.5C 242.605,405.4 243.938,404.733 245.5,404.5 Z"/></g>
<g><path style="opacity:0.588" fill="#ffbe98" d="M 294.5,406.5 C 294.027,407.906 293.027,408.573 291.5,408.5C 291.973,407.094 292.973,406.427 294.5,406.5 Z"/></g>
<g><path style="opacity:1" fill="#ffbe98" d="M 241.5,406.5 C 241.5,406.833 241.5,407.167 241.5,407.5C 239.5,410.167 237.167,412.5 234.5,414.5C 234.338,412.473 234.505,410.473 235,408.5C 236.716,409.552 237.716,408.886 238,406.5C 238.333,407.167 238.667,407.833 239,408.5C 239.333,406.833 239.667,405.167 240,403.5C 240.232,404.737 240.732,405.737 241.5,406.5 Z"/></g>
<g><path style="opacity:0.62" fill="#ffbe98" d="M 281.5,413.5 C 280.486,414.674 279.153,415.34 277.5,415.5C 278.287,413.896 279.62,413.229 281.5,413.5 Z"/></g>
<g><path style="opacity:0.824" fill="#ffbe98" d="M 120.5,415.5 C 122.698,415.12 124.365,415.787 125.5,417.5C 123.597,417.204 121.93,416.537 120.5,415.5 Z"/></g>
<g><path style="opacity:0.012" fill="#ffbe98" d="M 234.5,414.5 C 234.027,415.906 233.027,416.573 231.5,416.5C 231.973,415.094 232.973,414.427 234.5,414.5 Z"/></g>
<g><path style="opacity:0.78" fill="#ffbe98" d="M 125.5,417.5 C 127.698,417.12 129.365,417.787 130.5,419.5C 128.597,419.204 126.93,418.537 125.5,417.5 Z"/></g>
<g><path style="opacity:0.169" fill="#ffbe98" d="M 276.5,415.5 C 274.68,417.448 272.346,418.448 269.5,418.5C 271.509,416.935 273.843,415.935 276.5,415.5 Z"/></g>
<g><path style="opacity:0.078" fill="#ffbe98" d="M 298.5,416.5 C 293.784,418.739 288.784,420.405 283.5,421.5C 288.085,418.86 293.085,417.194 298.5,416.5 Z"/></g>
<g><path style="opacity:0.847" fill="#ffbe98" d="M 269.5,418.5 C 268.01,420.28 266.01,420.946 263.5,420.5C 265.214,419.262 267.214,418.595 269.5,418.5 Z"/></g>
<g><path style="opacity:0.851" fill="#ffbe98" d="M 136.5,421.5 C 139.01,421.054 141.01,421.72 142.5,423.5C 140.214,423.405 138.214,422.738 136.5,421.5 Z"/></g>
<g><path style="opacity:0.982" fill="#ffbe98" d="M 226.5,421.5 C 225.089,423.914 223.089,425.581 220.5,426.5C 221.942,425.18 222.608,423.514 222.5,421.5C 223.833,421.5 225.167,421.5 226.5,421.5 Z"/></g>
<g><path style="opacity:0.161" fill="#ffbe98" d="M 263.5,420.5 C 261.31,421.374 260.31,423.041 260.5,425.5C 258.727,422.324 259.727,420.657 263.5,420.5 Z"/></g>
<g><path style="opacity:0.714" fill="#ffbe98" d="M 142.5,423.5 C 145.228,423.171 147.562,423.837 149.5,425.5C 146.933,425.279 144.599,424.612 142.5,423.5 Z"/></g>
<g><path style="opacity:0.078" fill="#ffbe98" d="M 277.5,423.5 C 274.781,424.913 271.781,425.58 268.5,425.5C 271.219,424.087 274.219,423.42 277.5,423.5 Z"/></g>
<g><path style="opacity:0.702" fill="#ffbe98" d="M 150.5,425.5 C 153.781,425.42 156.781,426.087 159.5,427.5C 156.219,427.58 153.219,426.913 150.5,425.5 Z"/></g>
<g><path style="opacity:0.075" fill="#ffbe98" d="M 177.5,430.5 C 178.5,430.5 179.5,430.5 180.5,430.5C 180.5,433.167 180.5,435.833 180.5,438.5C 179.935,435.695 178.935,433.028 177.5,430.5 Z"/></g>
<g><path style="opacity:1" fill="#ffbe98" d="M 211.5,435.5 C 209.5,438.167 207.167,440.5 204.5,442.5C 204.167,442.5 203.833,442.5 203.5,442.5C 203.36,440.876 204.027,439.71 205.5,439C 204.833,438.667 204.167,438.333 203.5,438C 205.167,437.667 206.833,437.333 208.5,437C 206.385,436.576 205.552,435.409 206,433.5C 207.444,435.155 209.278,435.822 211.5,435.5 Z"/></g>
<g><path style="opacity:0.004" fill="#ffbe98" d="M 203.5,442.5 C 203.833,442.5 204.167,442.5 204.5,442.5C 204.027,443.906 203.027,444.573 201.5,444.5C 201.833,443.5 202.5,442.833 203.5,442.5 Z"/></g>
<g><path style="opacity:1" fill="#ffbe98" d="M 194.5,451.5 C 192.167,454.5 189.5,457.167 186.5,459.5C 186.67,458.178 186.337,457.011 185.5,456C 186.449,455.383 187.282,455.549 188,456.5C 188.333,455.5 188.667,454.5 189,453.5C 190.553,451.327 192.386,450.66 194.5,451.5 Z"/></g>
<g><path style="opacity:0.871" fill="#ffbe98" d="M 181.5,450.5 C 182.477,453.287 182.81,456.287 182.5,459.5C 183.833,459.5 185.167,459.5 186.5,459.5C 185.833,460.5 185.167,461.5 184.5,462.5C 183.833,462.5 183.167,462.5 182.5,462.5C 181.64,458.566 181.307,454.566 181.5,450.5 Z"/></g>
</svg>
