<?xml version="1.0" encoding="iso-8859-1"?>
<!-- Generator: Adobe Illustrator 19.0.0, SVG Export Plug-In . SVG Version: 6.00 Build 0)  -->
<!-- License: CC0. Made by SVG Repo: https://www.svgrepo.com/svg/210071/baseball-field-baseball -->
<svg version="1.1" id="Layer_1" xmlns="http://www.w3.org/2000/svg" xmlns:xlink="http://www.w3.org/1999/xlink" x="0px" y="0px"
	 viewBox="0 0 448.125 448.125" style="enable-background:new 0 0 448.125 448.125;" xml:space="preserve">
<g transform="translate(0 -1020.36)" shape-rendering="auto" image-rendering="auto" color-rendering="auto" color-interpolation="sRGB">
	<path style="fill:#BB2649;" d="M224.109,1020.36c-51.375,0-104.961,18.027-145.844,50.219
		c-37.233,29.316-61.724,68.332-77.844,120.094c-0.785,2.639-0.16,5.494,1.656,7.563l109.188,124.438l12.625-10.813l14.875,17.377
		l-12.406,10.623l17,19.406l19.25-16.469l14.875,17.344l-19.031,16.313l21.719,24.75c-2.605,5.889-4.125,12.355-4.125,19.188
		c0,26.418,21.648,48.094,48.063,48.094s47.969-21.678,47.969-48.094c0-6.807-1.486-13.25-4.063-19.125l21.812-24.875l-18.937-16.25
		l14.875-17.344l19.156,16.377l17-19.406l-12.312-10.531l14.875-17.377l12.531,10.721l109.031-124.344
		c1.816-2.068,2.442-4.924,1.656-7.563c-15.25-51.344-40.622-90.785-77.844-120.094c-40.883-32.192-94.374-50.219-145.75-50.219
		L224.109,1020.36z"/>
	<g>
		<path style="fill:#ceef9d;" d="M224.097,1260.374c8.931,0,15.969,7.131,15.969,16.063c0,8.932-7.037,15.938-15.969,15.938
			c-8.931,0-16.062-7.006-16.062-15.938C208.034,1267.505,215.165,1260.374,224.097,1260.374z"/>
	</g>
	<g>
		<path style="fill:#ceef9d;" d="M224.112,1399.137c-11.817,0-21.283,9.465-21.283,21.281c0,11.818,9.465,21.283,21.283,21.283
			s21.283-9.465,21.283-21.283C245.395,1408.602,235.929,1399.137,224.112,1399.137z"/>
		<path style="fill:#ceef9d;" d="M224.05,1266.09c-5.709,0-10.283,4.572-10.283,10.283c0,5.709,4.574,10.283,10.283,10.283
			c5.709,0,10.283-4.57,10.283-10.283C234.333,1270.665,229.759,1266.09,224.05,1266.09L224.05,1266.09z"/>
	</g>
	<path style="fill:#ceef9d;" d="M224.09,1053.436c40.888,0,84.197,14.514,116.644,40.063c28.782,22.666,47.813,53.402,60.348,93.516
		l-63.997,72.986l-108.514-94.988c-1.401-1.207-3.229-1.799-5.072-1.641c-1.465,0.107-2.857,0.684-3.971,1.641l-108.514,94.988
		l-63.997-72.986c13.216-40.563,31.61-70.887,60.348-93.516C139.811,1067.95,183.202,1053.436,224.09,1053.436L224.09,1053.436z"/>
</g>
</svg>
