<?xml version="1.0" encoding="iso-8859-1"?>
<!-- Generator: Adobe Illustrator 19.0.0, SVG Export Plug-In . SVG Version: 6.00 Build 0)  -->
<!-- License: CC0. Made by SVG Repo: https://www.svgrepo.com/svg/210071/baseball-field-baseball -->
<svg version="1.1" id="Layer_1" xmlns="http://www.w3.org/2000/svg" xmlns:xlink="http://www.w3.org/1999/xlink" x="0px" y="0px"
	 viewBox="0 0 448.125 448.125" style="enable-background:new 0 0 448.125 448.125;" xml:space="preserve">
<g transform="translate(0 -1020.36)" shape-rendering="auto" image-rendering="auto" color-rendering="auto" color-interpolation="sRGB">
	<path style="fill:#ffbe98;" d="M224.109,1020.36c-51.375,0-104.961,18.027-145.844,50.219
		c-37.233,29.316-61.724,68.332-77.844,120.094c-0.785,2.639-0.16,5.494,1.656,7.563l109.188,124.438l12.625-10.813l14.875,17.377
		l-12.406,10.623l17,19.406l19.25-16.469l14.875,17.344l-19.031,16.313l21.719,24.75c-2.605,5.889-4.125,12.355-4.125,19.188
		c0,26.418,21.648,48.094,48.063,48.094s47.969-21.678,47.969-48.094c0-6.807-1.486-13.25-4.063-19.125l21.812-24.875l-18.937-16.25
		l14.875-17.344l19.156,16.377l17-19.406l-12.312-10.531l14.875-17.377l12.531,10.721l109.031-124.344
		c1.816-2.068,2.442-4.924,1.656-7.563c-15.25-51.344-40.622-90.785-77.844-120.094c-40.883-32.192-94.374-50.219-145.75-50.219
		L224.109,1020.36z"/>
	<path style="fill:#ceef9d;" d="M224.097,1183.03l121.063,105.998l-86.344,98.502c-8.749-9.23-21.048-15.064-34.719-15.064
		c-13.677,0-26.001,5.83-34.781,15.064l-86.375-98.502L224.097,1183.03z"/>
	<path style="fill:#507b5c;" d="M224.097,1036.435c47.618,0,98.056,16.903,135.844,46.655
		c33.519,26.396,55.683,62.189,70.281,108.906l-74.531,85l-126.375-110.623c-1.632-1.404-3.761-2.092-5.906-1.906
		c-1.706,0.125-3.327,0.793-4.625,1.906L92.409,1276.997l-74.531-85c15.391-47.24,36.813-82.553,70.281-108.906
		C125.946,1053.337,176.479,1036.434,224.097,1036.435L224.097,1036.435z"/>
	<path style="fill:#507b5c;" d="M224.088,1201.415l99.295,86.941l-70.819,80.791c-7.176-7.57-17.264-12.354-28.476-12.354
		c-11.217,0-21.326,4.783-28.528,12.354l-70.844-80.791L224.088,1201.415z"/>
	<path style="fill:#507b5c;" d="M224.097,1244.436c-17.578,0-32,14.424-32,32c0,17.578,14.422,32,32,32
		c17.578,0,32.031-14.42,32.031-32C256.128,1258.856,241.675,1244.436,224.097,1244.436L224.097,1244.436z"/>
	<g>
		<path style="fill:#ceef9d;" d="M224.097,1260.374c8.931,0,15.969,7.131,15.969,16.063c0,8.932-7.037,15.938-15.969,15.938
			c-8.931,0-16.062-7.006-16.062-15.938C208.034,1267.505,215.165,1260.374,224.097,1260.374z"/>
		<path style="fill:#ceef9d;" d="M224.097,1388.403c17.768,0,32.031,14.232,32.031,32s-14.263,32.031-32.031,32.031
			s-32-14.264-32-32.031S206.329,1388.403,224.097,1388.403L224.097,1388.403z"/>
	</g>
	<g>
		<path style="fill:#ceef9d;" d="M224.112,1399.137c-11.817,0-21.283,9.465-21.283,21.281c0,11.818,9.465,21.283,21.283,21.283
			s21.283-9.465,21.283-21.283C245.395,1408.602,235.929,1399.137,224.112,1399.137z"/>
		<path style="fill:#ceef9d;" d="M224.05,1266.09c-5.709,0-10.283,4.572-10.283,10.283c0,5.709,4.574,10.283,10.283,10.283
			c5.709,0,10.283-4.57,10.283-10.283C234.333,1270.665,229.759,1266.09,224.05,1266.09L224.05,1266.09z"/>
	</g>
	<path style="fill:#ceef9d;" d="M224.09,1053.436c40.888,0,84.197,14.514,116.644,40.063c28.782,22.666,47.813,53.402,60.348,93.516
		l-63.997,72.986l-108.514-94.988c-1.401-1.207-3.229-1.799-5.072-1.641c-1.465,0.107-2.857,0.684-3.971,1.641l-108.514,94.988
		l-63.997-72.986c13.216-40.563,31.61-70.887,60.348-93.516C139.811,1067.95,183.202,1053.436,224.09,1053.436L224.09,1053.436z"/>
</g>
</svg>
