<?xml version="1.0" encoding="UTF-8"?>
<!DOCTYPE svg PUBLIC "-//W3C//DTD SVG 1.1//EN" "http://www.w3.org/Graphics/SVG/1.1/DTD/svg11.dtd">
<svg xmlns="http://www.w3.org/2000/svg" version="1.1" width="500px" height="80px" style="shape-rendering:geometricPrecision; text-rendering:geometricPrecision; image-rendering:optimizeQuality; fill-rule:evenodd; clip-rule:evenodd" xmlns:xlink="http://www.w3.org/1999/xlink">
<g><path style="opacity:1" fill="#e3c7b5" d="M 12.5,1.5 C 8.29531,1.19057 4.29531,1.85724 0.5,3.5C 0.414228,2.5041 0.747561,1.67076 1.5,1C 5.35754,0.190067 9.02421,0.356734 12.5,1.5 Z"/></g>
<g><path style="opacity:1" fill="#BB2649" d="M 12.5,1.5 C 12.8333,1.5 13.1667,1.5 13.5,1.5C 18.193,3.35981 23.193,4.02648 28.5,3.5C 35.0221,3.1765 41.3554,3.50984 47.5,4.5C 54.7326,5.32212 62.0659,6.32212 69.5,7.5C 69.5,6.5 69.5,5.5 69.5,4.5C 72.1667,4.5 74.8333,4.5 77.5,4.5C 82.8333,4.5 88.1667,4.5 93.5,4.5C 101.792,5.40712 110.125,5.74045 118.5,5.5C 124.136,4.20992 129.802,4.20992 135.5,5.5C 137.631,6.31382 139.964,6.81382 142.5,7C 154.497,7.64273 166.497,8.14273 178.5,8.5C 186.541,7.70809 194.541,8.04143 202.5,9.5C 209.648,10.4916 216.981,10.825 224.5,10.5C 224.833,10.5 225.167,10.5 225.5,10.5C 246.149,11.4148 266.816,11.7481 287.5,11.5C 293.645,12.4902 299.978,12.8235 306.5,12.5C 305.77,13.7124 304.77,14.7124 303.5,15.5C 305.174,16.8801 306.84,18.2134 308.5,19.5C 309.167,19.3333 309.833,19.1667 310.5,19C 309.167,18.3333 309.167,17.6667 310.5,17C 315.156,14.996 318.989,15.496 322,18.5C 322.374,17.5838 322.874,16.7504 323.5,16C 326.833,15.6667 330.167,15.3333 333.5,15C 345.69,15.0792 358.023,14.9126 370.5,14.5C 371.167,14.5 371.833,14.5 372.5,14.5C 385.837,14.3334 399.171,14.5001 412.5,15C 409.401,15.9009 406.401,16.2342 403.5,16C 406.225,17.1074 409.059,17.9408 412,18.5C 413.808,18.1119 415.475,18.1119 417,18.5C 418.791,16.4873 420.125,16.4873 421,18.5C 421.915,17.6721 422.581,16.6721 423,15.5C 426.245,17.6444 426.078,19.6444 422.5,21.5C 417.454,22.1244 411.954,22.1244 406,21.5C 401.597,23.519 397.097,24.8524 392.5,25.5C 389.448,25.5122 386.448,25.1789 383.5,24.5C 375.065,24.6725 366.398,24.3392 357.5,23.5C 354.686,25.1046 351.686,26.1046 348.5,26.5C 344.009,24.9718 339.676,25.3052 335.5,27.5C 332.686,26.8353 329.686,26.502 326.5,26.5C 320.932,26.4292 315.599,27.0959 310.5,28.5C 307.763,28.5987 305.096,28.2653 302.5,27.5C 299.219,27.4203 296.219,28.087 293.5,29.5C 287.884,29.4759 282.218,29.1426 276.5,28.5C 270.396,27.5254 264.563,27.5254 259,28.5C 248.452,24.4043 237.952,24.9043 227.5,30C 231.943,31.9403 236.61,32.9403 241.5,33C 242.227,34.3988 242.727,35.8988 243,37.5C 243.273,35.6711 244.107,34.1711 245.5,33C 251.386,32.307 256.886,32.807 262,34.5C 262.308,33.6919 262.808,33.0253 263.5,32.5C 266.102,33.0381 268.768,33.0381 271.5,32.5C 275.566,33.822 279.733,33.822 284,32.5C 285.16,34.797 286.16,34.4637 287,31.5C 287.075,33.935 287.908,34.6016 289.5,33.5C 294.011,33.1085 298.345,33.7752 302.5,35.5C 304.16,34.8284 305.493,33.8284 306.5,32.5C 308.268,33.7621 309.935,34.7621 311.5,35.5C 312.738,31.6893 313.404,31.6893 313.5,35.5C 317.5,35.5 321.5,35.5 325.5,35.5C 325.833,35.5 326.167,35.5 326.5,35.5C 334.332,36.4284 341.999,36.4284 349.5,35.5C 349.833,35.5 350.167,35.5 350.5,35.5C 352.05,36.7199 353.716,36.7199 355.5,35.5C 362.5,36.8333 369.5,36.8333 376.5,35.5C 376.833,35.5 377.167,35.5 377.5,35.5C 378.209,36.404 379.209,36.7373 380.5,36.5C 380.5,37.5 380.5,38.5 380.5,39.5C 376.398,39.956 372.565,39.2894 369,37.5C 366.97,37.9537 365.137,38.6204 363.5,39.5C 361.167,39.5 358.833,39.5 356.5,39.5C 356.167,39.5 355.833,39.5 355.5,39.5C 350.7,39.3497 346.033,40.0164 341.5,41.5C 341.5,40.8333 341.167,40.5 340.5,40.5C 338.156,41.6716 335.823,41.6716 333.5,40.5C 330.283,43.0442 327.116,43.0442 324,40.5C 322.301,41.4061 320.467,41.7394 318.5,41.5C 314.098,41.7719 309.765,41.4386 305.5,40.5C 300.785,41.0571 296.785,41.7238 293.5,42.5C 293.5,42.8333 293.5,43.1667 293.5,43.5C 293.343,44.8734 293.51,46.2068 294,47.5C 296.281,46.2879 298.781,46.4546 301.5,48C 300.5,48.3333 299.5,48.6667 298.5,49C 299.15,50.6092 298.65,52.1092 297,53.5C 296.333,52.8333 295.667,52.1667 295,51.5C 290.795,52.7258 286.629,54.0591 282.5,55.5C 276.664,54.9992 270.664,54.6658 264.5,54.5C 263.456,56.4521 262.456,58.4521 261.5,60.5C 259.483,61.5303 257.483,62.5303 255.5,63.5C 252.729,62.2266 251.062,63.2266 250.5,66.5C 250.818,67.6473 251.484,68.4806 252.5,69C 252.167,69.3333 251.833,69.6667 251.5,70C 254.901,69.734 256.567,71.234 256.5,74.5C 250.833,74.5 245.167,74.5 239.5,74.5C 238.375,72.1795 238.208,69.8462 239,67.5C 236.943,66.0418 234.777,65.2085 232.5,65C 233.5,64.6667 234.5,64.3333 235.5,64C 235.579,62.0932 235.246,60.0932 234.5,58C 232.555,57.9647 230.555,58.1314 228.5,58.5C 227.48,60.4325 227.313,62.4325 228,64.5C 228.654,63.3044 229.154,63.3044 229.5,64.5C 229,65.5 228.5,66.5 228,67.5C 226.768,64.2452 224.768,63.9119 222,66.5C 221.833,66.1667 221.667,65.8333 221.5,65.5C 223.287,64.684 224.954,63.684 226.5,62.5C 224.988,61.9117 223.655,61.5784 222.5,61.5C 222.587,58.4017 222.087,58.0684 221,60.5C 219.667,59.1667 218.333,59.1667 217,60.5C 216.292,59.6195 215.458,58.9528 214.5,58.5C 214.167,58.5 213.833,58.5 213.5,58.5C 212.348,57.375 211.348,57.375 210.5,58.5C 210.167,58.5 209.833,58.5 209.5,58.5C 208.504,58.5858 207.671,58.2524 207,57.5C 206.536,58.0944 206.369,58.7611 206.5,59.5C 205.508,59.3284 204.842,59.6618 204.5,60.5C 204.071,59.0473 203.904,57.3806 204,55.5C 203,57.1667 202,58.8333 201,60.5C 200.617,59.944 200.117,59.6107 199.5,59.5C 198.356,58.8174 198.356,59.1507 199.5,60.5C 200.545,61.8776 201.878,62.8776 203.5,63.5C 203.631,64.2389 203.464,64.9056 203,65.5C 201.507,63.6524 199.674,62.8191 197.5,63C 199.017,64.6851 200.684,66.1851 202.5,67.5C 203.799,66.91 204.632,65.91 205,64.5C 205.852,65.5707 206.685,66.5707 207.5,67.5C 207.833,67.5 208.167,67.5 208.5,67.5C 212.349,65.5193 216.349,65.186 220.5,66.5C 220.833,67.1667 221.167,67.8333 221.5,68.5C 218.973,69.2136 216.473,69.8803 214,70.5C 210.899,69.6522 208.399,70.6522 206.5,73.5C 204.379,73.3253 202.379,73.6586 200.5,74.5C 198.052,73.5269 195.385,73.1936 192.5,73.5C 190.347,74.5729 188.347,74.5729 186.5,73.5C 185.122,72.7656 183.622,72.0989 182,71.5C 180.333,72.8333 178.667,72.8333 177,71.5C 176.005,72.0659 175.172,72.7326 174.5,73.5C 174.565,73.9382 174.399,74.2716 174,74.5C 173.184,73.1772 172.017,72.5106 170.5,72.5C 169.417,72.4606 168.417,72.1272 167.5,71.5C 166.702,71.9569 166.369,72.6236 166.5,73.5C 166.167,73.5 165.833,73.5 165.5,73.5C 164.298,72.5946 162.964,72.5946 161.5,73.5C 160.508,71.9735 159.008,71.3068 157,71.5C 154.966,71.3536 153.299,72.0203 152,73.5C 150.4,71.4533 148.567,71.4533 146.5,73.5C 145.58,72.9326 145.246,73.5992 145.5,75.5C 143.521,73.8325 141.188,73.1658 138.5,73.5C 137.833,73.5 137.167,73.5 136.5,73.5C 131.931,73.2811 126.597,72.9478 120.5,72.5C 119.5,72.8333 118.5,73.1667 117.5,73.5C 118.894,74.6869 118.727,75.3535 117,75.5C 115.989,74.9444 115.156,74.2778 114.5,73.5C 113.833,73.5 113.5,73.8333 113.5,74.5C 112.542,74.0472 111.708,73.3805 111,72.5C 110.329,73.2524 109.496,73.5858 108.5,73.5C 107.833,73.5 107.5,73.8333 107.5,74.5C 105.389,73.6201 103.389,73.6201 101.5,74.5C 100.833,74.1667 100.167,73.8333 99.5,73.5C 95.7852,73.577 92.1185,73.2436 88.5,72.5C 85.0915,71.0966 81.4248,70.4299 77.5,70.5C 75.0091,72.1677 72.8425,71.8344 71,69.5C 70.6411,72.5443 69.9745,72.8776 69,70.5C 68.6667,70.8333 68.3333,71.1667 68,71.5C 67.2904,70.0267 66.1238,69.3601 64.5,69.5C 62.3846,66.4828 59.718,65.8161 56.5,67.5C 56.1667,68.8333 55.8333,68.8333 55.5,67.5C 52.856,65.805 50.1893,64.1383 47.5,62.5C 44.9104,61.9489 44.2437,60.6155 45.5,58.5C 44.675,57.6143 43.675,57.281 42.5,57.5C 41.9232,55.3484 40.7565,55.015 39,56.5C 38.3872,54.5048 38.8872,52.8381 40.5,51.5C 40.5,51.1667 40.5,50.8333 40.5,50.5C 42.8091,48.6921 42.8091,46.6921 40.5,44.5C 40.0604,45.698 39.727,46.8647 39.5,48C 33.6643,46.6641 32.331,48.4974 35.5,53.5C 35.5,53.8333 35.5,54.1667 35.5,54.5C 34.5084,54.3284 33.8417,54.6618 33.5,55.5C 32.4226,56.0184 31.2559,56.3517 30,56.5C 25.9969,55.8716 22.4969,54.8716 19.5,53.5C 18.8333,52.8333 18.1667,52.1667 17.5,51.5C 17.5,50.8333 17.5,50.1667 17.5,49.5C 18.4734,49.0133 19.4734,48.5133 20.5,48C 19.1602,45.8215 19.4935,45.3215 21.5,46.5C 21.8333,46.5 22.1667,46.5 22.5,46.5C 23.3991,45.5285 24.5657,44.8618 26,44.5C 27.825,44.9434 29.6583,45.2767 31.5,45.5C 31.5086,43.6916 31.0086,42.0249 30,40.5C 28.4126,41.727 27.0793,41.3937 26,39.5C 25.7508,40.624 25.2508,41.624 24.5,42.5C 23.3132,41.3473 22.3132,41.3473 21.5,42.5C 21.5,42.8333 21.5,43.1667 21.5,43.5C 20.8333,43.1667 20.1667,42.8333 19.5,42.5C 19.5,41.8333 19.1667,41.5 18.5,41.5C 14.4448,39.4713 10.2782,39.1379 6,40.5C 3.8975,38.6975 3.06416,36.3641 3.5,33.5C 4.97782,33.762 6.31116,33.4287 7.5,32.5C 6.3913,31.0353 6.8913,30.0353 9,29.5C 9.69169,28.5632 9.52502,27.8966 8.5,27.5C 7.83333,27.5 7.5,27.1667 7.5,26.5C 6.7023,24.0337 5.36897,22.0337 3.5,20.5C 3.34647,18.0301 2.34647,16.0301 0.5,14.5C 0.166667,14.5 -0.166667,14.5 -0.5,14.5C -0.5,10.8333 -0.5,7.16667 -0.5,3.5C -0.166667,3.5 0.166667,3.5 0.5,3.5C 4.29531,1.85724 8.29531,1.19057 12.5,1.5 Z M 213.5,58.5 C 213.833,58.5 214.167,58.5 214.5,58.5C 214.5,59.8333 214.5,61.1667 214.5,62.5C 214.167,62.5 213.833,62.5 213.5,62.5C 213.5,61.8333 213.167,61.5 212.5,61.5C 212.389,60.8826 212.056,60.3826 211.5,60C 212.416,59.7216 213.082,59.2216 213.5,58.5 Z"/></g>
<g><path style="opacity:0.745" fill="#BB2649" d="M 13.5,1.5 C 13.56,0.956913 13.8933,0.62358 14.5,0.5C 19.2344,1.79106 23.9011,2.79106 28.5,3.5C 23.193,4.02648 18.193,3.35981 13.5,1.5 Z"/></g>
<g><path style="opacity:0.886" fill="#BB2649" d="M 93.5,4.5 C 93.9169,3.87605 94.5836,3.54272 95.5,3.5C 103.317,4.10467 110.983,4.77133 118.5,5.5C 110.125,5.74045 101.792,5.40712 93.5,4.5 Z"/></g>
<g><path style="opacity:1" fill="#f8cfb8" d="M 77.5,4.5 C 74.8333,4.5 72.1667,4.5 69.5,4.5C 69.5,5.5 69.5,6.5 69.5,7.5C 62.0659,6.32212 54.7326,5.32212 47.5,4.5C 57.6646,3.89907 67.6646,3.89907 77.5,4.5 Z"/></g>
<g><path style="opacity:0.741" fill="#f0d5c5" d="M 135.5,5.5 C 150.019,5.98964 164.352,6.98964 178.5,8.5C 166.497,8.14273 154.497,7.64273 142.5,7C 139.964,6.81382 137.631,6.31382 135.5,5.5 Z"/></g>
<g><path style="opacity:0.62" fill="#f4d6c8" d="M 224.5,10.5 C 216.981,10.825 209.648,10.4916 202.5,9.5C 205.876,9.05832 209.376,8.72499 213,8.5C 216.935,9.13781 220.769,9.80448 224.5,10.5 Z"/></g>
<g><path style="opacity:0.625" fill="#c8bbb4" d="M 225.5,10.5 C 230.839,10.0322 236.006,9.69889 241,9.5C 256.974,10.1451 272.807,10.8118 288.5,11.5C 288.167,11.5 287.833,11.5 287.5,11.5C 266.816,11.7481 246.149,11.4148 225.5,10.5 Z"/></g>
<g><path style="opacity:1" fill="#e1c1ae" d="M 315.5,11.5 C 312.713,12.4767 309.713,12.81 306.5,12.5C 299.978,12.8235 293.645,12.4902 287.5,11.5C 287.833,11.5 288.167,11.5 288.5,11.5C 297.801,11.2992 306.801,11.2992 315.5,11.5 Z"/></g>
<g><path style="opacity:0.588" fill="#cab1a0" d="M 318.5,11.5 C 324.026,11.1786 329.36,11.5119 334.5,12.5C 330.449,12.0775 326.616,12.7441 323,14.5C 321.334,13.6521 319.834,12.6521 318.5,11.5 Z"/></g>
<g><path style="opacity:0.914" fill="#d4bdb1" d="M 377.5,13.5 C 375.585,13.2155 373.919,13.5489 372.5,14.5C 371.833,14.5 371.167,14.5 370.5,14.5C 358.5,13.8333 346.5,13.1667 334.5,12.5C 348.597,11.4245 362.931,11.7578 377.5,13.5 Z"/></g>
<g><path style="opacity:0.255" fill="#c8beb8" d="M 378.5,13.5 C 392.833,12.1667 407.167,12.1667 421.5,13.5C 407.262,13.5927 392.928,13.5927 378.5,13.5 Z"/></g>
<g><path style="opacity:1" fill="#BB2649" d="M 318.5,11.5 C 319.834,12.6521 321.334,13.6521 323,14.5C 326.616,12.7441 330.449,12.0775 334.5,12.5C 346.5,13.1667 358.5,13.8333 370.5,14.5C 358.023,14.9126 345.69,15.0792 333.5,15C 330.167,15.3333 326.833,15.6667 323.5,16C 322.874,16.7504 322.374,17.5838 322,18.5C 318.989,15.496 315.156,14.996 310.5,17C 309.167,17.6667 309.167,18.3333 310.5,19C 309.833,19.1667 309.167,19.3333 308.5,19.5C 306.84,18.2134 305.174,16.8801 303.5,15.5C 304.77,14.7124 305.77,13.7124 306.5,12.5C 309.713,12.81 312.713,12.4767 315.5,11.5C 316.5,10.1667 317.5,10.1667 318.5,11.5 Z"/></g>
<g><path style="opacity:0.38" fill="#BB2649" d="M 0.5,14.5 C 2.34647,16.0301 3.34647,18.0301 3.5,20.5C 1.46095,19.089 0.460951,17.089 0.5,14.5 Z"/></g>
<g><path style="opacity:0.498" fill="#BB2649" d="M 422.5,13.5 C 442.466,12.8341 462.299,12.5007 482,12.5C 487.994,13.8719 493.828,14.8719 499.5,15.5C 499.5,16.1667 499.5,16.8333 499.5,17.5C 493.588,17.4603 487.588,17.7936 481.5,18.5C 480.522,18.0233 479.689,17.3567 479,16.5C 476.317,16.511 473.65,16.511 471,16.5C 469.715,16.9504 468.548,17.6171 467.5,18.5C 466.158,17.0977 465.324,17.4311 465,19.5C 463.951,17.8934 462.451,17.2267 460.5,17.5C 461.609,16.71 462.942,16.21 464.5,16C 463.672,15.0853 462.672,14.4186 461.5,14C 448.356,13.774 435.356,13.6074 422.5,13.5 Z"/></g>
<g><path style="opacity:0.557" fill="#c6b3a8" d="M 447.5,17.5 C 451.321,16.7736 455.321,16.7736 459.5,17.5C 457.174,18.6868 454.84,20.0202 452.5,21.5C 451.614,20.675 451.281,19.675 451.5,18.5C 450.041,18.5674 448.708,18.2341 447.5,17.5 Z"/></g>
<g><path style="opacity:1" fill="#BB2649" d="M 372.5,14.5 C 373.919,13.5489 375.585,13.2155 377.5,13.5C 377.833,13.5 378.167,13.5 378.5,13.5C 392.928,13.5927 407.262,13.5927 421.5,13.5C 421.833,13.5 422.167,13.5 422.5,13.5C 435.356,13.6074 448.356,13.774 461.5,14C 462.672,14.4186 463.672,15.0853 464.5,16C 462.942,16.21 461.609,16.71 460.5,17.5C 460.167,17.5 459.833,17.5 459.5,17.5C 455.321,16.7736 451.321,16.7736 447.5,17.5C 445.989,18.5025 444.322,19.1692 442.5,19.5C 441.048,18.2869 439.714,18.6203 438.5,20.5C 436.952,17.9925 435.952,18.3259 435.5,21.5C 434.833,21.5 434.5,21.8333 434.5,22.5C 433.833,22.5 433.5,22.8333 433.5,23.5C 432.833,23.5 432.167,23.5 431.5,23.5C 429.794,21.8418 427.961,21.1751 426,21.5C 419.599,23.1213 413.099,24.1213 406.5,24.5C 405.778,24.9175 405.278,25.5842 405,26.5C 404.23,25.4019 403.397,25.4019 402.5,26.5C 402.672,25.5084 402.338,24.8417 401.5,24.5C 398.609,25.4025 395.609,25.7359 392.5,25.5C 397.097,24.8524 401.597,23.519 406,21.5C 411.954,22.1244 417.454,22.1244 422.5,21.5C 426.078,19.6444 426.245,17.6444 423,15.5C 422.581,16.6721 421.915,17.6721 421,18.5C 420.125,16.4873 418.791,16.4873 417,18.5C 415.475,18.1119 413.808,18.1119 412,18.5C 409.059,17.9408 406.225,17.1074 403.5,16C 406.401,16.2342 409.401,15.9009 412.5,15C 399.171,14.5001 385.837,14.3334 372.5,14.5 Z"/></g>
<g><path style="opacity:0.765" fill="#BB2649" d="M 447.5,17.5 C 446.847,18.8068 446.18,20.1401 445.5,21.5C 446.758,20.9836 447.758,21.6503 448.5,23.5C 447.833,23.8333 447.167,24.1667 446.5,24.5C 441.734,23.9906 437.4,23.6573 433.5,23.5C 434.167,23.5 434.5,23.1667 434.5,22.5C 435.167,22.5 435.5,22.1667 435.5,21.5C 435.952,18.3259 436.952,17.9925 438.5,20.5C 439.714,18.6203 441.048,18.2869 442.5,19.5C 444.322,19.1692 445.989,18.5025 447.5,17.5 Z M 442.5,19.5 C 445.204,20.6802 445.037,21.6802 442,22.5C 440.209,21.3676 440.375,20.3676 442.5,19.5 Z"/></g>
<g><path style="opacity:0.408" fill="#BB2649" d="M 3.5,20.5 C 5.36897,22.0337 6.7023,24.0337 7.5,26.5C 5.26205,25.1473 3.92872,23.1473 3.5,20.5 Z"/></g>
<g><path style="opacity:0.531" fill="#BB2649" d="M 431.5,23.5 C 430.359,24.339 429.026,25.0057 427.5,25.5C 422.973,24.942 418.473,24.6086 414,24.5C 411.739,24.4391 409.739,25.1057 408,26.5C 407.722,25.5842 407.222,24.9175 406.5,24.5C 413.099,24.1213 419.599,23.1213 426,21.5C 427.961,21.1751 429.794,21.8418 431.5,23.5 Z"/></g>
<g><path style="opacity:1" fill="#BB2649" d="M 383.5,24.5 C 382.508,24.3284 381.842,24.6618 381.5,25.5C 379.786,26.7384 377.786,27.405 375.5,27.5C 374.25,27.4226 373.417,26.756 373,25.5C 371.644,26.3802 370.144,26.7135 368.5,26.5C 367.833,26.5 367.167,26.5 366.5,26.5C 360.407,25.7185 354.407,25.7185 348.5,26.5C 351.686,26.1046 354.686,25.1046 357.5,23.5C 366.398,24.3392 375.065,24.6725 383.5,24.5 Z"/></g>
<g><path style="opacity:1" fill="#BB2649" d="M 276.5,28.5 C 274.522,28.7377 272.855,30.0711 271.5,32.5C 268.768,33.0381 266.102,33.0381 263.5,32.5C 262.808,33.0253 262.308,33.6919 262,34.5C 256.886,32.807 251.386,32.307 245.5,33C 244.107,34.1711 243.273,35.6711 243,37.5C 242.727,35.8988 242.227,34.3988 241.5,33C 236.61,32.9403 231.943,31.9403 227.5,30C 237.952,24.9043 248.452,24.4043 259,28.5C 264.563,27.5254 270.396,27.5254 276.5,28.5 Z"/></g>
<g><path style="opacity:0.651" fill="#BB2649" d="M 381.5,25.5 C 381.842,24.6618 382.508,24.3284 383.5,24.5C 386.448,25.1789 389.448,25.5122 392.5,25.5C 395.609,25.7359 398.609,25.4025 401.5,24.5C 401.328,25.4916 401.662,26.1583 402.5,26.5C 402.217,27.2891 401.717,27.9558 401,28.5C 398.894,26.709 396.394,26.0423 393.5,26.5C 393.307,30.449 392.807,30.449 392,26.5C 390.507,28.3079 388.673,28.3079 386.5,26.5C 385.228,26.5698 384.062,26.9032 383,27.5C 382.722,26.5842 382.222,25.9175 381.5,25.5 Z"/></g>
<g><path style="opacity:1" fill="#BB2649" d="M 335.5,27.5 C 335.167,27.5 334.833,27.5 334.5,27.5C 328.53,27.5669 322.863,27.9002 317.5,28.5C 316.5,28.5 315.5,28.5 314.5,28.5C 313.833,28.5 313.167,28.5 312.5,28.5C 311.833,28.5 311.167,28.5 310.5,28.5C 315.599,27.0959 320.932,26.4292 326.5,26.5C 329.686,26.502 332.686,26.8353 335.5,27.5 Z"/></g>
<g><path style="opacity:0.906" fill="#c9b7ac" d="M 375.5,27.5 C 375.265,28.0967 374.765,28.4301 374,28.5C 371.97,28.0463 370.137,27.3796 368.5,26.5C 370.144,26.7135 371.644,26.3802 373,25.5C 373.417,26.756 374.25,27.4226 375.5,27.5 Z"/></g>
<g><path style="opacity:0.749" fill="#d4bdb1" d="M 348.5,26.5 C 354.407,25.7185 360.407,25.7185 366.5,26.5C 367.087,27.7666 367.087,28.7666 366.5,29.5C 365.402,25.6395 364.569,25.6395 364,29.5C 362.846,28.2567 361.512,27.2567 360,26.5C 357.095,28.0932 353.929,29.0932 350.5,29.5C 349.252,28.9598 348.085,28.2931 347,27.5C 344.765,28.2393 342.765,28.2393 341,27.5C 338.986,31.309 337.153,31.309 335.5,27.5C 339.676,25.3052 344.009,24.9718 348.5,26.5 Z"/></g>
<g><path style="opacity:1" fill="#e0b49e" d="M 302.5,27.5 C 302.5,27.8333 302.5,28.1667 302.5,28.5C 302.5,28.8333 302.5,29.1667 302.5,29.5C 301.833,29.5 301.167,29.5 300.5,29.5C 300.167,29.5 299.833,29.5 299.5,29.5C 298.596,30.209 298.263,31.209 298.5,32.5C 301.167,32.5 303.833,32.5 306.5,32.5C 305.493,33.8284 304.16,34.8284 302.5,35.5C 298.345,33.7752 294.011,33.1085 289.5,33.5C 292.167,32.8333 294.833,32.1667 297.5,31.5C 297.5,30.8333 297.167,30.5 296.5,30.5C 295.609,29.8902 294.609,29.5569 293.5,29.5C 296.219,28.087 299.219,27.4203 302.5,27.5 Z"/></g>
<g><path style="opacity:0.957" fill="#d0c3bc" d="M 334.5,27.5 C 328.481,29.0715 322.481,30.0715 316.5,30.5C 316.833,29.8333 317.167,29.1667 317.5,28.5C 322.863,27.9002 328.53,27.5669 334.5,27.5 Z"/></g>
<g><path style="opacity:0.455" fill="#c5b0a2" d="M 249.5,31.5 C 249.167,30.1667 248.833,30.1667 248.5,31.5C 246.968,30.6304 245.468,30.9638 244,32.5C 242,31.1667 242,29.8333 244,28.5C 247.333,29.8333 250.667,29.8333 254,28.5C 255.098,29.9675 256.598,30.8008 258.5,31C 255.518,31.498 252.518,31.6646 249.5,31.5 Z"/></g>
<g><path style="opacity:0.824" fill="#d1b3a2" d="M 276.5,28.5 C 282.218,29.1426 287.884,29.4759 293.5,29.5C 294.609,29.5569 295.609,29.8902 296.5,30.5C 297.167,30.5 297.5,30.8333 297.5,31.5C 294.833,32.1667 292.167,32.8333 289.5,33.5C 287.908,34.6016 287.075,33.935 287,31.5C 286.16,34.4637 285.16,34.797 284,32.5C 279.733,33.822 275.566,33.822 271.5,32.5C 272.855,30.0711 274.522,28.7377 276.5,28.5 Z"/></g>
<g><path style="opacity:0.298" fill="#d0bfb6" d="M 302.5,28.5 C 302.5,28.1667 302.5,27.8333 302.5,27.5C 305.096,28.2653 307.763,28.5987 310.5,28.5C 307.557,31.1804 307.89,31.847 311.5,30.5C 311.833,29.8333 312.167,29.1667 312.5,28.5C 313.167,28.5 313.833,28.5 314.5,28.5C 314.833,29.5 315.5,30.1667 316.5,30.5C 316.415,31.9953 317.081,32.9953 318.5,33.5C 318.677,30.9218 319.843,30.9218 322,33.5C 324.946,30.4571 326.112,31.1238 325.5,35.5C 321.5,35.5 317.5,35.5 313.5,35.5C 313.404,31.6893 312.738,31.6893 311.5,35.5C 309.935,34.7621 308.268,33.7621 306.5,32.5C 303.833,32.5 301.167,32.5 298.5,32.5C 298.263,31.209 298.596,30.209 299.5,29.5C 299.833,30.8333 300.167,30.8333 300.5,29.5C 301.167,29.5 301.833,29.5 302.5,29.5C 303.833,29.1667 303.833,28.8333 302.5,28.5 Z M 304.5,29.5 C 305.376,29.3691 306.043,29.7025 306.5,30.5C 304.192,31.8734 303.525,31.5401 304.5,29.5 Z M 310.5,28.5 C 311.167,28.5 311.833,28.5 312.5,28.5C 312.167,29.1667 311.833,29.8333 311.5,30.5C 307.89,31.847 307.557,31.1804 310.5,28.5 Z"/></g>
<g><path style="opacity:0.365" fill="#d4c7c0" d="M 386.5,34.5 C 385.469,35.355 384.303,36.0217 383,36.5C 382.235,36.4301 381.735,36.0967 381.5,35.5C 380.615,33.7298 381.448,32.7298 384,32.5C 385.301,32.6387 386.134,33.3054 386.5,34.5 Z"/></g>
<g><path style="opacity:0.459" fill="#c5c4c2" d="M 339.5,34.5 C 338.475,34.1034 338.308,33.4368 339,32.5C 339.464,33.0944 339.631,33.7611 339.5,34.5 Z"/></g>
<g><path style="opacity:0.851" fill="#c2bcb9" d="M 393.5,35.5 C 392.167,35.5 390.833,35.5 389.5,35.5C 388.402,33.3579 389.236,32.0246 392,31.5C 392.791,32.745 393.291,34.0783 393.5,35.5 Z"/></g>
<g><path style="opacity:1" fill="#BB2649" d="M 187.5,32.5 C 189.646,32.6964 189.812,33.6964 188,35.5C 187.517,34.552 187.351,33.552 187.5,32.5 Z"/></g>
<g><path style="opacity:0.118" fill="#d7d5d3" d="M 378.5,35.5 C 378.167,35.5 377.833,35.5 377.5,35.5C 377.167,35.5 376.833,35.5 376.5,35.5C 375.086,33.4017 375.752,32.4017 378.5,32.5C 378.5,33.5 378.5,34.5 378.5,35.5 Z"/></g>
<g><path style="opacity:0.447" fill="#cfc3bb" d="M 419.5,35.5 C 411.43,35.8421 403.43,35.8421 395.5,35.5C 398.483,34.6125 401.65,33.9458 405,33.5C 409.941,33.2592 414.774,33.9259 419.5,35.5 Z"/></g>
<g><path style="opacity:0.804" fill="#d2bcad" d="M 339.5,34.5 C 342.448,35.7294 345.281,35.3961 348,33.5C 348.278,34.4158 348.778,35.0825 349.5,35.5C 341.999,36.4284 334.332,36.4284 326.5,35.5C 326.5,34.5 326.5,33.5 326.5,32.5C 328.199,32.3398 329.866,32.5065 331.5,33C 330.5,33.3333 329.5,33.6667 328.5,34C 330.433,34.7826 331.933,34.2826 333,32.5C 334.747,33.3301 336.413,34.3301 338,35.5C 338.765,35.4301 339.265,35.0967 339.5,34.5 Z"/></g>
<g><path style="opacity:0.839" fill="#d2bdb1" d="M 355.5,35.5 C 353.716,36.7199 352.05,36.7199 350.5,35.5C 352.167,34.1667 353.833,34.1667 355.5,35.5 Z"/></g>
<g><path style="opacity:1" fill="#d1b5a7" d="M 376.5,35.5 C 369.5,36.8333 362.5,36.8333 355.5,35.5C 358.711,35.988 361.544,35.3213 364,33.5C 364.5,34 365,34.5 365.5,35C 369.152,35.4986 372.818,35.6653 376.5,35.5 Z"/></g>
<g><path style="opacity:0.482" fill="#cab6aa" d="M 414.5,39.5 C 416.711,38.8889 418.378,37.5556 419.5,35.5C 421.135,34.1854 422.801,34.1854 424.5,35.5C 426.674,33.2192 428.674,33.2192 430.5,35.5C 431.167,35.1667 431.833,34.8333 432.5,34.5C 434.776,35.2132 437.109,35.7132 439.5,36C 438.382,37.0736 437.382,38.2402 436.5,39.5C 433.284,38.603 429.95,38.603 426.5,39.5C 425.152,37.5387 423.819,37.3721 422.5,39C 419.854,39.4974 417.187,39.6641 414.5,39.5 Z"/></g>
<g><path style="opacity:0.592" fill="#c0b8b4" d="M 446.5,34.5 C 448.017,34.5106 449.184,35.1772 450,36.5C 450.333,35.8333 450.667,35.1667 451,34.5C 452.135,34.727 453.302,35.0604 454.5,35.5C 453.788,37.0459 452.622,38.0459 451,38.5C 449.109,38.2816 447.276,38.2816 445.5,38.5C 444.069,38.0234 442.736,37.3567 441.5,36.5C 443.07,36.3062 444.57,36.3062 446,36.5C 446.464,35.9056 446.631,35.2389 446.5,34.5 Z"/></g>
<g><path style="opacity:1" fill="#eeb99c" d="M 386.5,34.5 C 387.391,35.1098 388.391,35.4431 389.5,35.5C 390.833,35.5 392.167,35.5 393.5,35.5C 394.167,35.5 394.833,35.5 395.5,35.5C 403.43,35.8421 411.43,35.8421 419.5,35.5C 418.378,37.5556 416.711,38.8889 414.5,39.5C 409.034,38.507 403.368,38.507 397.5,39.5C 396.5,40.8333 395.5,40.8333 394.5,39.5C 390.832,39.7504 387.332,39.7504 384,39.5C 382.272,39.899 380.772,40.5657 379.5,41.5C 378.833,41.5 378.167,41.5 377.5,41.5C 377.158,40.6618 376.492,40.3284 375.5,40.5C 374.542,40.9528 373.708,41.6195 373,42.5C 372.292,41.6195 371.458,40.9528 370.5,40.5C 368.958,39.6993 367.292,39.366 365.5,39.5C 364.833,39.5 364.167,39.5 363.5,39.5C 365.137,38.6204 366.97,37.9537 369,37.5C 372.565,39.2894 376.398,39.956 380.5,39.5C 380.5,38.5 380.5,37.5 380.5,36.5C 379.209,36.7373 378.209,36.404 377.5,35.5C 377.833,35.5 378.167,35.5 378.5,35.5C 379.5,35.5 380.5,35.5 381.5,35.5C 381.735,36.0967 382.235,36.4301 383,36.5C 384.303,36.0217 385.469,35.355 386.5,34.5 Z"/></g>
<g><path style="opacity:1" fill="#e0c5b6" d="M 414.5,39.5 C 413.828,40.2674 412.995,40.9341 412,41.5C 409.333,40.1667 406.667,40.1667 404,41.5C 403.667,40.8333 403.333,40.1667 403,39.5C 401.057,40.807 399.223,40.807 397.5,39.5C 403.368,38.507 409.034,38.507 414.5,39.5 Z"/></g>
<g><path style="opacity:0.545" fill="#cdbdb5" d="M 8.5,27.5 C 9.52502,27.8966 9.69169,28.5632 9,29.5C 6.8913,30.0353 6.3913,31.0353 7.5,32.5C 6.31116,33.4287 4.97782,33.762 3.5,33.5C 3.06416,36.3641 3.8975,38.6975 6,40.5C 10.2782,39.1379 14.4448,39.4713 18.5,41.5C 18.1344,42.6946 17.301,43.3613 16,43.5C 10.849,43.3479 6.51565,43.3479 3,43.5C 0.577995,36.682 2.41133,31.3486 8.5,27.5 Z"/></g>
<g><path style="opacity:1" fill="#d6c4ba" d="M 356.5,39.5 C 358.833,39.5 361.167,39.5 363.5,39.5C 363.649,40.552 363.483,41.552 363,42.5C 362.667,42.1667 362.333,41.8333 362,41.5C 360.314,44.022 358.981,43.6887 358,40.5C 356.893,41.7119 356.393,41.3786 356.5,39.5 Z"/></g>
<g><path style="opacity:0.29" fill="#d8cec7" d="M 365.5,39.5 C 367.292,39.366 368.958,39.6993 370.5,40.5C 369.534,43.1247 368.534,43.1247 367.5,40.5C 364.796,43.3916 364.129,43.0583 365.5,39.5 Z"/></g>
<g><path style="opacity:1" fill="#cbbeb6" d="M 394.5,39.5 C 393.428,41.8398 391.761,42.1731 389.5,40.5C 388.031,42.3751 386.198,42.3751 384,40.5C 382.667,41.1667 381.333,41.8333 380,42.5C 379.601,42.2716 379.435,41.9382 379.5,41.5C 380.772,40.5657 382.272,39.899 384,39.5C 387.332,39.7504 390.832,39.7504 394.5,39.5 Z"/></g>
<g><path style="opacity:0.392" fill="#cdbeb5" d="M 355.5,39.5 C 352.635,39.9922 350.635,40.9922 349.5,42.5C 348.202,41.8843 347.202,41.8843 346.5,42.5C 337.32,42.8608 327.986,42.8608 318.5,42.5C 318.5,42.1667 318.5,41.8333 318.5,41.5C 320.467,41.7394 322.301,41.4061 324,40.5C 327.116,43.0442 330.283,43.0442 333.5,40.5C 335.823,41.6716 338.156,41.6716 340.5,40.5C 341.167,40.5 341.5,40.8333 341.5,41.5C 346.033,40.0164 350.7,39.3497 355.5,39.5 Z"/></g>
<g><path style="opacity:0.082" fill="#e8e4e2" d="M 375.5,40.5 C 376.492,40.3284 377.158,40.6618 377.5,41.5C 376.377,42.7574 375.711,42.4241 375.5,40.5 Z"/></g>
<g><path style="opacity:0.01" fill="#f9f4f1" d="M 19.5,42.5 C 20.1667,42.8333 20.8333,43.1667 21.5,43.5C 21.5,44.5 21.5,45.5 21.5,46.5C 19.4935,45.3215 19.1602,45.8215 20.5,48C 19.4734,48.5133 18.4734,49.0133 17.5,49.5C 16.4265,48.7494 16.2599,47.7494 17,46.5C 17.3333,46.8333 17.6667,47.1667 18,47.5C 18.6077,45.8455 19.1077,44.1789 19.5,42.5 Z"/></g>
<g><path style="opacity:0.961" fill="#d7baa8" d="M 318.5,41.5 C 318.5,41.8333 318.5,42.1667 318.5,42.5C 316.329,43.2449 313.995,43.4115 311.5,43C 314.834,44.0844 318.168,44.9177 321.5,45.5C 312.443,45.4341 303.443,44.7674 294.5,43.5C 294.5,42.8333 294.167,42.5 293.5,42.5C 296.785,41.7238 300.785,41.0571 305.5,40.5C 309.765,41.4386 314.098,41.7719 318.5,41.5 Z"/></g>
<g><path style="opacity:0.092" fill="#eceae9" d="M 349.5,42.5 C 348.5,43.8333 347.5,43.8333 346.5,42.5C 347.202,41.8843 348.202,41.8843 349.5,42.5 Z"/></g>
<g><path style="opacity:0.639" fill="#eed1c0" d="M 22.5,46.5 C 22.7678,44.901 22.4345,43.5676 21.5,42.5C 22.3132,41.3473 23.3132,41.3473 24.5,42.5C 25.2508,41.624 25.7508,40.624 26,39.5C 27.0793,41.3937 28.4126,41.727 30,40.5C 31.0086,42.0249 31.5086,43.6916 31.5,45.5C 29.6583,45.2767 27.825,44.9434 26,44.5C 24.5657,44.8618 23.3991,45.5285 22.5,46.5 Z"/></g>
<g><path style="opacity:0.02" fill="#fcece3" d="M 34.5,43.5 C 35.8471,44.1712 37.0138,44.1712 38,43.5C 38.6667,44.5 38.6667,45.5 38,46.5C 37.2588,45.3595 36.4255,45.3595 35.5,46.5C 34.6143,45.675 34.281,44.675 34.5,43.5 Z"/></g>
<g><path style="opacity:0.514" fill="#c9c0bc" d="M 321.5,53.5 C 321.833,52.8333 322.167,52.1667 322.5,51.5C 322.833,51.5 323.167,51.5 323.5,51.5C 325.833,51.5 328.167,51.5 330.5,51.5C 330.36,49.8762 331.027,48.7096 332.5,48C 331.906,47.5357 331.239,47.369 330.5,47.5C 330.5,47.1667 330.5,46.8333 330.5,46.5C 333.748,45.8603 337.082,46.0269 340.5,47C 341.667,47.5 342.5,48.3333 343,49.5C 344.444,47.8446 346.278,47.178 348.5,47.5C 348.911,50.2763 348.078,50.943 346,49.5C 345.055,49.9054 344.388,50.572 344,51.5C 342.612,50.4464 341.112,50.2797 339.5,51C 340.623,54.0557 339.956,54.2223 337.5,51.5C 338.563,49.634 337.896,49.134 335.5,50C 336.993,51.1562 336.826,51.9896 335,52.5C 334.05,51.9777 333.216,51.311 332.5,50.5C 332.089,51.2624 331.923,52.2624 332,53.5C 331,53.5 330,53.5 329,53.5C 327.956,54.6226 327.29,55.9559 327,57.5C 326.075,56.9535 325.242,56.2868 324.5,55.5C 325.59,54.3914 325.59,53.3914 324.5,52.5C 323.583,53.1272 322.583,53.4606 321.5,53.5 Z"/></g>
<g><path style="opacity:0.557" fill="#f7d7c4" d="M 48.5,46.5 C 51.0454,47.4376 51.5454,48.7709 50,50.5C 49.5518,48.7756 48.7185,48.109 47.5,48.5C 47.8627,47.8165 48.1961,47.1499 48.5,46.5 Z"/></g>
<g><path style="opacity:0.753" fill="#f4d4c1" d="M 40.5,50.5 C 39.1667,50.8333 39.1667,51.1667 40.5,51.5C 38.8872,52.8381 38.3872,54.5048 39,56.5C 40.7565,55.015 41.9232,55.3484 42.5,57.5C 39.4498,57.9937 36.4498,57.3271 33.5,55.5C 33.8417,54.6618 34.5084,54.3284 35.5,54.5C 38.1667,54.1667 38.1667,53.8333 35.5,53.5C 32.331,48.4974 33.6643,46.6641 39.5,48C 39.727,46.8647 40.0604,45.698 40.5,44.5C 42.8091,46.6921 42.8091,48.6921 40.5,50.5 Z"/></g>
<g><path style="opacity:0.365" fill="#fbe4d7" d="M 70.5,50.5 C 70.56,49.9569 70.8933,49.6236 71.5,49.5C 72.5827,50.365 72.7494,51.365 72,52.5C 71.7216,51.5842 71.2216,50.9175 70.5,50.5 Z"/></g>
<g><path style="opacity:0.337" fill="#c4bfbd" d="M 372.5,50.5 C 373.601,49.4017 374.934,49.235 376.5,50C 375.874,50.7504 375.374,51.5838 375,52.5C 374.292,51.6195 373.458,50.9528 372.5,50.5 Z"/></g>
<g><path style="opacity:0.961" fill="#ccc6c3" d="M 349.5,49.5 C 355.245,48.7155 361.078,48.3822 367,48.5C 368.627,48.6251 370.127,49.1251 371.5,50C 371,50.5 370.5,51 370,51.5C 368.612,50.4464 367.112,50.2797 365.5,51C 365.957,51.414 366.291,51.914 366.5,52.5C 364.155,55.077 362.155,54.9104 360.5,52C 362.901,51.195 362.734,50.3617 360,49.5C 359.085,50.3279 358.419,51.3279 358,52.5C 356.981,51.3128 355.814,50.3128 354.5,49.5C 352.812,49.542 351.146,49.542 349.5,49.5 Z"/></g>
<g><path style="opacity:0.145" fill="#dedbda" d="M 377.5,49.5 C 379.983,49.73 380.483,50.3966 379,51.5C 377.97,51.1639 377.47,50.4972 377.5,49.5 Z"/></g>
<g><path style="opacity:0.106" fill="#dcdad8" d="M 381.5,51.5 C 384.024,50.1997 386.691,50.1997 389.5,51.5C 386.956,51.9491 384.29,51.9491 381.5,51.5 Z"/></g>
<g><path style="opacity:0.02" fill="#fbf8f6" d="M 17.5,51.5 C 18.1667,52.1667 18.8333,52.8333 19.5,53.5C 18.325,53.719 17.325,53.3857 16.5,52.5C 16.6236,51.8933 16.9569,51.56 17.5,51.5 Z"/></g>
<g><path style="opacity:0.38" fill="#f1dacc" d="M 85.5,51.5 C 85.56,50.9569 85.8933,50.6236 86.5,50.5C 87.3857,51.325 87.719,52.325 87.5,53.5C 85.7988,53.0338 84.2988,53.0338 83,53.5C 82.8119,51.9387 83.6453,51.272 85.5,51.5 Z"/></g>
<g><path style="opacity:1" fill="#d2b09c" d="M 330.5,47.5 C 331.239,47.369 331.906,47.5357 332.5,48C 331.027,48.7096 330.36,49.8762 330.5,51.5C 328.167,51.5 325.833,51.5 323.5,51.5C 323.167,50.1667 322.833,50.1667 322.5,51.5C 322.167,52.1667 321.833,52.8333 321.5,53.5C 321.167,53.5 320.833,53.5 320.5,53.5C 319.417,53.4606 318.417,53.1272 317.5,52.5C 316.12,54.9767 315.12,54.9767 314.5,52.5C 313.708,51.0331 313.708,49.6998 314.5,48.5C 315.192,49.0253 315.692,49.6919 316,50.5C 319,49.8333 322,49.1667 325,48.5C 325.308,49.3081 325.808,49.9747 326.5,50.5C 328.16,49.8284 329.493,48.8284 330.5,47.5 Z"/></g>
<g><path style="opacity:0.478" fill="#d0cfce" d="M 356.5,54.5 C 360.3,54.8194 360.466,55.8194 357,57.5C 356.517,56.552 356.351,55.552 356.5,54.5 Z"/></g>
<g><path style="opacity:0.296" fill="#cdcac9" d="M 334.5,54.5 C 336.225,54.8425 336.725,55.8425 336,57.5C 334.578,57.4057 333.078,57.0724 331.5,56.5C 332.602,55.8243 333.602,55.1577 334.5,54.5 Z"/></g>
<g><path style="opacity:0.298" fill="#bfbcbb" d="M 349.5,54.5 C 351.09,54.6282 352.423,55.2949 353.5,56.5C 351.167,57.9415 349.834,57.2748 349.5,54.5 Z"/></g>
<g><path style="opacity:0.455" fill="#cabbb1" d="M 314.5,52.5 C 315.12,54.9767 316.12,54.9767 317.5,52.5C 318.417,53.1272 319.417,53.4606 320.5,53.5C 321.626,54.8583 321.626,56.1916 320.5,57.5C 319.483,54.972 318.316,54.972 317,57.5C 316.333,56.8333 315.667,56.1667 315,55.5C 313.887,56.7111 312.72,56.7111 311.5,55.5C 310.145,56.1882 309.145,57.1882 308.5,58.5C 308.167,58.5 307.833,58.5 307.5,58.5C 306.828,57.7326 305.995,57.0659 305,56.5C 302.184,59.3771 298.684,60.7105 294.5,60.5C 294.5,60.1667 294.5,59.8333 294.5,59.5C 294.5,58.8333 294.5,58.1667 294.5,57.5C 295.151,58.0906 295.818,58.7573 296.5,59.5C 297.089,55.557 299.089,54.2237 302.5,55.5C 302.833,56.8333 303.167,56.8333 303.5,55.5C 305.627,54.905 306.793,53.905 307,52.5C 308.261,52.7591 309.261,53.4258 310,54.5C 311.11,52.9632 312.61,52.2965 314.5,52.5 Z"/></g>
<g><path style="opacity:1" fill="#f7bc9b" d="M 293.5,43.5 C 293.833,43.5 294.167,43.5 294.5,43.5C 303.443,44.7674 312.443,45.4341 321.5,45.5C 324.713,45.19 327.713,45.5233 330.5,46.5C 330.5,46.8333 330.5,47.1667 330.5,47.5C 329.493,48.8284 328.16,49.8284 326.5,50.5C 325.808,49.9747 325.308,49.3081 325,48.5C 322,49.1667 319,49.8333 316,50.5C 315.692,49.6919 315.192,49.0253 314.5,48.5C 313.708,49.6998 313.708,51.0331 314.5,52.5C 312.61,52.2965 311.11,52.9632 310,54.5C 309.261,53.4258 308.261,52.7591 307,52.5C 306.793,53.905 305.627,54.905 303.5,55.5C 303.167,55.5 302.833,55.5 302.5,55.5C 299.089,54.2237 297.089,55.557 296.5,59.5C 295.818,58.7573 295.151,58.0906 294.5,57.5C 293.377,56.2426 292.711,56.5759 292.5,58.5C 290.292,57.977 288.792,56.6437 288,54.5C 287.5,56.3333 286.333,57.5 284.5,58C 285.451,58.7175 285.617,59.5509 285,60.5C 283.488,59.7433 282.154,58.7433 281,57.5C 278.731,60.0544 276.398,60.0544 274,57.5C 273.51,58.7932 273.343,60.1266 273.5,61.5C 271.821,61.2852 270.821,61.9519 270.5,63.5C 267.346,62.9054 264.346,62.9054 261.5,63.5C 261.567,64.9587 261.234,66.2921 260.5,67.5C 258.592,67.1166 257.092,66.1166 256,64.5C 255.075,65.0465 254.242,65.7132 253.5,66.5C 255.426,68.2444 257.76,69.2444 260.5,69.5C 260.833,69.5 261.167,69.5 261.5,69.5C 263.067,70.6808 263.901,72.3474 264,74.5C 264.251,72.567 264.751,70.7337 265.5,69C 264.288,67.8932 264.621,67.3932 266.5,67.5C 266.833,67.5 267.167,67.5 267.5,67.5C 267.328,68.4916 267.662,69.1583 268.5,69.5C 269.376,69.3691 270.043,69.7025 270.5,70.5C 269.757,71.1818 269.091,71.8485 268.5,72.5C 266.146,71.5065 265.146,72.5065 265.5,75.5C 255.934,75.3173 246.268,75.3173 236.5,75.5C 235.833,75.5 235.167,75.5 234.5,75.5C 230.529,74.8999 226.529,73.8999 222.5,72.5C 217.053,73.1278 211.719,73.4611 206.5,73.5C 208.399,70.6522 210.899,69.6522 214,70.5C 216.473,69.8803 218.973,69.2136 221.5,68.5C 221.167,67.8333 220.833,67.1667 220.5,66.5C 216.349,65.186 212.349,65.5193 208.5,67.5C 208.5,66.8333 208.167,66.5 207.5,66.5C 208.171,65.1529 208.171,63.9862 207.5,63C 208.833,62.3333 210.167,62.3333 211.5,63C 208.937,63.763 208.937,64.263 211.5,64.5C 212.713,64.2528 213.38,63.5862 213.5,62.5C 213.833,62.5 214.167,62.5 214.5,62.5C 215.329,63.3324 216.162,62.999 217,61.5C 217.77,62.5981 218.603,62.5981 219.5,61.5C 219.5,62.1667 219.833,62.5 220.5,62.5C 221.167,62.1667 221.833,61.8333 222.5,61.5C 223.655,61.5784 224.988,61.9117 226.5,62.5C 224.954,63.684 223.287,64.684 221.5,65.5C 221.667,65.8333 221.833,66.1667 222,66.5C 224.768,63.9119 226.768,64.2452 228,67.5C 228.5,66.5 229,65.5 229.5,64.5C 229.154,63.3044 228.654,63.3044 228,64.5C 227.313,62.4325 227.48,60.4325 228.5,58.5C 230.555,58.1314 232.555,57.9647 234.5,58C 235.246,60.0932 235.579,62.0932 235.5,64C 234.5,64.3333 233.5,64.6667 232.5,65C 234.777,65.2085 236.943,66.0418 239,67.5C 238.208,69.8462 238.375,72.1795 239.5,74.5C 245.167,74.5 250.833,74.5 256.5,74.5C 256.567,71.234 254.901,69.734 251.5,70C 251.833,69.6667 252.167,69.3333 252.5,69C 251.484,68.4806 250.818,67.6473 250.5,66.5C 251.062,63.2266 252.729,62.2266 255.5,63.5C 257.483,62.5303 259.483,61.5303 261.5,60.5C 262.456,58.4521 263.456,56.4521 264.5,54.5C 270.664,54.6658 276.664,54.9992 282.5,55.5C 286.629,54.0591 290.795,52.7258 295,51.5C 295.667,52.1667 296.333,52.8333 297,53.5C 298.65,52.1092 299.15,50.6092 298.5,49C 299.5,48.6667 300.5,48.3333 301.5,48C 298.781,46.4546 296.281,46.2879 294,47.5C 293.51,46.2068 293.343,44.8734 293.5,43.5 Z M 260.5,67.5 C 261.167,67.5 261.833,67.5 262.5,67.5C 262.167,68.1667 261.833,68.8333 261.5,69.5C 261.167,69.5 260.833,69.5 260.5,69.5C 260.5,68.8333 260.5,68.1667 260.5,67.5 Z"/></g>
<g><path style="opacity:0.788" fill="#b7b4b3" d="M 307.5,58.5 C 307.833,59.8333 308.167,59.8333 308.5,58.5C 309.166,61.7783 308.166,62.1116 305.5,59.5C 305.957,58.7025 306.624,58.3691 307.5,58.5 Z"/></g>
<g><path style="opacity:0.408" fill="#bebdbd" d="M 311.5,58.5 C 312.675,58.281 313.675,58.6143 314.5,59.5C 312.948,60.7979 311.948,60.4646 311.5,58.5 Z"/></g>
<g><path style="opacity:0.251" fill="#f5e4da" d="M 209.5,58.5 C 209.833,59.8333 210.167,59.8333 210.5,58.5C 211.348,57.375 212.348,57.375 213.5,58.5C 213.082,59.2216 212.416,59.7216 211.5,60C 212.056,60.3826 212.389,60.8826 212.5,61.5C 210.717,60.8254 209.05,60.4921 207.5,60.5C 207.5,59.8333 207.167,59.5 206.5,59.5C 206.369,58.7611 206.536,58.0944 207,57.5C 207.671,58.2524 208.504,58.5858 209.5,58.5 Z"/></g>
<g><path style="opacity:0.247" fill="#f6e0d5" d="M 214.5,58.5 C 215.458,58.9528 216.292,59.6195 217,60.5C 218.333,59.1667 219.667,59.1667 221,60.5C 222.087,58.0684 222.587,58.4017 222.5,61.5C 221.833,61.8333 221.167,62.1667 220.5,62.5C 219.833,62.5 219.5,62.1667 219.5,61.5C 218.603,62.5981 217.77,62.5981 217,61.5C 216.162,62.999 215.329,63.3324 214.5,62.5C 214.5,61.1667 214.5,59.8333 214.5,58.5 Z"/></g>
<g><path style="opacity:0.294" fill="#d1cfcf" d="M 319.5,58.5 C 320.627,59.1217 321.627,59.955 322.5,61C 320.511,61.5192 319.511,60.6859 319.5,58.5 Z"/></g>
<g><path style="opacity:0.971" fill="#edcab5" d="M 204.5,60.5 C 204.842,59.6618 205.508,59.3284 206.5,59.5C 207.167,59.5 207.5,59.8333 207.5,60.5C 209.05,60.4921 210.717,60.8254 212.5,61.5C 213.167,61.5 213.5,61.8333 213.5,62.5C 213.38,63.5862 212.713,64.2528 211.5,64.5C 208.937,64.263 208.937,63.763 211.5,63C 210.167,62.3333 208.833,62.3333 207.5,63C 208.171,63.9862 208.171,65.1529 207.5,66.5C 207.5,66.8333 207.5,67.1667 207.5,67.5C 206.685,66.5707 205.852,65.5707 205,64.5C 204.632,65.91 203.799,66.91 202.5,67.5C 200.684,66.1851 199.017,64.6851 197.5,63C 199.674,62.8191 201.507,63.6524 203,65.5C 203.464,64.9056 203.631,64.2389 203.5,63.5C 201.878,62.8776 200.545,61.8776 199.5,60.5C 199.5,60.1667 199.5,59.8333 199.5,59.5C 200.117,59.6107 200.617,59.944 201,60.5C 202,58.8333 203,57.1667 204,55.5C 203.904,57.3806 204.071,59.0473 204.5,60.5 Z"/></g>
<g><path style="opacity:0.62" fill="#f6dccd" d="M 194.5,59.5 C 194.494,56.4524 195.494,55.9524 197.5,58C 196.853,59.6095 196.02,61.1095 195,62.5C 194.586,62.0426 194.086,61.7093 193.5,61.5C 192.702,63.0777 192.202,64.7444 192,66.5C 191.56,64.9238 190.727,63.5904 189.5,62.5C 189.846,61.3044 190.346,61.3044 191,62.5C 191.333,60.5 191.667,58.5 192,56.5C 192.333,57.8333 192.667,59.1667 193,60.5C 193.383,59.944 193.883,59.6107 194.5,59.5 Z"/></g>
<g><path style="opacity:1" fill="#cab7ab" d="M 292.5,58.5 C 292.108,60.1789 291.608,61.8455 291,63.5C 289.961,62.7562 289.461,61.7562 289.5,60.5C 289.167,57.8333 288.833,57.8333 288.5,60.5C 288.5,61.5 288.5,62.5 288.5,63.5C 287.662,63.8417 287.328,64.5084 287.5,65.5C 286.5,66.8333 285.5,66.8333 284.5,65.5C 283.063,64.2745 281.396,63.2745 279.5,62.5C 277.827,64.0863 275.827,64.7529 273.5,64.5C 272.791,63.596 271.791,63.2627 270.5,63.5C 270.821,61.9519 271.821,61.2852 273.5,61.5C 273.343,60.1266 273.51,58.7932 274,57.5C 276.398,60.0544 278.731,60.0544 281,57.5C 282.154,58.7433 283.488,59.7433 285,60.5C 285.617,59.5509 285.451,58.7175 284.5,58C 286.333,57.5 287.5,56.3333 288,54.5C 288.792,56.6437 290.292,57.977 292.5,58.5 Z"/></g>
<g><path style="opacity:0.275" fill="#cab9ae" d="M 270.5,63.5 C 270.5,63.8333 270.5,64.1667 270.5,64.5C 269.833,64.5 269.167,64.5 268.5,64.5C 267.167,64.5 266.5,65.1667 266.5,66.5C 266.5,66.8333 266.5,67.1667 266.5,67.5C 264.621,67.3932 264.288,67.8932 265.5,69C 264.751,70.7337 264.251,72.567 264,74.5C 263.901,72.3474 263.067,70.6808 261.5,69.5C 261.833,68.8333 262.167,68.1667 262.5,67.5C 261.833,67.5 261.167,67.5 260.5,67.5C 261.234,66.2921 261.567,64.9587 261.5,63.5C 264.346,62.9054 267.346,62.9054 270.5,63.5 Z M 262.5,67.5 C 262.517,65.9719 263.184,65.4719 264.5,66C 263.956,66.7172 263.289,67.2172 262.5,67.5 Z"/></g>
<g><path style="opacity:0.004" fill="#f3f2f2" d="M 270.5,64.5 C 270.5,64.1667 270.5,63.8333 270.5,63.5C 271.791,63.2627 272.791,63.596 273.5,64.5C 272.662,64.8417 272.328,65.5084 272.5,66.5C 271.5,66.5 270.5,66.5 269.5,66.5C 269.918,65.7784 270.584,65.2784 271.5,65C 271.272,64.6012 270.938,64.4346 270.5,64.5 Z"/></g>
<g><path style="opacity:0.278" fill="#f4e6de" d="M 47.5,62.5 C 50.1893,64.1383 52.856,65.805 55.5,67.5C 54.5041,67.4142 53.6708,67.7476 53,68.5C 51.8904,66.9632 50.3904,66.2965 48.5,66.5C 48.5674,65.0413 48.2341,63.7079 47.5,62.5 Z"/></g>
<g><path style="opacity:0.004" fill="#f3f2f1" d="M 268.5,64.5 C 268.5,65.1667 268.5,65.8333 268.5,66.5C 268.5,67.5 268.5,68.5 268.5,69.5C 267.662,69.1583 267.328,68.4916 267.5,67.5C 267.5,66.8333 267.167,66.5 266.5,66.5C 266.5,65.1667 267.167,64.5 268.5,64.5 Z"/></g>
<g><path style="opacity:0.275" fill="#c6c6c4" d="M 304.5,64.5 C 306.337,64.6395 306.67,65.3061 305.5,66.5C 304.702,66.0431 304.369,65.3764 304.5,64.5 Z"/></g>
<g><path style="opacity:1" fill="#f8d2bd" d="M 56.5,67.5 C 59.718,65.8161 62.3846,66.4828 64.5,69.5C 63.2921,70.2341 61.9587,70.5674 60.5,70.5C 59.4722,67.9017 58.4722,67.9017 57.5,70.5C 57.7373,69.209 57.404,68.209 56.5,67.5 Z"/></g>
<g><path style="opacity:0.686" fill="#c4a896" d="M 260.5,67.5 C 260.5,68.1667 260.5,68.8333 260.5,69.5C 257.76,69.2444 255.426,68.2444 253.5,66.5C 254.242,65.7132 255.075,65.0465 256,64.5C 257.092,66.1166 258.592,67.1166 260.5,67.5 Z"/></g>
<g><path style="opacity:0.82" fill="#b7b1af" d="M 314.5,70.5 C 312.027,70.0527 311.86,69.0527 314,67.5C 314.483,68.448 314.649,69.448 314.5,70.5 Z"/></g>
<g><path style="opacity:0.643" fill="#c3c2c0" d="M 318.5,68.5 C 322.456,71.4199 322.122,71.9199 317.5,70C 318.056,69.6174 318.389,69.1174 318.5,68.5 Z"/></g>
<g><path style="opacity:0.129" fill="#ceccca" d="M 309.5,67.5 C 310.621,69.3157 311.121,71.3157 311,73.5C 308.178,72.1068 307.678,70.1068 309.5,67.5 Z"/></g>
<g><path style="opacity:0.208" fill="#c7c6c5" d="M 323.5,69.5 C 324.376,69.3691 325.043,69.7025 325.5,70.5C 323.993,74.3548 323.326,74.0214 323.5,69.5 Z"/></g>
<g><path style="opacity:0.937" fill="#f7d3bd" d="M 77.5,70.5 C 81.4248,70.4299 85.0915,71.0966 88.5,72.5C 87.3121,73.6843 86.1455,73.6843 85,72.5C 84.6924,73.3081 84.1924,73.9747 83.5,74.5C 81.5699,72.826 79.5699,72.4927 77.5,73.5C 77.5,73.1667 77.5,72.8333 77.5,72.5C 77.5,71.8333 77.5,71.1667 77.5,70.5 Z"/></g>
<g><path style="opacity:0.467" fill="#cac3bf" d="M 294.5,57.5 C 294.5,58.1667 294.5,58.8333 294.5,59.5C 293.167,59.8333 293.167,60.1667 294.5,60.5C 297.125,61.802 297.125,63.1353 294.5,64.5C 293.808,63.9747 293.308,63.3081 293,62.5C 291.833,64.3333 290.333,65.8333 288.5,67C 290.125,67.8525 290.458,68.8525 289.5,70C 290.448,70.4828 291.448,70.6495 292.5,70.5C 292.5,69.5 292.5,68.5 292.5,67.5C 294.467,67.7394 296.301,67.4061 298,66.5C 297.822,68.4404 298.822,70.107 301,71.5C 304.064,68.8673 305.731,69.534 306,73.5C 304.343,70.84 302.676,70.84 301,73.5C 298.722,72.0721 296.222,71.5721 293.5,72C 294.336,73.2433 294.003,74.4099 292.5,75.5C 291.476,74.1468 290.143,73.4802 288.5,73.5C 288.649,72.448 288.483,71.448 288,70.5C 287.31,71.7383 286.81,71.7383 286.5,70.5C 286.611,69.8826 286.944,69.3826 287.5,69C 285.975,67.9914 284.308,67.4914 282.5,67.5C 282.833,66.5 283.5,65.8333 284.5,65.5C 285.5,66.8333 286.5,66.8333 287.5,65.5C 289.424,65.2893 289.757,64.6226 288.5,63.5C 288.5,62.5 288.5,61.5 288.5,60.5C 288.833,60.5 289.167,60.5 289.5,60.5C 289.461,61.7562 289.961,62.7562 291,63.5C 291.608,61.8455 292.108,60.1789 292.5,58.5C 292.711,56.5759 293.377,56.2426 294.5,57.5 Z"/></g>
<g><path style="opacity:0.247" fill="#c3c1bf" d="M 314.5,70.5 C 316.337,70.6395 316.67,71.3061 315.5,72.5C 314.702,72.0431 314.369,71.3764 314.5,70.5 Z"/></g>
<g><path style="opacity:0.141" fill="#f5f1ef" d="M 57.5,70.5 C 58.5278,73.0983 59.5278,73.0983 60.5,70.5C 60.5,71.5 60.5,72.5 60.5,73.5C 57.4655,73.817 56.4655,72.817 57.5,70.5 Z"/></g>
<g><path style="opacity:0.275" fill="#f1e3da" d="M 170.5,72.5 C 171.78,74.1058 171.28,75.1058 169,75.5C 167.699,75.3613 166.866,74.6946 166.5,73.5C 166.369,72.6236 166.702,71.9569 167.5,71.5C 168.417,72.1272 169.417,72.4606 170.5,72.5 Z"/></g>
<g><path style="opacity:0.584" fill="#f0d5c5" d="M 186.5,73.5 C 182.399,73.9658 178.399,73.9658 174.5,73.5C 175.172,72.7326 176.005,72.0659 177,71.5C 178.667,72.8333 180.333,72.8333 182,71.5C 183.622,72.0989 185.122,72.7656 186.5,73.5 Z"/></g>
<g><path style="opacity:0.757" fill="#d9b4a1" d="M 274.5,72.5 C 274.5,73.5 274.5,74.5 274.5,75.5C 272.621,76.3414 270.621,76.6747 268.5,76.5C 268.167,76.5 267.833,76.5 267.5,76.5C 267.433,75.0413 267.766,73.7079 268.5,72.5C 269.496,72.4142 270.329,72.7476 271,73.5C 271.419,69.1482 272.086,68.8149 273,72.5C 274.731,69.9686 275.231,69.9686 274.5,72.5 Z"/></g>
<g><path style="opacity:0.427" fill="#f3e4db" d="M 64.5,69.5 C 66.1238,69.3601 67.2904,70.0267 68,71.5C 68.3333,71.1667 68.6667,70.8333 69,70.5C 69.9745,72.8776 70.6411,72.5443 71,69.5C 72.8425,71.8344 75.0091,72.1677 77.5,70.5C 77.5,71.1667 77.5,71.8333 77.5,72.5C 73.9609,74.3687 70.6276,75.0354 67.5,74.5C 66.7255,72.6036 65.7255,70.937 64.5,69.5 Z"/></g>
<g><path style="opacity:0.02" fill="#fdfdfc" d="M 77.5,73.5 C 77.631,74.2389 77.4643,74.9056 77,75.5C 76.3083,74.5632 76.475,73.8966 77.5,73.5 Z"/></g>
<g><path style="opacity:0.024" fill="#f7ede6" d="M 88.5,72.5 C 92.1185,73.2436 95.7852,73.577 99.5,73.5C 97.866,74.1611 96.0326,74.4944 94,74.5C 91.7047,74.4535 89.8714,73.7868 88.5,72.5 Z"/></g>
<g><path style="opacity:0.278" fill="#f8eeeb" d="M 113.5,74.5 C 111.08,78.747 109.413,78.4136 108.5,73.5C 109.496,73.5858 110.329,73.2524 111,72.5C 111.708,73.3805 112.542,74.0472 113.5,74.5 Z"/></g>
<g><path style="opacity:0.414" fill="#f3dfd4" d="M 136.5,73.5 C 137.562,74.5754 137.562,75.5754 136.5,76.5C 133.784,74.4749 131.284,74.4749 129,76.5C 128.612,75.572 127.945,74.9054 127,74.5C 125.467,75.6953 123.967,75.6953 122.5,74.5C 121.23,75.5622 120.063,76.5622 119,77.5C 118,76.1667 117,76.1667 116,77.5C 114.812,76.4366 114.312,75.1033 114.5,73.5C 115.156,74.2778 115.989,74.9444 117,75.5C 118.727,75.3535 118.894,74.6869 117.5,73.5C 118.5,73.1667 119.5,72.8333 120.5,72.5C 126.597,72.9478 131.931,73.2811 136.5,73.5 Z"/></g>
<g><path style="opacity:0.361" fill="#f1dcd2" d="M 161.5,73.5 C 159.659,74.6733 157.826,74.6733 156,73.5C 154.527,73.9031 153.194,74.5697 152,75.5C 150.213,73.6935 148.38,73.0268 146.5,73.5C 148.567,71.4533 150.4,71.4533 152,73.5C 153.299,72.0203 154.966,71.3536 157,71.5C 159.008,71.3068 160.508,71.9735 161.5,73.5 Z"/></g>
<g><path style="opacity:0.094" fill="#f7efeb" d="M 165.5,73.5 C 165.631,74.2389 165.464,74.9056 165,75.5C 163.698,74.9152 162.531,74.2485 161.5,73.5C 162.964,72.5946 164.298,72.5946 165.5,73.5 Z"/></g>
<g><path style="opacity:0.82" fill="#f0dad0" d="M 192.5,73.5 C 195.385,73.1936 198.052,73.5269 200.5,74.5C 197.761,75.2231 195.094,74.8897 192.5,73.5 Z"/></g>
<g><path style="opacity:0.737" fill="#eed0bf" d="M 234.5,75.5 C 231.209,75.2793 227.709,75.6126 224,76.5C 221.539,75.7819 219.039,75.1153 216.5,74.5C 212.5,74.5 208.5,74.5 204.5,74.5C 203.334,76.7388 202.001,76.7388 200.5,74.5C 202.379,73.6586 204.379,73.3253 206.5,73.5C 211.719,73.4611 217.053,73.1278 222.5,72.5C 226.529,73.8999 230.529,74.8999 234.5,75.5 Z"/></g>
<g><path style="opacity:0.157" fill="#f6e9e1" d="M 107.5,74.5 C 105.642,76.7311 103.642,76.7311 101.5,74.5C 103.389,73.6201 105.389,73.6201 107.5,74.5 Z"/></g>
<g><path style="opacity:0.208" fill="#f6ede9" d="M 138.5,73.5 C 141.188,73.1658 143.521,73.8325 145.5,75.5C 143.154,76.2959 140.988,76.2959 139,75.5C 138.536,74.9056 138.369,74.2389 138.5,73.5 Z"/></g>
<g><path style="opacity:0.31" fill="#cbbcb3" d="M 268.5,72.5 C 267.766,73.7079 267.433,75.0413 267.5,76.5C 262.238,76.1953 257.072,76.5286 252,77.5C 246.733,76.8549 241.567,76.1882 236.5,75.5C 246.268,75.3173 255.934,75.3173 265.5,75.5C 265.146,72.5065 266.146,71.5065 268.5,72.5 Z"/></g>
<g><path style="opacity:1" fill="#c8b7ad" d="M 268.5,66.5 C 268.833,66.5 269.167,66.5 269.5,66.5C 270.5,66.5 271.5,66.5 272.5,66.5C 276.007,65.9935 279.174,66.6602 282,68.5C 282.399,68.2716 282.565,67.9382 282.5,67.5C 284.308,67.4914 285.975,67.9914 287.5,69C 286.944,69.3826 286.611,69.8826 286.5,70.5C 285.402,71.6009 285.235,72.9343 286,74.5C 286.333,74.1667 286.667,73.8333 287,73.5C 288.667,75.6278 290.834,76.9611 293.5,77.5C 289.008,77.8573 284.841,78.1906 281,78.5C 276.684,77.9198 272.517,77.2531 268.5,76.5C 270.621,76.6747 272.621,76.3414 274.5,75.5C 276.985,74.7399 276.985,73.7399 274.5,72.5C 275.231,69.9686 274.731,69.9686 273,72.5C 272.086,68.8149 271.419,69.1482 271,73.5C 270.329,72.7476 269.496,72.4142 268.5,72.5C 269.091,71.8485 269.757,71.1818 270.5,70.5C 270.043,69.7025 269.376,69.3691 268.5,69.5C 268.5,68.5 268.5,67.5 268.5,66.5 Z M 277.5,68.5 C 278.773,69.0768 278.773,69.7435 277.5,70.5C 276.537,70.0302 276.537,69.3635 277.5,68.5 Z"/></g>
<g><path style="opacity:0.655" fill="#c0b6b1" d="M 295.5,75.5 C 297.807,75.9863 299.973,75.9863 302,75.5C 302.317,77.3008 302.984,77.6341 304,76.5C 304.75,77.1258 305.584,77.6258 306.5,78C 302.459,78.8265 298.459,78.6599 294.5,77.5C 294.863,76.8165 295.196,76.1499 295.5,75.5 Z"/></g>
<g><path style="opacity:0.553" fill="#b6b4b4" d="M 313.5,77.5 C 314.251,76.4265 315.251,76.2599 316.5,77C 315.552,77.4828 314.552,77.6495 313.5,77.5 Z"/></g>
</svg>
